<svg xmlns="http://www.w3.org/2000/svg" xmlns:xlink="http://www.w3.org/1999/xlink" version="1.1" x="0px" y="0px" width="172px" height="172px" viewBox="0 0 172 172" enable-background="new 0 0 172 172" xml:space="preserve"><style>.style0{fill:	#EB4A3F;}.style0:hover{fill:	#FFFFFF;}.style1{stroke-linejoin:	round;stroke:	#FFFFFF;stroke-linecap: round;stroke-dasharray:	0;stroke-width:	3;fill:	none;}.style1:hover{stroke:	#EB4A3F}.style2{fill:	#FFFFFF;}.style2:hover{fill:	#EB4A3F;}.style3{opacity:	0.48;fill:	#FFFFFF;}.style3:hover{opacity:	0.48;}</style><rect width="172" height="172" class="style0"/><line x1="140.6" y1="93.3" x2="140.3" y2="93.2" class="style1"/><path d="M73.81 51.874c-0.77-0.29-1.16-1.16-0.87-1.93l0 0c0.29-0.78 1.16-1.17 1.93-0.88l0 0 c0.78 0.3 1.2 1.2 0.9 1.94l0 0c-0.23 0.6-0.8 0.97-1.41 0.97l0 0C74.17 52 74 51.9 73.8 51.874z M69.14 50.1 c-0.78-0.29-1.17-1.16-0.88-1.93l0 0c0.3-0.78 1.16-1.17 1.94-0.88l0 0c0.77 0.3 1.2 1.2 0.9 1.94l0 0 c-0.23 0.6-0.8 0.97-1.41 0.97l0 0C69.49 50.2 69.3 50.2 69.1 50.104z M64.46 48.334c-0.78-0.29-1.17-1.15-0.87-1.93l0 0 c0.29-0.77 1.15-1.17 1.93-0.87l0 0c0.77 0.3 1.2 1.2 0.9 1.93l0 0c-0.23 0.6-0.8 0.97-1.4 0.97l0 0 C64.81 48.4 64.6 48.4 64.5 48.334z M59.78 46.574c-0.78-0.3-1.17-1.16-0.87-1.94l0 0c0.29-0.77 1.16-1.16 1.93-0.87l0 0 c0.78 0.3 1.2 1.2 0.9 1.93l0 0c-0.22 0.6-0.79 0.97-1.4 0.97l0 0C60.13 46.7 60 46.6 59.8 46.574z" class="style2"/><path d="M102.95 82.104c-0.521-0.64-0.431-1.59 0.21-2.11l0 0c0.64-0.52 1.59-0.43 2.1 0.21l0 0 c0.53 0.6 0.4 1.59-0.21 2.11l0 0c-0.279 0.23-0.609 0.34-0.95 0.34l0 0C103.68 82.7 103.2 82.5 103 82.104z M99.79 78.234c-0.53-0.64-0.44-1.59 0.21-2.11l0 0c0.64-0.52 1.58-0.43 2.1 0.21l0 0c0.521 0.6 0.4 1.59-0.21 2.11l0 0 c-0.279 0.23-0.619 0.34-0.949 0.34l0 0C100.51 78.8 100.1 78.6 99.8 78.234z M96.62 74.364c-0.53-0.64-0.431-1.59 0.21-2.11 l0 0c0.64-0.52 1.59-0.43 2.1 0.21l0 0c0.53 0.6 0.4 1.59-0.21 2.11l0 0c-0.279 0.23-0.62 0.34-0.949 0.34l0 0 C97.35 74.9 96.9 74.7 96.6 74.364z M93.45 70.494c-0.521-0.64-0.431-1.58 0.21-2.11l0 0c0.649-0.53 1.59-0.43 2.1 0.21l0 0 c0.53 0.6 0.4 1.59-0.21 2.11l0 0c-0.279 0.23-0.609 0.34-0.95 0.34l0 0C94.18 71 93.8 70.9 93.5 70.494z M90.29 66.6 c-0.53-0.64-0.431-1.58 0.21-2.11l0 0c0.64-0.53 1.59-0.43 2.1 0.21l0 0c0.521 0.6 0.4 1.59-0.21 2.11l0 0 c-0.279 0.23-0.619 0.34-0.949 0.34l0 0C91.02 67.2 90.6 67 90.3 66.624z M87.12 62.754c-0.521-0.64-0.43-1.59 0.21-2.11 l0 0c0.64-0.53 1.59-0.43 2.1 0.21l0 0c0.53 0.6 0.4 1.59-0.21 2.11l0 0c-0.279 0.23-0.609 0.34-0.949 0.34l0 0 C87.85 63.3 87.4 63.1 87.1 62.754z M83.96 58.884c-0.53-0.64-0.43-1.59 0.21-2.11l0 0c0.64-0.53 1.58-0.43 2.1 0.21l0 0 c0.52 0.6 0.4 1.59-0.21 2.11l0 0c-0.28 0.23-0.62 0.34-0.95 0.34l0 0C84.68 59.4 84.2 59.2 84 58.884z" class="style2"/><path d="M133.1 94.494c-0.8-0.2-1.29-1.021-1.08-1.82l0 0c0.2-0.81 1.021-1.29 1.82-1.08l0 0 c0.8 0.2 1.3 1 1.1 1.82l0 0c-0.17 0.68-0.78 1.13-1.45 1.13l0 0C133.35 94.5 133.2 94.5 133.1 94.494z M128.25 93.3 c-0.8-0.2-1.28-1.021-1.08-1.82l0 0c0.21-0.81 1.02-1.29 1.83-1.08l0 0c0.8 0.2 1.3 1 1.1 1.82l0 0 c-0.181 0.68-0.79 1.13-1.45 1.13l0 0C128.5 93.3 128.4 93.3 128.2 93.254z M123.41 92.014c-0.801-0.2-1.29-1.02-1.08-1.82 l0 0c0.2-0.8 1.02-1.289 1.819-1.079l0 0c0.801 0.2 1.3 1 1.1 1.819l0 0c-0.17 0.681-0.779 1.13-1.449 1.13l0 0 C123.66 92.1 123.5 92 123.4 92.014z M118.56 90.773c-0.8-0.199-1.279-1.02-1.08-1.819l0 0c0.21-0.811 1.03-1.29 1.83-1.08 l0 0c0.8 0.2 1.3 1 1.1 1.819l0 0c-0.17 0.681-0.78 1.131-1.45 1.131l0 0C118.81 90.8 118.7 90.8 118.6 90.773z M113.72 89.534c-0.8-0.2-1.28-1.021-1.08-1.82l0 0c0.21-0.8 1.021-1.29 1.83-1.08l0 0c0.8 0.2 1.3 1 1.1 1.82l0 0 c-0.18 0.68-0.79 1.13-1.46 1.13l0 0C113.97 89.6 113.8 89.6 113.7 89.534z" class="style2"/><line x1="53.9" y1="42.8" x2="53.6" y2="42.7" class="style1"/><g><circle cx="140.5" cy="94" r="3.9" class="style3"/><circle cx="140.5" cy="94" r="1.7" class="style2"/></g><g><circle cx="108" cy="86.1" r="3.9" class="style3"/><circle cx="108" cy="86.1" r="1.7" class="style2"/></g><g><circle cx="80.7" cy="52.2" r="3.9" class="style3"/><circle cx="80.7" cy="52.2" r="1.7" class="style2"/></g><g><circle cx="53.5" cy="42.9" r="3.9" class="style3"/><circle cx="53.5" cy="42.9" r="1.7" class="style2"/></g><path d="M57.354 27.911c-0.917-0.916-1.992-1.361-3.287-1.361s-2.371 0.445-3.288 1.4 c-0.916 0.917-1.362 1.992-1.362 3.288c0 0.7 0.1 1.2 0.3 1.601l3.543 7.512c0.071 0.2 0.2 0.3 0.3 0.4 c0.309 0.2 0.7 0.2 1 0c0.151-0.091 0.262-0.212 0.338-0.37l3.531-7.509c0.192-0.408 0.29-0.946 0.29-1.601 C58.716 29.9 58.3 28.8 57.4 27.911z M55.598 32.728c-0.427 0.427-0.927 0.634-1.53 0.634c-0.604 0-1.104-0.207-1.531-0.634 c-0.425-0.425-0.634-0.926-0.634-1.529c0-0.603 0.208-1.103 0.634-1.53c0.427-0.427 0.927-0.634 1.531-0.634 c0.603 0 1.1 0.2 1.5 0.634s0.634 0.9 0.6 1.53C56.231 31.8 56 32.3 55.6 32.728z" class="style2"/><path d="M84.098 37.255c-0.917-0.916-1.992-1.362-3.287-1.362s-2.37 0.446-3.288 1.4 c-0.916 0.917-1.362 1.992-1.362 3.287c0 0.7 0.1 1.2 0.3 1.602l3.543 7.513c0.073 0.2 0.2 0.3 0.3 0.4 c0.308 0.2 0.7 0.2 1 0c0.151-0.091 0.262-0.213 0.338-0.37l3.53-7.51c0.193-0.408 0.292-0.945 0.292-1.602 C85.46 39.2 85 38.2 84.1 37.255z M82.34 42.073c-0.426 0.427-0.927 0.634-1.529 0.634c-0.603 0-1.103-0.207-1.53-0.634 s-0.634-0.927-0.634-1.531c0-0.603 0.207-1.103 0.634-1.53c0.427-0.426 0.927-0.634 1.53-0.634c0.602 0 1.1 0.2 1.5 0.6 c0.427 0.4 0.6 0.9 0.6 1.53C82.974 41.1 82.8 41.6 82.3 42.073z" class="style2"/><path d="M111.732 68.981c-0.916-0.916-1.99-1.362-3.286-1.362c-1.295 0-2.369 0.446-3.287 1.4 c-0.917 0.917-1.362 1.992-1.362 3.288c0 0.7 0.1 1.2 0.3 1.6l3.543 7.513c0.073 0.2 0.2 0.3 0.3 0.4 c0.309 0.2 0.7 0.2 1 0c0.151-0.09 0.262-0.211 0.338-0.369l3.532-7.511c0.192-0.407 0.29-0.945 0.29-1.6 C113.096 71 112.7 69.9 111.7 68.981z M109.977 73.799c-0.428 0.427-0.927 0.634-1.53 0.6 c-0.603 0-1.104-0.207-1.529-0.634c-0.427-0.427-0.634-0.926-0.634-1.53s0.207-1.104 0.634-1.53 c0.426-0.426 0.927-0.635 1.529-0.635c0.604 0 1.1 0.2 1.5 0.635c0.426 0.4 0.6 0.9 0.6 1.5 S110.402 73.4 110 73.799z" class="style2"/><path d="M143.903 78.498c-0.916-0.916-1.991-1.362-3.286-1.362s-2.37 0.446-3.287 1.4 c-0.917 0.917-1.362 1.992-1.362 3.288c0 0.7 0.1 1.2 0.3 1.6l3.542 7.513c0.072 0.2 0.2 0.3 0.3 0.4 c0.31 0.2 0.7 0.2 1 0c0.149-0.091 0.261-0.212 0.337-0.37l3.53-7.51c0.194-0.406 0.291-0.945 0.291-1.6 C145.266 80.5 144.8 79.4 143.9 78.498z M142.147 83.315c-0.428 0.426-0.929 0.634-1.53 0.6 c-0.603 0-1.104-0.208-1.53-0.634c-0.427-0.426-0.634-0.926-0.634-1.53s0.207-1.104 0.634-1.53c0.427-0.427 0.928-0.635 1.53-0.635 c0.602 0 1.1 0.2 1.5 0.635c0.426 0.4 0.6 0.9 0.6 1.53S142.573 82.9 142.1 83.315z" class="style2"/></svg>