<svg xmlns="http://www.w3.org/2000/svg" xmlns:xlink="http://www.w3.org/1999/xlink" version="1.1" x="0px" y="0px" width="50px" height="50px" viewBox="0 0 50 50" enable-background="new 0 0 50 50" xml:space="preserve"><g><path d="M34.341 24.901c-0.007-0.627-0.29-1.206-0.767-1.57l-5.234-4.018L23.688 15.6 c-0.32-0.256-0.691-0.371-1.062-0.367c-0.636-0.082-1.292 0.196-1.687 0.796c-0.489 0.745-0.418 1.6 0.1 2.2 c0.117 0.2 0.3 0.4 0.5 0.568l4.64 3.844H3.561c-0.722 0-1.243 0.691-1.373 1.351c-0.021 0.085-0.034 0.176-0.034 0.3 v0.033v1.3v0.035c0 0.1 0 0.2 0 0.282c0.13 0.7 0.7 1.4 1.4 1.445h22.594l-4.632 3.8 c-0.196 0.156-0.353 0.353-0.472 0.568c-0.53 0.621-0.6 1.452-0.112 2.196c0.378 0.6 1 0.9 1.6 0.8 c0.396 0 0.802-0.088 1.145-0.364l4.918-3.932l4.968-3.81c0.477-0.366 0.76-0.943 0.767-1.569c0-0.034-0.008-0.065-0.01-0.1 C34.333 25 34.3 24.9 34.3 24.901z"/><g><path d="M47.847 4.099c0-1.1-0.9-2-2-2h-0.688c-1.1 0-2 0.9-2 2v41.803c0 1.1 0.9 2 2 2h0.688c1.1 0 2-0.9 2-2 V4.099z"/></g></g></svg>