<svg xmlns="http://www.w3.org/2000/svg" xmlns:xlink="http://www.w3.org/1999/xlink" version="1.1" x="0px" y="0px" width="20px" height="20px" viewBox="0 0 20 20" enable-background="new 0 0 20 20" xml:space="preserve"><style>.style0{fill:	#EB4A3F;}</style><path d="M17.072 2.929c-3.905-3.905-10.237-3.905-14.143 0C-0.976 6.833-0.976 13.2 2.9 17.1 c3.904 3.9 10.2 3.9 14.142-0.001S20.977 6.8 17.1 2.929z M16.412 10.5c0 0.553-0.447 0.729-1 0.729h-1h-3v3v1 c0 0.552-0.447 1-1 1h-1c-0.552 0-1-0.448-1-1v-1v-3h-3h-1c-0.552 0-1-0.176-1-0.729v-1c0-0.552 0.448-1.271 1-1.271h1h3v-3v-1 c0-0.553 0.448-1 1-1h1c0.553 0 1 0.4 1 1v1v3h3h1c0.553 0 1 0.7 1 1.271V10.5z" class="style0"/></svg>