<svg xmlns="http://www.w3.org/2000/svg" xmlns:xlink="http://www.w3.org/1999/xlink" version="1.1" x="0px" y="0px" width="50px" height="50px" viewBox="0 0 50 50" enable-background="new 0 0 50 50" xml:space="preserve"><style>.style0{fill:	#EB4A3F;}</style><g><g><path d="M25 45C13.973 45 5 36 5 25.001S13.973 5 25 5c11.028 0 20 9 20 20.001S36.028 45 25 45z M25 5.634c-10.68 0-19.367 8.688-19.367 19.367c0 10.7 8.7 19.4 19.4 19.364c10.678 0 19.365-8.687 19.365-19.364 C44.365 14.3 35.7 5.6 25 5.634z" class="style0"/></g></g><g><path d="M36.88 25.392c0.018 0.4 0 0.913-0.387 1.153c-0.242 0.144-0.553 0.15-0.862 0.106v-3.192H14.287 v3.202c-0.281 0.031-0.56 0.015-0.779-0.116c-0.409-0.24-0.405-0.737-0.387-1.153c0.037-0.854-1.325-0.851-1.362 0 c-0.037 0.9 0.2 1.9 1.1 2.298c0.47 0.2 1 0.3 1.5 0.274v4.21c0 2.8 2.4 5 5.3 4.98h10.966 c2.907 0 5.113-2.229 5.113-4.979v-4.216c0.527 0 1.055-0.024 1.55-0.27c0.86-0.425 1.098-1.442 1.062-2.298 C38.204 24.5 36.8 24.5 36.9 25.392z" class="style0"/><path d="M14.287 22.625h21.344v-1.874h-8.999c-0.083-0.297-0.241-0.563-0.462-0.771v-1.371h-2.422v1.371 c-0.221 0.208-0.379 0.474-0.463 0.771h-8.999V22.625z" class="style0"/><path d="M18.009 12.162c-0.792 0.799-1.14 1.779-0.787 2.868c0.358 1.1 1.5 2.4 0.7 3.5 c-0.472 0.7 0.6 1.5 1.1 0.824c0.634-0.955 0.691-1.849 0.315-2.916c-0.452-1.283-1.426-2.263-0.232-3.468 C19.687 12.4 18.6 11.6 18 12.162z" class="style0"/><path d="M21.441 11.555c-0.698 0.872-0.891 1.765-0.668 2.845c0.283 1.4 1.1 2.6 0.3 3.9 c-0.463 0.7 0.6 1.5 1.1 0.824c0.642-0.994 0.833-1.938 0.586-3.094c-0.274-1.282-1.132-2.498-0.17-3.698 C23.05 11.7 22 10.9 21.4 11.555z" class="style0"/></g></svg>