<?xml version="1.0" encoding="utf-8"?>
<!-- Generator: Adobe Illustrator 18.1.1, SVG Export Plug-In . SVG Version: 6.00 Build 0)  -->
<svg version="1.1" id="Layer_1" xmlns="http://www.w3.org/2000/svg" xmlns:xlink="http://www.w3.org/1999/xlink" x="0px" y="0px"
	 viewBox="-454 256 50 50" enable-background="new -454 256 50 50" xml:space="preserve">
<path d="M-407.8,268.5c-0.1-0.1-0.2-0.2-0.4-0.3c-2.2-1.8-3.2-2.4-3.8-2.7c-0.2-0.1-0.3-0.1-0.5-0.1c-0.4,0-0.8,0.1-1.2,0.4
	c-0.1,0.1-1.5,1.2-3.3,2.9c1.8-2.9,3-5.6,3-5.7c0.2-0.6,0.2-1.2-0.2-1.7c-0.4-0.5-1.1-1-3.1-2.3c-0.1-0.1-0.3-0.2-0.3-0.2
	c-0.2-0.1-0.4-0.2-0.6-0.3c-0.1,0-0.2,0-0.3,0c-0.8-0.1-1.5,0.4-1.8,1.2c0,0.1-2.4,7.8-3.9,10.8c-0.2,0.5-0.6,0.7-0.6,0.7
	c-0.3,0.3-0.5,0.4-0.6,0.6c-0.8-0.3-1.7-0.4-2.5-0.4c-1.4,0-2.5,0.6-3.4,1.5l-0.8,1.1c-0.5,0.6-0.9,1.2-1.6,2.2l-5.2,7.1
	c0,0-1,1.4-1.7,2.4l-9.3,12.8c-0.7,0.8-1.1,1.7-1.1,2.5c0,1.1,0.6,2,1.6,2.5c1.1,0.5,2.5,0.2,3.6-0.8l26.6-18.6
	c0.9-0.8,1.3-1.8,1.3-3c0-0.9-0.2-1.7-0.6-2.6c2.7-2.3,9.9-6.6,10.5-7c0.5-0.3,0.8-0.8,0.9-1.3
	C-406.9,269.5-407.3,268.9-407.8,268.5z M-422.7,271.1c1.6-3.2,4-11.1,4-11.1c0,0,2.8,1.7,3.2,2.3c0,0-1.8,4.2-4.3,7.7
	c-0.1,0.2-0.3,0.4-0.4,0.5c-0.1,0.2-0.3,0.4-0.4,0.5c-0.4,0.4-0.7,0.9-1.1,1.2c-0.3,0.3-0.6,0.5-0.8,0.8c-0.2-0.2-0.5-0.3-0.7-0.5
	c-0.1-0.1-0.3-0.1-0.4-0.2C-423.5,272.2-423,271.8-422.7,271.1z M-419.2,276.9c-0.2-0.3-0.4-0.7-0.6-0.9c-0.2-0.3-0.4-0.6-0.7-0.9
	c0,0,0,0,0,0c0.1-0.2,0.3-0.4,0.4-0.6c0.1-0.2,0.3-0.4,0.4-0.6c2.9-3.6,6.9-6.8,6.9-6.8c0.8,0.3,3.9,2.8,3.9,2.8h0
	C-408.7,270-416,274.3-419.2,276.9z"/>
</svg>
