<svg xmlns="http://www.w3.org/2000/svg" xmlns:xlink="http://www.w3.org/1999/xlink" version="1.1" x="0px" y="0px" width="50px" height="50px" viewBox="0 0 50 50" enable-background="new 0 0 50 50" xml:space="preserve"><style>.style0{fill:	#EB4A3F;}</style><g><g><path d="M25 45C13.973 45 5 36 5 25.001S13.973 5 25 5c11.028 0 20 9 20 20.001S36.028 45 25 45z M25 5.634c-10.68 0-19.367 8.688-19.367 19.367c0 10.7 8.7 19.4 19.4 19.364c10.678 0 19.365-8.687 19.365-19.364 C44.365 14.3 35.7 5.6 25 5.634z" class="style0"/></g></g><path d="M35.167 24.5l0.225-0.364c-0.27-2.983-3.037-5.636-6.327-5.636c-0.027 0-0.059 0-0.089 0 c-1.58 0-3.059 0.86-4.206 1.817c-0.848-0.369-1.798-0.424-2.793-0.414c-1.346 0.017-2.594 0.481-3.617 1.145l-2.333-9.596 l-0.999 0.26l2.443 10.102c-0.444 0.422-0.821 0.906-1.111 1.441l-3.729-8.014l-0.934 0.486l4.058 8.772H11.5v0.409 c0 7.4 6.1 13.5 13.5 13.501c7.441 0 13.5-6.057 13.5-13.501V24.5H35.167z M16.985 24.5c0.686-2 2.703-3.285 5.005-3.316 c2.397-0.034 4.5 1.3 5.1 3.316H16.985z M28.21 24.5c-0.374-1-1.259-2.836-2.447-3.611c0.913-0.647 2.034-1.389 3.229-1.389 c0.025 0 0.1 0 0.1 0c2.729 0 5 3 5.3 5H28.21z" class="style0"/></svg>