<svg version="1.1" id="Layer_1" xmlns="http://www.w3.org/2000/svg" xmlns:xlink="http://www.w3.org/1999/xlink" x="0px" y="0px"
	 viewBox="-454 256 50 50" enable-background="new -454 256 50 50" xml:space="preserve">
<g>
	<g>
		<path d="M-429,301c-11,0-20-9-20-20s9-20,20-20c11,0,20,9,20,20S-418,301-429,301z M-429,261.6c-10.7,0-19.4,8.7-19.4,19.4
			c0,10.7,8.7,19.4,19.4,19.4c10.7,0,19.4-8.7,19.4-19.4C-409.6,270.3-418.3,261.6-429,261.6z"/>
	</g>
</g>
<path d="M-414,273.4c-0.1,0-0.1-0.1-0.2-0.2c-1.4-1.1-1.9-1.5-2.3-1.6c-0.1,0-0.2-0.1-0.3-0.1c-0.3,0-0.5,0.1-0.7,0.2
	c-0.1,0-0.9,0.7-2,1.7c1.1-1.8,1.8-3.4,1.8-3.5c0.1-0.3,0.1-0.7-0.1-1c-0.2-0.3-0.7-0.6-1.9-1.4c-0.1-0.1-0.2-0.1-0.2-0.1
	c-0.1-0.1-0.2-0.2-0.4-0.2c-0.1,0-0.1,0-0.2,0c-0.5,0-0.9,0.3-1.1,0.7c0,0-1.5,4.8-2.4,6.6c-0.1,0.3-0.4,0.4-0.4,0.4
	c-0.2,0.2-0.3,0.3-0.4,0.3c-0.5-0.2-1-0.3-1.6-0.3c-0.8,0-1.5,0.3-2.1,0.9l-0.5,0.7c-0.3,0.3-0.6,0.7-1,1.4l-3.1,4.3
	c0,0-0.6,0.8-1.1,1.5l-5.7,7.8c-0.4,0.5-0.7,1-0.7,1.5c0,0.7,0.4,1.2,1,1.5c0.7,0.3,1.5,0.1,2.2-0.5l16.2-11.3
	c0.5-0.5,0.8-1.1,0.8-1.8c0-0.5-0.1-1.1-0.3-1.6c1.6-1.4,6-4,6.4-4.3c0.3-0.2,0.5-0.5,0.5-0.8C-413.5,274-413.7,273.6-414,273.4z
	 M-423.1,275c1-1.9,2.4-6.8,2.4-6.8c0,0,1.7,1.1,1.9,1.4c0,0-1.1,2.6-2.7,4.7c-0.1,0.1-0.2,0.2-0.2,0.3c-0.1,0.1-0.2,0.2-0.2,0.3
	c-0.2,0.3-0.4,0.5-0.7,0.8c-0.2,0.2-0.3,0.3-0.5,0.5c-0.1-0.1-0.3-0.2-0.4-0.3c-0.1,0-0.2-0.1-0.2-0.1
	C-423.6,275.7-423.3,275.4-423.1,275z M-420.9,278.5c-0.1-0.2-0.2-0.4-0.4-0.6c-0.1-0.2-0.3-0.4-0.4-0.5c0,0,0,0,0,0
	c0.1-0.1,0.2-0.2,0.3-0.4c0.1-0.1,0.2-0.2,0.3-0.3c1.8-2.2,4.2-4.1,4.2-4.1c0.5,0.2,2.4,1.7,2.4,1.7h0
	C-414.5,274.3-419,276.9-420.9,278.5z"/>
</svg>
