<svg class="icon icon-user-action icon-totrip" xmlns="http://www.w3.org/2000/svg" xmlns:xlink="http://www.w3.org/1999/xlink" version="1.1" x="0px" y="0px" width="25px" height="25px" viewBox="0 0 25 25" enable-background="new 0 0 25 25" xml:space="preserve"><g display="none"><g display="inline"><g><path d="M16.127 15.276c-0.637 0-1.219 0.217-1.688 0.576l-4.832-2.898c0.024-0.148 0.04-0.299 0.04-0.454 c0-0.156-0.016-0.307-0.04-0.455l4.832-2.898c0.469 0.4 1.1 0.6 1.7 0.576c1.535 0 2.777-1.243 2.777-2.776 c0-1.534-1.242-2.777-2.777-2.777c-1.533 0-2.775 1.243-2.775 2.777c0 0.2 0 0.3 0 0.454l-4.832 2.9 c-0.468-0.359-1.052-0.576-1.69-0.576c-1.532 0-2.775 1.244-2.775 2.777c0 1.5 1.2 2.8 2.8 2.8 c0.639 0 1.223-0.216 1.69-0.576l4.832 2.898c-0.025 0.148-0.041 0.3-0.041 0.455c0 1.5 1.2 2.8 2.8 2.8 c1.535 0 2.777-1.245 2.777-2.777C18.904 16.5 17.7 15.3 16.1 15.276z"/></g><g><path d="M12.499 25.097C5.606 25.1 0 19.5 0 12.597c0-6.893 5.606-12.5 12.499-12.5S25 5.7 25 12.6 C25 19.5 19.4 25.1 12.5 25.097z M12.499 0.331c-6.764 0-12.267 5.502-12.267 12.266c0 6.8 5.5 12.3 12.3 12.3 s12.267-5.502 12.267-12.266C24.766 5.8 19.3 0.3 12.5 0.331z"/></g></g></g><g display="none"><g display="inline"><g><path d="M12.495 25h-0.002c-3.338 0-6.477-1.301-8.839-3.66c-4.872-4.875-4.872-12.805 0-17.678 C6.017 1.3 9.2 0 12.5 0c3.34 0 6.5 1.3 8.8 3.662c2.361 2.4 3.7 5.5 3.7 8.8 c0 3.34-1.301 6.479-3.662 8.838C18.972 23.7 15.8 25 12.5 25z M12.493 0.235c-3.276 0-6.355 1.275-8.672 3.6 c-4.783 4.782-4.783 12.6 0 17.347c2.316 2.3 5.4 3.6 8.7 3.592h0.002c3.274 0 6.354-1.277 8.672-3.592 c2.315-2.316 3.592-5.398 3.592-8.674c0-3.276-1.276-6.356-3.592-8.672C18.851 1.5 15.8 0.2 12.5 0.235z"/></g><path d="M19.638 7.46c-1.966-1.948-5.107-1.083-7.145 0.75c-2.037-1.833-5.179-2.698-7.145-0.75 c-2.026 2.006-2.026 5.3 0 7.267c0.578 0.6 6 5.9 6 5.928c0.643 0.6 1.7 0.6 2.3 0 c0 0 5.922-5.865 5.985-5.928C21.666 12.7 21.7 9.5 19.6 7.5"/></g></g><g><g><g><path d="M12.5 25C5.608 25 0 19.4 0 12.5C0 5.6 5.6 0 12.5 0C19.394 0 25 5.6 25 12.5 C25 19.4 19.4 25 12.5 25z M12.5 0.234C5.736 0.2 0.2 5.7 0.2 12.5c0 6.8 5.5 12.3 12.3 12.3 S24.766 19.3 24.8 12.5C24.766 5.7 19.3 0.2 12.5 0.234z"/></g><g><path d="M16.314 22.181c0.135-0.001 0.242-0.119 0.242-0.262l-0.014-1.833c0-0.144 0.107-0.262 0.242-0.263 l1.919-0.014c0.133-0.001 0.242-0.12 0.24-0.263l-0.004-0.602c0-0.144-0.111-0.26-0.244-0.26L16.777 18.7 c-0.135 0.002-0.244-0.115-0.246-0.259l-0.013-1.833c-0.002-0.144-0.111-0.261-0.246-0.259l-0.521 0 c-0.136 0-0.243 0.12-0.243 0.263l0.014 1.833c0 0.144-0.109 0.261-0.242 0.263l-1.929 0 c-0.135 0.001-0.242 0.118-0.242 0.262l0.004 0.603c0.002 0.1 0.1 0.3 0.2 0.258l1.929-0.013 c0.134-0.001 0.2 0.1 0.2 0.26l0.012 1.832c0.002 0.1 0.1 0.3 0.2 0.259L16.314 22.181z"/><path d="M11.17 4.891l-0.866 0 c-0.212 0.001-0.384 0.176-0.383 0.388l0.026 3.658L6.544 8.967C6.386 9 6.2 9 6 9.1 C5.81 9.1 5.6 9.2 5.5 9.297l-2.274 1.585c-0.129 0.089-0.192 0.207-0.191 0.323c0 0.1 0.1 0.2 0.2 0.3 l2.297 1.553c0.13 0.1 0.3 0.2 0.5 0.224c0.19 0.1 0.4 0.1 0.5 0.091l3.403-0.023l0.06 8.5 c0.001 0.2 0.2 0.4 0.4 0.383l0.866-0.006c0.211-0.002 0.383-0.177 0.382-0.388L11.558 5.3 C11.557 5.1 11.4 4.9 11.2 4.9 M22.073 8.824l-2.296-1.553c-0.131-0.088-0.314-0.167-0.503-0.224 c-0.19-0.057-0.388-0.092-0.547-0.091l-6.579 0.047l0.801 4.422l5.81-0.041c0.159-0.001 0.355-0.039 0.544-0.099 c0.189-0.06 0.372-0.142 0.499-0.231l2.276-1.585c0.128-0.09 0.191-0.207 0.191-0.324C22.269 9 22.2 8.9 22.1 8.8" class="style1"/></g></g></g><g display="none"><g display="inline"><g><g><path d="M12.496 25L12.496 25c-3.34 0-6.479-1.3-8.839-3.66C-1.218 16.465-1.218 8.5 3.7 3.7 C6.016 1.3 9.2 0 12.5 0c3.34 0 6.5 1.3 8.8 3.662c2.361 2.4 3.7 5.5 3.7 8.838s-1.299 6.479-3.662 8.8 C18.973 23.7 15.8 25 12.5 25z M12.494 0.234c-3.276 0-6.355 1.275-8.672 3.592c-4.783 4.782-4.783 12.6 0 17.3 c2.316 2.3 5.4 3.6 8.7 3.592h0.002c3.276 0 6.356-1.275 8.672-3.593c2.316-2.316 3.592-5.396 3.592-8.673 s-1.275-6.356-3.592-8.673C18.852 1.5 15.8 0.2 12.5 0.234z"/></g><g><path d="M9.249 12.721c0-0.479-0.334-0.766-0.922-0.766c-0.239 0-0.402 0.022-0.487 0.046v1.541 c0.102 0 0.2 0 0.4 0.031C8.861 13.6 9.2 13.3 9.2 12.721z"/><path d="M12.891 11.97c-0.264 0-0.435 0.023-0.536 0.047v3.415c0.102 0 0.3 0 0.4 0 c1.068 0 1.766-0.581 1.766-1.827C14.539 12.5 13.9 12 12.9 11.97z"/><path d="M19.865 9.964h-0.426V7.898c0-0.014-0.004-0.026-0.006-0.039c0-0.082-0.027-0.163-0.082-0.227 l-3.438-3.926c0-0.001-0.002-0.001-0.002-0.003c-0.02-0.022-0.045-0.042-0.07-0.059c-0.008-0.005-0.016-0.009-0.021-0.013 c-0.021-0.012-0.045-0.022-0.07-0.029c-0.006-0.002-0.012-0.005-0.02-0.006c-0.025-0.007-0.051-0.011-0.08-0.011H7.203 c-0.386 0-0.697 0.314-0.697 0.699v5.677H6.078c-0.553 0-1 0.447-1 1v5.195c0 0.6 0.4 1 1 0.999h0.428v3.557 c0 0.4 0.3 0.7 0.7 0.699h11.535c0.387 0 0.701-0.314 0.701-0.699v-3.557h0.426c0.553 0 1-0.448 1-0.999v-5.195 C20.865 10.4 20.4 10 19.9 9.964z M7.203 4.287h8.098v3.576c0 0.2 0.2 0.3 0.3 0.35h3.088v1.751H7.203V4.287z M15.787 13.588c0 1-0.365 1.689-0.869 2.115c-0.549 0.456-1.387 0.673-2.408 0.673c-0.61 0-1.046-0.038-1.34-0.076v-5.128 c0.433-0.069 1-0.107 1.596-0.107c0.99 0 1.6 0.2 2.1 0.557C15.445 12 15.8 12.7 15.8 13.588z M6.671 16.3 v-5.149c0.363-0.062 0.874-0.107 1.594-0.107c0.729 0 1.2 0.1 1.6 0.418c0.332 0.3 0.6 0.7 0.6 1.2 s-0.171 0.945-0.479 1.239c-0.404 0.379-1 0.55-1.698 0.55c-0.153 0-0.294-0.008-0.401-0.022v1.865L6.671 16.321L6.671 16.321z M18.738 20.524H7.203v-3.367h11.535V20.524z M19.752 12.07h-2.006v1.193h1.873v0.961h-1.873v2.097h-1.184v-5.219h3.189V12.07z"/></g></g></g></g></svg>