<svg xmlns="http://www.w3.org/2000/svg" xmlns:xlink="http://www.w3.org/1999/xlink" version="1.1" id="Layer_1" x="0px" y="0px" width="60px" height="60px" viewBox="0 0 60 60" enable-background="new 0 0 60 60" xml:space="preserve">
<circle opacity="0.36" fill="#EB4A3F" cx="30.1" cy="30" r="30"/>
<g>
	<g>
		<path fill="#EB4A3F" d="M30 50c11.045 0 20-8.954 20-19.999C50 19 41 10 30 10s-20 8.954-20 20 C10 41 19 50 30 50"/>
	</g>
	<path fill="#FFFFFF" d="M35.732 19.931c-1.599-1.598-3.474-2.375-5.732-2.375c-2.258 0-4.134 0.777-5.733 2.4 c-1.599 1.599-2.375 3.474-2.375 5.733c0 1.1 0.2 2.1 0.5 2.792l6.18 13.104c0.125 0.3 0.3 0.5 0.6 0.6 c0.538 0.3 1.2 0.3 1.7 0c0.264-0.159 0.457-0.37 0.59-0.646l6.159-13.099c0.336-0.71 0.506-1.649 0.506-2.792 C38.108 23.4 37.3 21.5 35.7 19.931z M32.669 28.333c-0.745 0.744-1.617 1.105-2.669 1.105s-1.924-0.361-2.669-1.105 c-0.743-0.743-1.104-1.616-1.104-2.669c0-1.052 0.361-1.924 1.104-2.667c0.745-0.744 1.617-1.106 2.669-1.106 s1.925 0.4 2.7 1.106c0.743 0.7 1.1 1.6 1.1 2.667C33.773 26.7 33.4 27.6 32.7 28.333z"/>
</g>
</svg>