<svg xmlns="http://www.w3.org/2000/svg" xmlns:xlink="http://www.w3.org/1999/xlink" version="1.1" id="Layer_1" x="0px" y="0px" width="28px" height="28px" viewBox="0 0 28 28" enable-background="new 0 0 28 28" xml:space="preserve"><style>.style0{fill:	#EB4A3F;}</style><g><g><path d="M17.973 16.936c-0.705 0-1.354 0.241-1.874 0.64l-5.362-3.217c0.027-0.165 0.043-0.333 0.043-0.505 c0-0.173-0.017-0.34-0.043-0.505l5.362-3.217c0.52 0.4 1.2 0.6 1.9 0.64c1.701 0 3.083-1.38 3.083-3.082 c0-1.703-1.382-3.083-3.083-3.083c-1.702 0-3.082 1.38-3.082 3.083c0 0.2 0 0.3 0 0.504l-5.362 3.2 c-0.52-0.399-1.168-0.64-1.875-0.64c-1.701 0-3.083 1.38-3.083 3.083s1.381 3.1 3.1 3.082c0.707 0 1.355-0.239 1.875-0.641 l5.362 3.219c-0.027 0.164-0.044 0.331-0.044 0.505c0 1.7 1.4 3.1 3.1 3.082c1.701 0 3.083-1.38 3.083-3.082 S19.674 16.9 18 16.936z" class="style0"/></g></g><g><path d="M13.854 27.854c-7.719 0-14-6.28-14-14c0-7.719 6.281-14 14-14c7.72 0 14 6.3 14 14 C27.854 21.6 21.6 27.9 13.9 27.854z M13.854 0.363c-7.439 0-13.491 6.052-13.491 13.5 c0 7.4 6.1 13.5 13.5 13.491c7.438 0 13.491-6.053 13.491-13.491C27.345 6.4 21.3 0.4 13.9 0.363z" class="style0"/></g></svg>