<svg xmlns="http://www.w3.org/2000/svg" xmlns:xlink="http://www.w3.org/1999/xlink" version="1.1" x="0px" y="0px" width="25px" height="25px" viewBox="0 0 25 25" enable-background="new 0 0 25 25" xml:space="preserve"><style>.style0{fill:	#96989A;}.style1{fill-rule:	evenodd;clip-rule:	evenodd;fill:	#96989A;}</style><g><g><path d="M12.495 25h-0.002c-3.339 0-6.477-1.299-8.839-3.659c-4.873-4.875-4.873-12.806 0-17.68 C6.016 1.3 9.2 0 12.5 0c3.34 0 6.5 1.3 8.8 3.662c2.36 2.4 3.7 5.5 3.7 8.839c0 3.338-1.301 6.477-3.661 8.8 C18.972 23.7 15.8 25 12.5 25z M12.493 0.455c-3.217 0-6.242 1.252-8.518 3.527c-4.695 4.698-4.695 12.3 0 17 c2.275 2.3 5.3 3.5 8.5 3.526h0.002c3.217 0 6.241-1.254 8.518-3.528c2.273-2.275 3.527-5.301 3.527-8.519 c0-3.217-1.253-6.242-3.526-8.517C18.737 1.7 15.7 0.5 12.5 0.455z" class="style0"/></g><path d="M10.154 7.818l-0.002 2.179L8.246 9.996l-0.003 3.157l1.906 0 l-0.01 9.092l3.754 0.004l0.01-9.092l2.506 0.004l0.33-3.158l-2.832-0.003l0.001-1.797c0.001-0.6 0.35-0.979 0.928-0.978 l1.905 0.002l0.004-3.158l-2.561-0.002C11.622 4.1 10.2 5.3 10.2 7.818z" class="style1"/></g></svg>