<svg class="icon icon-user-action icon-share" xmlns="http://www.w3.org/2000/svg" xmlns:xlink="http://www.w3.org/1999/xlink" version="1.1" x="0px" y="0px" width="25px" height="25px" viewBox="0 0 25 25" enable-background="new 0 0 25 25" xml:space="preserve"><g><g><path d="M16.127 15.276c-0.637 0-1.219 0.217-1.688 0.576l-4.832-2.898c0.024-0.148 0.04-0.299 0.04-0.454 c0-0.156-0.016-0.307-0.04-0.455l4.832-2.898c0.469 0.4 1.1 0.6 1.7 0.576c1.535 0 2.777-1.243 2.777-2.776 c0-1.534-1.242-2.777-2.777-2.777c-1.533 0-2.775 1.243-2.775 2.777c0 0.2 0 0.3 0 0.454l-4.832 2.9 c-0.468-0.359-1.052-0.576-1.69-0.576c-1.532 0-2.775 1.244-2.775 2.777c0 1.5 1.2 2.8 2.8 2.8 c0.639 0 1.223-0.216 1.69-0.576l4.832 2.898c-0.025 0.148-0.041 0.3-0.041 0.455c0 1.5 1.2 2.8 2.8 2.8 c1.535 0 2.777-1.245 2.777-2.777C18.904 16.5 17.7 15.3 16.1 15.276z"/></g><g><path d="M12.499 25.097C5.606 25.1 0 19.5 0 12.597c0-6.893 5.606-12.5 12.499-12.5S25 5.7 25 12.6 C25 19.5 19.4 25.1 12.5 25.097z M12.499 0.331c-6.764 0-12.267 5.502-12.267 12.266c0 6.8 5.5 12.3 12.3 12.3 s12.267-5.502 12.267-12.266C24.766 5.8 19.3 0.3 12.5 0.331z"/></g></g></svg>