<svg xmlns="http://www.w3.org/2000/svg" xmlns:xlink="http://www.w3.org/1999/xlink" version="1.1" x="0px" y="0px" width="145.074px" height="25px" viewBox="0 0 145.074 25" enable-background="new 0 0 145.074 25" xml:space="preserve"><style>.style0{fill:	#96989A;}.style1{opacity:	0.36;fill:	#96989A;}.style2{fill:	#2E3136;}</style><g><path d="M129.252 21.118l-1.884-4.208h-10.225l-1.86 4.208h-1.418l7.681-17.123h1.443l7.681 17.123H129.252z M126.854 15.688l-4.599-10.421l-4.6 10.421H126.854z" class="style0"/><path d="M27.685 21.118V4.02h12.304v3.106h-9.074v4.672h8.585v2.984h-8.585v6.336H27.685z" class="style0"/><path d="M58.942 12.654c-0.048 4.428-2.764 8.855-8.781 8.855s-8.807-4.33-8.807-8.831s2.887-9.026 8.807-9.026 C56.057 3.65 58.99 8.18 58.94 12.654z M44.535 12.728c0.073 2.81 1.59 5.82 5.63 5.821s5.553-3.032 5.602-5.846 c0.049-2.887-1.565-6.115-5.602-6.115S44.462 9.84 44.53 12.728z" class="style0"/><path d="M77.528 12.654c-0.048 4.428-2.764 8.855-8.781 8.855s-8.807-4.33-8.807-8.831s2.887-9.026 8.807-9.026 C74.643 3.65 77.58 8.18 77.53 12.654z M63.121 12.728c0.073 2.81 1.59 5.82 5.63 5.821s5.553-3.032 5.602-5.846 c0.049-2.887-1.565-6.115-5.602-6.115S63.048 9.84 63.12 12.728z" class="style0"/><path d="M94.354 12.409c0.073 4.33-2.568 8.709-8.562 8.709c-2.104 0-4.624 0-6.728 0V3.995 c2.104 0 4.62 0 6.73 0C91.662 4 94.28 8.18 94.35 12.409z M82.27 18.012h3.522c3.89 0 5.431-2.838 5.357-5.626 c-0.073-2.667-1.64-5.333-5.357-5.333H82.27V18.012z" class="style0"/><path d="M111.18 5.903l-6.557 10.028h-0.439L97.578 5.903v15.215h-1.32V3.995c0.636 0 0.93 0 1.56 0l6.556 9.98 l6.481-9.98h1.615v17.123h-1.296V5.903z" class="style0"/><path d="M133.308 15.198v5.92h-1.321V3.995c2.496 0 5.02 0 7.51 0c7.437 0 7.44 11.2 0 11.203H133.308z M133.308 5.218V14h6.188c5.7 0 5.7-8.782 0-8.782H133.308z" class="style0"/></g><g><path d="M9.075 3.425C4.063 3.42 0 7.49 0 12.5c0 5.01 4.06 9.07 9.07 9.07 c5.013 0 9.075-4.062 9.075-9.075C18.15 7.49 14.09 3.42 9.07 3.425z M9.075 18.537c-3.289 0-5.955-2.667-5.955-5.956 s2.666-5.955 5.955-5.955s5.956 2.67 5.96 5.955S12.364 18.54 9.07 18.537z" class="style1"/><path d="M9.075 10.166c-0.312 0-0.573 0.108-0.795 0.33c-0.221 0.221-0.329 0.48-0.329 0.79 s0.108 0.57 0.33 0.795c0.222 0.22 0.48 0.33 0.8 0.329c0.313 0 0.573-0.107 0.795-0.329s0.329-0.481 0.329-0.795 s-0.107-0.573-0.329-0.794C9.648 10.27 9.39 10.17 9.07 10.166z" class="style0"/><path d="M9.075 6.626c-3.289 0-5.955 2.666-5.955 5.955s2.666 5.96 5.96 5.956s5.956-2.667 5.956-5.956 S12.364 6.63 9.07 6.626z M11.339 12.122l-1.834 3.9c-0.039 0.082-0.097 0.145-0.175 0.191c-0.16 0.097-0.349 0.097-0.509 0 c-0.077-0.046-0.132-0.107-0.17-0.19l-1.84-3.901C6.711 11.91 6.66 11.63 6.66 11.29c0-0.673 0.232-1.23 0.708-1.707 c0.477-0.476 1.035-0.707 1.707-0.707c0.673 0 1.23 0.23 1.71 0.707c0.477 0.48 0.71 1.03 0.71 1.71 C11.49 11.63 11.44 11.91 11.34 12.122z" class="style0"/><path d="M9.075 8.876c-0.672 0-1.23 0.231-1.707 0.707C6.893 10.06 6.66 10.62 6.66 11.29 c0 0.34 0.05 0.62 0.15 0.832l1.84 3.901c0.038 0.08 0.09 0.14 0.17 0.19c0.16 0.1 0.35 0.1 0.51 0 c0.078-0.047 0.136-0.109 0.175-0.191l1.834-3.9c0.101-0.212 0.151-0.491 0.151-0.832c0-0.673-0.231-1.231-0.708-1.707 C10.307 9.11 9.75 8.88 9.07 8.876z M9.87 12.085c-0.222 0.222-0.481 0.329-0.795 0.329c-0.312 0-0.573-0.107-0.795-0.329 c-0.221-0.222-0.329-0.481-0.329-0.795s0.108-0.573 0.329-0.794c0.222-0.222 0.482-0.33 0.795-0.33c0.313 0 0.57 0.11 0.8 0.33 c0.222 0.22 0.33 0.48 0.33 0.794S10.092 11.86 9.87 12.085z" class="style2"/></g></svg>