<svg xmlns="http://www.w3.org/2000/svg" xmlns:xlink="http://www.w3.org/1999/xlink" version="1.1" id="Layer_1" x="0px" y="0px" width="172px" height="172px" viewBox="0 0 172 172" enable-background="new 0 0 172 172" xml:space="preserve"><rect fill="#F8FCFE" width="172" height="172"/><line fill="none" stroke="#FFFFFF" stroke-width="3" stroke-linecap="round" stroke-linejoin="round" stroke-dasharray="0,5" x1="140.574" y1="93.312" x2="140.295" y2="93.248"/><path fill="#EB4A3F" d="M73.81 51.874c-0.77-0.29-1.16-1.16-0.87-1.93l0 0c0.29-0.78 1.16-1.17 1.93-0.88l0 0c0.78 0.3 1.17 1.16 0.88 1.94l0 0c-0.23 0.6-0.8 0.97-1.41 0.97l0 0C74.17 51.974 73.99 51.944 73.81 51.874zM69.14 50.104c-0.78-0.29-1.17-1.16-0.88-1.93l0 0c0.3-0.78 1.16-1.17 1.94-0.88l0 0c0.77 0.3 1.16 1.16 0.87 1.94l0 0c-0.23 0.6-0.8 0.97-1.41 0.97l0 0C69.49 50.204 69.31 50.174 69.14 50.104zM64.46 48.334c-0.78-0.29-1.17-1.15-0.87-1.93l0 0c0.29-0.77 1.15-1.17 1.93-0.87l0 0c0.77 0.29 1.16 1.16 0.87 1.93l0 0c-0.23 0.6-0.8 0.97-1.4 0.97l0 0C64.81 48.434 64.63 48.404 64.46 48.334zM59.78 46.574c-0.78-0.3-1.17-1.16-0.87-1.94l0 0c0.29-0.77 1.16-1.16 1.93-0.87l0 0c0.78 0.29 1.17 1.16 0.87 1.93l0 0c-0.22 0.6-0.79 0.97-1.4 0.97l0 0C60.13 46.664 59.96 46.634 59.78 46.574zM102.95 82.104c-0.521-0.64-0.431-1.59 0.21-2.11l0 0c0.64-0.52 1.59-0.43 2.109 0.21l0 0c0.529 0.64 0.431 1.59-0.211 2.11l0 0c-0.279 0.23-0.608 0.34-0.949 0.34l0 0C103.68 82.654 103.25 82.464 102.95 82.104zM99.79 78.234c-0.53-0.64-0.44-1.59 0.21-2.11l0 0c0.641-0.52 1.58-0.43 2.109 0.21l0 0c0.521 0.64 0.431 1.59-0.211 2.11l0 0c-0.278 0.23-0.619 0.34-0.948 0.34l0 0C100.51 78.784 100.08 78.594 99.79 78.234zM96.62 74.364c-0.53-0.64-0.431-1.59 0.21-2.11l0 0c0.641-0.52 1.59-0.43 2.109 0.21l0 0c0.529 0.64 0.431 1.59-0.211 2.11l0 0c-0.278 0.23-0.619 0.34-0.949 0.34l0 0C97.35 74.914 96.92 74.724 96.62 74.364zM93.45 70.494c-0.521-0.64-0.431-1.58 0.21-2.11l0 0c0.648-0.53 1.59-0.43 2.109 0.21l0 0c0.529 0.64 0.431 1.59-0.211 2.11l0 0c-0.279 0.23-0.608 0.34-0.949 0.34l0 0C94.18 71.044 93.75 70.854 93.45 70.494zM90.29 66.624c-0.53-0.64-0.431-1.58 0.21-2.11l0 0c0.641-0.53 1.59-0.43 2.109 0.21l0 0c0.521 0.64 0.431 1.59-0.211 2.11l0 0c-0.278 0.23-0.619 0.34-0.948 0.34l0 0C91.02 67.174 90.58 66.984 90.29 66.624zM87.12 62.754c-0.521-0.64-0.431-1.59 0.21-2.11l0 0c0.641-0.53 1.59-0.43 2.109 0.21l0 0c0.529 0.64 0.431 1.59-0.211 2.11l0 0c-0.278 0.23-0.608 0.34-0.949 0.34l0 0C87.85 63.304 87.42 63.114 87.12 62.754zM83.96 58.884c-0.53-0.64-0.43-1.59 0.21-2.11l0 0c0.64-0.53 1.58-0.43 2.11 0.21l0 0c0.52 0.64 0.43 1.59-0.21 2.11l0 0c-0.28 0.23-0.62 0.34-0.95 0.34l0 0C84.68 59.434 84.25 59.244 83.96 58.884zM133.1 94.494c-0.8-0.2-1.289-1.021-1.08-1.82l0 0c0.201-0.81 1.021-1.29 1.82-1.08l0 0c0.801 0.2 1.29 1.021 1.08 1.82l0 0c-0.17 0.68-0.779 1.13-1.449 1.13l0 0C133.35 94.544 133.221 94.523 133.1 94.494zM128.25 93.254c-0.8-0.199-1.279-1.021-1.08-1.82l0 0c0.21-0.81 1.02-1.289 1.83-1.08l0 0c0.8 0.201 1.279 1.021 1.08 1.82l0 0c-0.182 0.68-0.79 1.131-1.45 1.131l0 0C128.5 93.305 128.38 93.284 128.25 93.254zM123.41 92.014c-0.801-0.199-1.29-1.02-1.08-1.82l0 0c0.199-0.799 1.02-1.289 1.818-1.078l0 0c0.802 0.199 1.291 1.02 1.08 1.818l0 0c-0.17 0.682-0.778 1.131-1.449 1.131l0 0C123.66 92.062 123.529 92.044 123.41 92.014zM118.561 90.773c-0.801-0.199-1.279-1.021-1.08-1.819l0 0c0.209-0.812 1.029-1.29 1.83-1.08l0 0c0.799 0.2 1.289 1.021 1.08 1.819l0 0c-0.17 0.681-0.781 1.131-1.451 1.131l0 0C118.811 90.824 118.689 90.812 118.561 90.773zM113.721 89.534c-0.801-0.2-1.281-1.021-1.08-1.82l0 0c0.209-0.8 1.021-1.29 1.83-1.08l0 0c0.799 0.2 1.279 1.021 1.079 1.82l0 0c-0.18 0.68-0.79 1.13-1.46 1.13l0 0C113.971 89.584 113.85 89.574 113.721 89.534z"/><line fill="none" stroke="#FFFFFF" stroke-width="3" stroke-linecap="round" stroke-linejoin="round" stroke-dasharray="0,5" x1="53.85" y1="42.822" x2="53.579" y2="42.728"/><circle opacity="0.48" fill="#EB4A3F" enable-background="new    " cx="140.543" cy="94.023" r="3.912"/><circle fill="#EB4A3F" cx="140.543" cy="94.023" r="1.739"/><circle opacity="0.48" fill="#EB4A3F" enable-background="new    " cx="108.023" cy="86.089" r="3.912"/><circle fill="#EB4A3F" cx="108.023" cy="86.089" r="1.738"/><circle opacity="0.48" fill="#EB4A3F" enable-background="new    " cx="80.682" cy="52.209" r="3.912"/><circle fill="#EB4A3F" cx="80.682" cy="52.209" r="1.739"/><circle opacity="0.48" fill="#EB4A3F" enable-background="new    " cx="53.538" cy="42.896" r="3.912"/><circle fill="#EB4A3F" cx="53.538" cy="42.896" r="1.739"/><path fill="#EB4A3F" d="M57.354 27.911c-0.917-0.916-1.992-1.361-3.287-1.361s-2.371 0.445-3.288 1.361c-0.916 0.917-1.362 1.992-1.362 3.288 0 0.653 0.098 1.191 0.29 1.601l3.543 7.512c0.071 0.16 0.178 0.279 0.326 0.367 0.309 0.186 0.672 0.186 0.98 0 0.151-0.091 0.262-0.212 0.338-0.37l3.531-7.509c0.192-0.408 0.29-0.946 0.29-1.601C58.716 29.903 58.271 28.828 57.354 27.911zM55.598 32.728c-0.427 0.427-0.927 0.634-1.53 0.634 -0.604 0-1.104-0.207-1.531-0.634 -0.425-0.425-0.634-0.926-0.634-1.529 0-0.603 0.208-1.103 0.634-1.53 0.427-0.427 0.927-0.634 1.531-0.634 0.603 0 1.103 0.207 1.53 0.634 0.427 0.427 0.634 0.926 0.634 1.53C56.231 31.802 56.024 32.303 55.598 32.728zM84.098 37.255c-0.917-0.916-1.992-1.362-3.287-1.362s-2.37 0.446-3.288 1.362c-0.916 0.917-1.362 1.992-1.362 3.287 0 0.654 0.097 1.192 0.29 1.602l3.543 7.513c0.073 0.159 0.178 0.277 0.327 0.367 0.308 0.186 0.671 0.186 0.979 0 0.151-0.091 0.262-0.213 0.338-0.37l3.53-7.51c0.193-0.408 0.292-0.945 0.292-1.602C85.46 39.247 85.015 38.171 84.098 37.255zM82.34 42.073c-0.426 0.427-0.927 0.634-1.529 0.634 -0.603 0-1.103-0.207-1.53-0.634 -0.427-0.427-0.634-0.927-0.634-1.531 0-0.603 0.207-1.103 0.634-1.53 0.427-0.426 0.927-0.634 1.53-0.634 0.602 0 1.103 0.208 1.529 0.634 0.427 0.427 0.634 0.927 0.634 1.53C82.974 41.146 82.767 41.646 82.34 42.073zM111.732 68.981c-0.916-0.916-1.99-1.362-3.287-1.362 -1.295 0-2.368 0.446-3.286 1.362 -0.917 0.917-1.362 1.992-1.362 3.288 0 0.653 0.098 1.191 0.29 1.6l3.543 7.513c0.073 0.159 0.179 0.278 0.327 0.367 0.309 0.186 0.671 0.186 0.979 0 0.151-0.09 0.263-0.211 0.338-0.369l3.533-7.511c0.191-0.407 0.289-0.945 0.289-1.6C113.096 70.974 112.65 69.898 111.732 68.981zM109.977 73.799c-0.428 0.427-0.927 0.634-1.529 0.634 -0.604 0-1.104-0.207-1.529-0.634 -0.427-0.427-0.634-0.926-0.634-1.53s0.207-1.104 0.634-1.53c0.426-0.426 0.928-0.635 1.529-0.635 0.604 0 1.104 0.208 1.529 0.635 0.426 0.426 0.633 0.926 0.633 1.53S110.402 73.372 109.977 73.799zM143.902 78.498c-0.916-0.916-1.99-1.362-3.285-1.362s-2.37 0.446-3.287 1.362c-0.917 0.917-1.362 1.992-1.362 3.288 0 0.653 0.099 1.191 0.291 1.6l3.542 7.513c0.072 0.158 0.178 0.278 0.326 0.367 0.311 0.187 0.671 0.187 0.98 0 0.148-0.091 0.261-0.211 0.336-0.369l3.531-7.511c0.193-0.406 0.291-0.945 0.291-1.6C145.266 80.489 144.82 79.415 143.902 78.498zM142.146 83.315c-0.428 0.426-0.929 0.634-1.529 0.634 -0.604 0-1.104-0.208-1.53-0.634 -0.427-0.426-0.634-0.926-0.634-1.53s0.207-1.104 0.634-1.53c0.427-0.427 0.929-0.635 1.53-0.635s1.104 0.208 1.529 0.635c0.427 0.426 0.633 0.926 0.633 1.53S142.573 82.889 142.146 83.315z"/></svg>