<svg class="foodtrip-satellites" xmlns="http://www.w3.org/2000/svg" xmlns:xlink="http://www.w3.org/1999/xlink" version="1.1" x="0px" y="0px" width="216px" height="222px" viewBox="0 0 216 222" enable-background="new 0 0 216 222" xml:space="preserve"><style>.style0{opacity:	0.6;}.style1{stop-color:	#000000;stop-opacity:	0;}.foodtrip-sat-ball{fill:	#2E3136;}svg:hover .foodtrip-sat-ball{fill:	#ffffff;}.foodtrip-sat-icon{fill:	#FFFFFF;}.style2{stop-color:	#000000;}.style3{fill:	url(#SVGID_1_);}.style4{fill:	url(#SVGID_2_);}.style5{fill:	url(#SVGID_3_);}.style6{fill:	url(#SVGID_4_);}.style7{fill:	url(#SVGID_5_);}.style8{fill:	url(#SVGID_6_);}.style9{fill:	url(#SVGID_7_);}</style><g id="Layer_1_copy"><g class="style0"><radialGradient id="SVGID_1_" cx="107.8" cy="110.5" r="59.2" gradientUnits="userSpaceOnUse"><stop offset="0.5188" class="style1"/><stop offset="1" class="style2"/></radialGradient><path d="M87.485 91.94L63.073 72.491c-0.596 0.806-1.241 1.572-1.927 2.3l24.413 19.4 C86.159 93.4 86.8 92.7 87.5 91.94z" class="style3"/><radialGradient id="SVGID_2_" cx="107.8" cy="110.5" r="59.2" gradientUnits="userSpaceOnUse"><stop offset="0.5188" class="style1"/><stop offset="1" class="style2"/></radialGradient><path d="M155.48 74.266c-0.664-0.747-1.284-1.534-1.856-2.356l-25.116 20 c0.681 0.7 1.3 1.5 1.9 2.3L155.48 74.266z" class="style4"/><radialGradient id="SVGID_3_" cx="107.8" cy="110.5" r="59.2" gradientUnits="userSpaceOnUse"><stop offset="0.5188" class="style1"/><stop offset="1" class="style2"/></radialGradient><path d="M105 49.849V83.15c0.986-0.105 1.986-0.162 3-0.162V50.035v-0.046c0 0-0.001 0-0.002 0 C106.983 50 106 50 105 49.849z" class="style5"/><radialGradient id="SVGID_4_" cx="107.8" cy="110.5" r="59.2" gradientUnits="userSpaceOnUse"><stop offset="0.5188" class="style1"/><stop offset="1" class="style2"/></radialGradient><path d="M80.53 163.932c0.927 0.4 1.8 0.8 2.7 1.333l13.714-28.554 c-0.923-0.397-1.817-0.846-2.686-1.337L80.53 163.932z" class="style6"/><radialGradient id="SVGID_5_" cx="107.8" cy="110.5" r="59.2" gradientUnits="userSpaceOnUse"><stop offset="0.5188" class="style1"/><stop offset="1" class="style2"/></radialGradient><path d="M135.706 115.023c-0.144 0.999-0.337 1.982-0.584 2.943l30.825 7.1 c0.076-1.013 0.209-2.01 0.402-2.985L135.706 115.023z" class="style7"/><radialGradient id="SVGID_6_" cx="107.8" cy="110.5" r="59.2" gradientUnits="userSpaceOnUse"><stop offset="0.5188" class="style1"/><stop offset="1" class="style2"/></radialGradient><path d="M80.293 115.021l-30.962 7.105c0.25 1 0.4 1.9 0.6 2.946l30.975-7.107 C80.63 117 80.4 116 80.3 115.021z" class="style8"/><radialGradient id="SVGID_7_" cx="107.8" cy="110.5" r="59.2" gradientUnits="userSpaceOnUse"><stop offset="0.5188" class="style1"/><stop offset="1" class="style2"/></radialGradient><path d="M119.068 136.711l13.934 29.01c0.849-0.525 1.732-1 2.645-1.423l-13.893-28.925 C120.886 135.9 120 136.3 119.1 136.711z" class="style9"/></g></g><g id="Layer_1"><g><g><path d="M107.998 50.035c-13.783 0-24.999-11.214-24.999-24.999c0-13.784 11.216-25.001 24.999-25.001 C121.782 0 133 11.3 133 25.036C133 38.8 121.8 50 108 50.035z" class="style10"/></g><path d="M110.156 26.079v0.002 M104.927 21.853c2.332-0.034 4.3 1.3 5 3.225h-9.872 C100.727 23.2 102.7 21.9 104.9 21.9 M111.734 20.917c0.026 0 0.1 0 0.1 0c2.654 0 4.9 1.8 5.1 4.161h-5.975 c-0.365-1.299-1.227-2.407-2.381-3.162C109.484 21.3 110.6 20.9 111.7 20.9 M117.74 25.078l0.218-0.019 c-0.261-2.9-2.952-5.145-6.151-5.145c-0.025 0-0.057 0-0.087 0c-1.538 0.026-2.975 0.553-4.09 1.5 c-0.826-0.356-1.747-0.554-2.717-0.543c-1.308 0.016-2.521 0.397-3.516 1.041l-2.269-9.367l-0.972 0.235l2.375 9.8 c-0.432 0.411-0.798 0.878-1.078 1.397l-3.629-7.796l-0.906 0.423l3.947 8.477h-3.994v0.502c0 7.2 5.9 13.1 13.1 13.1 c7.236 0 13.127-5.89 13.127-13.129v-0.502H117.74z" class="foodtrip-sat-icon link-to-sidepanel"/></g><g><g><path d="M42.959 82.663c-13.784 0-25-11.213-25-24.998c0-13.786 11.216-25.002 25-25.002 c13.786 0 25 11.2 25 25.002C67.96 71.4 56.7 82.7 43 82.663z" class="style10"/></g><path d="M57.949 50.678c-0.057-0.04-0.145-0.101-0.252-0.175c-1.53-1.053-2.186-1.454-2.594-1.586 c-0.112-0.035-0.227-0.053-0.338-0.053c-0.276 0-0.546 0.102-0.753 0.292c-0.06 0.056-0.933 0.87-1.992 2 c1.01-1.999 1.657-3.843 1.688-3.939c0.133-0.38 0.048-0.802-0.218-1.102c-0.265-0.293-0.788-0.633-2.152-1.396 c-0.1-0.056-0.179-0.1-0.226-0.128c-0.125-0.083-0.271-0.144-0.426-0.172c-0.068-0.01-0.132-0.018-0.199-0.018 c-0.51 0-0.968 0.355-1.081 0.87c-0.013 0.054-1.173 5.295-2.011 7.346c-0.072 0.175-0.167 0.308-0.242 0.4 c-5.444-1.574-5.4 2.213-8.823 6.13c-1.095 1.255-2.552 2.518-4.658 3.625c-1.005 0.528-2.155 1.023-3.492 1.5 c-0.938 0.21-2.616 1.816-0.655 2.738c0.24 0.1 0.5 0.2 0.9 0.305c2.957 0.7 5.9 0.8 8.7 0.3 c5.272-0.902 9.837-3.718 12.414-7.339c0.127-0.183 0.252-0.368 0.371-0.552c0.506-0.789 0.615-1.729 0.366-2.644 c1.939-1.739 5.438-4.238 5.812-4.504c0.306-0.198 0.507-0.54 0.507-0.928C58.545 51.2 58.3 50.9 57.9 50.678z M50.489 45.559c-0.002 0 1.9 1 2.2 1.341c0 0-0.998 2.891-2.454 5.307c-0.075 0.126-0.151 0.25-0.23 0.4 c-0.076 0.126-0.156 0.248-0.239 0.366c-0.21 0.312-0.426 0.608-0.65 0.877c-0.008 0.009-0.016 0.016-0.024 0 c-0.058-0.033-0.107-0.061-0.169-0.096c-0.11-0.062-0.226-0.118-0.34-0.171c-0.106-0.05-0.215-0.081-0.323-0.126 c0.068-0.11 0.134-0.232 0.191-0.37C49.307 50.9 50.5 45.6 50.5 45.559z M51.007 55.1 c-0.119-0.112-0.242-0.216-0.407-0.335c1.7-2.54 4.165-4.806 4.165-4.806c0.524 0.2 2.6 1.7 2.7 1.7 c-0.006 0.005-3.511 2.487-5.674 4.37C51.553 55.7 51.3 55.4 51 55.114z" class="foodtrip-sat-icon"/></g><g><g><path d="M25.131 153.407c-13.784 0-25-11.213-25-24.997c0-13.785 11.216-25.002 25-25.002 c13.786 0 25 11.2 25 25.002C50.132 142.2 38.9 153.4 25.1 153.407z" class="style10"/></g><path d="M40.121 121.423c-0.057-0.039-0.145-0.102-0.252-0.176c-1.53-1.053-2.186-1.453-2.594-1.586 c-0.112-0.034-0.227-0.053-0.338-0.053c-0.276 0-0.546 0.102-0.753 0.293c-0.06 0.056-0.933 0.869-1.992 2 c1.01-1.999 1.657-3.843 1.688-3.94c0.133-0.379 0.048-0.801-0.218-1.102c-0.265-0.293-0.788-0.633-2.152-1.395 c-0.1-0.057-0.179-0.1-0.226-0.129c-0.125-0.082-0.271-0.143-0.426-0.172c-0.068-0.01-0.132-0.018-0.199-0.018 c-0.51 0-0.968 0.355-1.081 0.87c-0.013 0.054-1.173 5.295-2.011 7.346c-0.072 0.175-0.167 0.308-0.242 0.4 c-5.444-1.574-5.4 2.213-8.823 6.13c-1.095 1.255-2.552 2.519-4.658 3.625c-1.005 0.528-2.155 1.022-3.492 1.5 c-0.938 0.211-2.616 1.816-0.655 2.738c0.24 0.1 0.5 0.2 0.9 0.305c2.957 0.7 5.9 0.8 8.7 0.3 c5.272-0.901 9.837-3.717 12.414-7.338c0.127-0.184 0.252-0.368 0.371-0.553c0.506-0.789 0.615-1.729 0.366-2.645 c1.939-1.738 5.438-4.238 5.812-4.504c0.306-0.198 0.507-0.54 0.507-0.928C40.717 122 40.5 121.6 40.1 121.423z M32.661 116.305c-0.002 0 1.9 1 2.2 1.34c0 0-0.998 2.892-2.454 5.308c-0.075 0.126-0.151 0.25-0.23 0.4 c-0.076 0.127-0.156 0.248-0.239 0.365c-0.21 0.312-0.426 0.608-0.65 0.878c-0.008 0.009-0.016 0.017-0.024 0 c-0.058-0.033-0.107-0.062-0.169-0.096c-0.11-0.062-0.226-0.119-0.34-0.172c-0.106-0.051-0.215-0.08-0.323-0.126 c0.068-0.11 0.134-0.231 0.191-0.37C31.479 121.7 32.7 116.3 32.7 116.305z M33.179 125.9 c-0.119-0.112-0.242-0.216-0.407-0.335c1.7-2.539 4.165-4.807 4.165-4.807c0.524 0.2 2.6 1.7 2.7 1.7 c-0.006 0.006-3.511 2.488-5.674 4.37C33.725 126.5 33.5 126.1 33.2 125.859z" class="foodtrip-sat-icon"/></g><g><g><path d="M70.87 211.988c-13.783 0-24.999-11.215-24.999-25c0-13.783 11.216-25 24.999-25 c13.784 0 25 11.2 25 25C95.872 200.8 84.7 212 70.9 211.988z" class="style10"/></g><path d="M73.028 188.031v0.002 M67.799 183.807c2.332-0.035 4.3 1.3 5 3.225h-9.872 C63.599 185.2 65.6 183.8 67.8 183.8 M74.606 182.869c0.026 0 0.1 0 0.1 0c2.654 0 4.9 1.8 5.1 4.162h-5.975 c-0.365-1.299-1.227-2.408-2.381-3.162C72.356 183.2 73.4 182.9 74.6 182.9 M80.612 187.031l0.218-0.02 c-0.261-2.9-2.952-5.145-6.151-5.145c-0.025 0-0.057 0-0.087 0c-1.538 0.027-2.975 0.553-4.09 1.5 c-0.826-0.355-1.747-0.553-2.717-0.543c-1.308 0.016-2.521 0.398-3.516 1.041l-2.269-9.367l-0.972 0.236l2.375 9.8 c-0.432 0.412-0.798 0.879-1.078 1.398l-3.629-7.797l-0.906 0.424l3.947 8.477h-3.994v0.502c0 7.2 5.9 13.1 13.1 13.1 c7.236 0 13.127-5.891 13.127-13.129v-0.502H80.612z" class="foodtrip-sat-icon"/></g><g><g><path d="M174.149 82.664c-13.783 0-24.999-11.215-24.999-25c0-13.784 11.216-25 24.999-25 c13.784 0 25 11.2 25 25C199.151 71.4 187.9 82.7 174.1 82.664z" class="style10"/></g><path d="M176.308 58.707v0.002 M171.078 54.482c2.332-0.035 4.3 1.3 5 3.225h-9.872 C166.878 55.8 168.8 54.5 171.1 54.5 M177.886 53.544c0.026 0 0.1 0 0.1 0c2.654 0 4.9 1.8 5.1 4.162h-5.975 c-0.365-1.299-1.227-2.408-2.381-3.162C175.636 53.9 176.7 53.6 177.9 53.5 M183.892 57.707l0.218-0.02 c-0.261-2.9-2.952-5.145-6.151-5.145c-0.025 0-0.057 0-0.087 0c-1.538 0.027-2.975 0.553-4.09 1.5 c-0.826-0.355-1.747-0.553-2.717-0.543c-1.308 0.016-2.521 0.398-3.516 1.041l-2.269-9.367l-0.972 0.235l2.375 9.8 c-0.432 0.412-0.798 0.879-1.078 1.398l-3.629-7.797l-0.906 0.424l3.947 8.477h-3.994v0.502c0 7.2 5.9 13.1 13.1 13.1 c7.236 0 13.127-5.891 13.127-13.129v-0.502H183.892z" class="foodtrip-sat-icon"/></g><g><g><path d="M190.867 151.938c-13.783 0-24.999-11.215-24.999-25c0-13.784 11.216-25.001 24.999-25.001 c13.784 0 25 11.2 25 25.001C215.869 140.7 204.7 151.9 190.9 151.938z" class="style10"/></g><path d="M193.025 127.98v0.002 M187.796 123.756c2.332-0.035 4.3 1.3 5 3.225h-9.872 C183.596 125.1 185.6 123.8 187.8 123.8 M194.604 122.818c0.026 0 0.1 0 0.1 0c2.654 0 4.9 1.8 5.1 4.2 h-5.975c-0.365-1.299-1.227-2.408-2.381-3.162C192.354 123.2 193.4 122.8 194.6 122.8 M200.609 126.98l0.218-0.02 c-0.261-2.9-2.952-5.145-6.151-5.145c-0.025 0-0.057 0-0.087 0c-1.538 0.027-2.975 0.553-4.09 1.5 c-0.826-0.355-1.747-0.553-2.717-0.543c-1.308 0.016-2.521 0.398-3.516 1.041l-2.269-9.367l-0.972 0.235l2.375 9.8 c-0.432 0.412-0.798 0.879-1.078 1.398l-3.629-7.797l-0.906 0.424l3.947 8.477h-3.994v0.502c0 7.2 5.9 13.1 13.1 13.1 c7.236 0 13.127-5.891 13.127-13.129v-0.502H200.609z" class="foodtrip-sat-icon"/></g><g><g><path d="M146.125 211.987c-13.783 0-24.998-11.215-24.998-25c0-13.784 11.215-25.001 24.998-25.001 c13.785 0 25 11.2 25 25.001C171.127 200.8 159.9 212 146.1 211.987z" class="style10"/></g><path d="M148.283 188.03v0.002 M143.055 183.806c2.332-0.035 4.3 1.3 5 3.225h-9.871 C138.854 185.2 140.8 183.8 143.1 183.8 M149.861 182.868c0.027 0 0.1 0 0.1 0c2.654 0 4.9 1.8 5.1 4.2 h-5.975c-0.365-1.299-1.227-2.408-2.381-3.162C147.611 183.2 148.7 182.9 149.9 182.9 M155.867 187.03l0.219-0.02 c-0.262-2.9-2.953-5.145-6.152-5.145c-0.025 0-0.057 0-0.086 0c-1.539 0.027-2.975 0.553-4.09 1.5 c-0.826-0.355-1.748-0.553-2.717-0.543c-1.309 0.016-2.521 0.398-3.516 1.041l-2.27-9.367l-0.971 0.235l2.375 9.8 c-0.432 0.412-0.799 0.879-1.078 1.398l-3.629-7.797l-0.906 0.424l3.947 8.477H133v0.502c0 7.2 5.9 13.1 13.1 13.1 c7.236 0 13.127-5.891 13.127-13.129v-0.502H155.867z" class="foodtrip-sat-icon"/></g></g></svg>