<?xml version="1.0" encoding="utf-8"?>
<!-- Generator: Adobe Illustrator 16.0.0, SVG Export Plug-In . SVG Version: 6.00 Build 0)  -->
<!DOCTYPE svg PUBLIC "-//W3C//DTD SVG 1.1//EN" "http://www.w3.org/Graphics/SVG/1.1/DTD/svg11.dtd">
<svg version="1.1" xmlns="http://www.w3.org/2000/svg" xmlns:xlink="http://www.w3.org/1999/xlink" x="0px" y="0px" width="216px"
	 height="222px" viewBox="0 0 216 222" enable-background="new 0 0 216 222" xml:space="preserve">
<g id="Layer_1">
	<g display="none">
		<g display="inline">
			<path d="M87.485,91.94L63.073,72.491c-0.596,0.806-1.241,1.572-1.927,2.3l24.413,19.45C86.159,93.4,86.8,92.7,87.5,91.94H87.485z
				"/>
			<path d="M155.48,74.266c-0.664-0.747-1.285-1.534-1.856-2.356l-25.116,20.025c0.682,0.7,1.301,1.5,1.9,2.3L155.48,74.266z"/>
			<path d="M105,49.849V83.15c0.986-0.105,1.986-0.162,3-0.162V50.035v-0.046c0,0-0.001,0-0.002,0C106.983,50,106,50,105,49.849z"/>
			<path d="M80.53,163.932c0.927,0.4,1.8,0.801,2.7,1.334l13.714-28.555c-0.923-0.396-1.817-0.846-2.686-1.337L80.53,163.932z"/>
			<path d="M135.706,115.023c-0.144,0.998-0.337,1.98-0.584,2.941l30.825,7.076c0.076-1.014,0.209-2.01,0.402-2.984L135.706,115
				V115.023z"/>
			<path d="M80.293,115.021l-30.962,7.104c0.25,1,0.4,1.9,0.6,2.945l30.975-7.106C80.63,117,80.4,116,80.3,115.021H80.293z"/>
			<path d="M119.068,136.711l13.934,29.01c0.85-0.525,1.732-1,2.645-1.423l-13.893-28.925c-0.867,0.527-1.754,0.927-2.654,1.338
				H119.068z"/>
		</g>
	</g>
	<g>
		<path fill="#FFFFFF" d="M25.116,103.409C11.339,103.417,0.131,114.63,0.131,128.41c0,13.8,11.2,25,25,25
			c13.786,0,25.001-11.215,25-24.997C50.131,114.604,38.908,103.409,25.116,103.409z"/>
		<path fill="#FFFFFF" d="M25.1,103.408c0.005,0,0.01,0,0.016,0c0.005,0,0.01,0,0.015,0H25.1z"/>
		<path fill="#FFFFFF" d="M70.9,161.988h-0.03c-13.783,0-24.999,11.217-24.999,25c0,13.8,11.2,25,25,25
			c13.784,0,25.002-11.215,25.002-25C95.872,173.2,84.7,162,70.9,161.988z"/>
		<path fill="#FFFFFF" d="M174.1,32.664c0.008,0,0.016,0,0.023,0c0.009,0,0.017,0,0.025,0H174.1z"/>
		<path fill="#FFFFFF" d="M174.15,82.664c13.785,0,25.002-11.215,25.002-25c-0.002-13.756-11.239-24.951-25.029-25
			c-13.771,0.014-24.973,11.224-24.973,25C149.15,71.464,160.35,82.664,174.15,82.664z"/>
		<path fill="#FFFFFF" d="M190.9,101.937h-0.033c-13.783,0-24.999,11.217-24.999,25c0,13.799,11.2,25,25,25s25.002-11.215,25.002-25
			C215.869,113.2,204.7,101.9,190.9,101.937z"/>
		<path fill="#FFFFFF" d="M146.112,161.986c-13.777,0.008-24.985,11.221-24.985,25c0,13.8,11.2,25,25,25
			c13.785,0,25.002-11.215,25.002-25C171.127,173.204,159.907,162.007,146.112,161.986z"/>
		<path fill="#FFFFFF" d="M42.959,82.665c13.786,0,25.001-11.214,25-24.998C67.959,43.9,56.7,32.7,43,32.663h-0.041
			c-13.784,0-25,11.216-25,25.002C17.959,71.465,29.159,82.665,42.959,82.665z"/>
		<path fill="#FFFFFF" d="M133.001,25.037C133,11.3,121.8,0,108,0.035h-0.002c-13.783,0-24.999,11.217-24.999,25.001
			c0,13.8,11.2,25,25,25C121.783,50.036,133.001,38.822,133.001,25.037z"/>
	</g>
</g>
<g id="Layer_1_copy">
	<path fill="#2D3035" d="M32.661,116.305c0,0-1.182,5.361-2.067,7.524c-0.057,0.139-0.123,0.26-0.191,0.399
		c0.108,0,0.2,0.101,0.3,0.127c0.114,0.1,0.2,0.1,0.3,0.172c0.062,0,0.1,0.1,0.2,0.1c0.008-0.009,0.016-0.018,0.024-0.025
		c0.224-0.271,0.44-0.565,0.65-0.877c0.083-0.117,0.163-0.238,0.239-0.365c0.079-0.121,0.155-0.245,0.23-0.371
		c1.456-2.416,2.454-5.309,2.454-5.309c-0.267-0.38-2.1-1.38-2.1-1.375H32.661z M25.131,103.408c-13.784,0-25,11.217-25,25.002
		c0,13.8,11.2,25,25,25c13.786,0,25.001-11.215,25-24.997c0-13.813-11.231-25.013-25.031-25.005H25.131z M40.208,123.3
		c-0.374,0.267-3.873,2.767-5.812,4.505c0.249,0.899,0.1,1.855-0.366,2.646c-0.119,0.185-0.244,0.368-0.371,0.6
		c-2.577,3.621-7.142,6.438-12.414,7.339c-2.754,0.469-5.698,0.422-8.655-0.312c-0.355-0.088-0.653-0.192-0.893-0.306
		c-1.961-0.922-0.283-2.526,0.655-2.737c1.337-0.438,2.487-0.933,3.492-1.461c2.106-1.105,3.563-2.369,4.658-3.625
		c3.423-3.916,3.379-7.703,8.823-6.13c0.075-0.088,0.17-0.221,0.242-0.396c0.838-2.051,1.998-7.292,2.011-7.346
		c0.113-0.517,0.571-0.871,1.081-0.871c0.067,0,0.1,0,0.2,0.019c0.155,0,0.3,0.101,0.4,0.2c0.047,0,0.1,0.101,0.2,0.13
		c1.364,0.799,1.9,1.1,2.2,1.396c0.266,0.3,0.4,0.7,0.2,1.1c-0.031,0.099-0.678,1.941-1.688,3.94
		c1.059-1.18,1.932-1.991,1.992-2.049c0.207-0.189,0.477-0.293,0.753-0.293c0.111,0,0.2,0,0.3,0.055c0.408,0.1,1.1,0.5,2.6,1.586
		c0.107,0.1,0.2,0.1,0.3,0.199c0.354,0.201,0.6,0.601,0.6,0.982c-0.001,0.329-0.216,0.629-0.516,0.862L40.208,123.3z
		 M32.772,125.523c0.165,0.1,0.3,0.199,0.4,0.336c0.304,0.3,0.5,0.6,0.7,0.899c2.163-1.881,5.668-4.362,5.674-4.368
		c-0.034-0.002-2.14-1.521-2.664-1.689C36.937,120.7,34.5,123,32.8,125.523H32.772z"/>
	<path fill="#2D3035" d="M74.682,182.869c-0.025,0-0.05,0-0.076,0c-1.159,0.018-2.25,0.371-3.137,1c1.154,0.8,2,1.9,2.4,3.162h5.975
		c-0.273-2.331-2.544-4.131-5.144-4.162H74.682z M67.799,183.807c-2.238,0.029-4.2,1.357-4.867,3.227h9.872
		C72.134,185.1,70.1,183.8,67.799,183.807L67.799,183.807z M70.87,161.988c-13.783,0-24.999,11.217-24.999,25c0,13.8,11.2,25,25,25
		c13.784,0,25.002-11.215,25.002-25C95.872,173.2,84.7,162,70.9,161.988H70.87z M83.998,187.5c0,7.238-5.891,13.129-13.127,13.129
		c-7.24,0-13.128-5.891-13.128-13.129v-0.502h3.994l-3.947-8.479l0.906-0.424l3.629,7.801c0.28-0.52,0.646-0.985,1.078-1.397
		l-2.375-9.813L62,174.477l2.269,9.367c0.995-0.643,2.208-1.025,3.516-1.041c0.97-0.01,1.9,0.2,2.7,0.543
		c1.115-0.927,2.552-1.453,4.09-1.479c0.03,0,0.1,0,0.1,0c3.199,0,5.9,2.199,6.2,5.1l-0.196,0.018h3.364v0.547L83.998,187.5z"/>
	<path fill="#2D3035" d="M171.078,54.482c-2.238,0.029-4.2,1.357-4.867,3.225h9.872c-0.67-1.907-2.683-3.307-4.983-3.225H171.078z
		 M177.962,53.544c-0.024,0-0.05,0-0.075,0c-1.16,0.018-2.25,0.372-3.138,1c1.153,0.8,2,1.9,2.399,3.162h5.977
		C182.852,55.4,180.6,53.5,178,53.544H177.962z M174.148,32.664c-13.782,0-24.998,11.216-24.998,25c0,13.8,11.199,25,25,25
		c13.785,0,25.002-11.215,25.002-25C199.15,43.9,187.9,32.7,174.1,32.664H174.148z M187.277,58.2
		c0,7.238-5.892,13.129-13.127,13.129c-7.239,0-13.127-5.891-13.127-13.129v-0.502h3.994l-3.947-8.477l0.906-0.424l3.629,7.8
		c0.278-0.519,0.646-0.986,1.078-1.398l-2.375-9.815l0.971-0.235l2.27,9.367c0.995-0.643,2.208-1.025,3.516-1.041
		c0.972-0.01,1.9,0.2,2.701,0.543c1.113-0.927,2.551-1.453,4.09-1.48c0.029,0,0.1,0,0.1,0c3.199,0,5.9,2.2,6.199,5.1l-0.194,0.018
		h3.363v0.551L187.277,58.2z"/>
	<path fill="#2D3035" d="M187.796,123.756c-2.237,0.029-4.2,1.357-4.866,3.225h9.871c-0.67-1.881-2.701-3.28-5.001-3.225H187.796z
		 M194.68,122.818c-0.025,0-0.05,0-0.076,0c-1.16,0.018-2.25,0.371-3.137,1c1.154,0.8,2,1.899,2.4,3.162h5.976
		c-0.274-2.381-2.543-4.181-5.143-4.162H194.68z M190.867,101.937c-13.783,0-24.999,11.217-24.999,25c0,13.799,11.2,25,25,25
		s25.002-11.215,25.002-25c-0.001-13.737-11.17-25.038-24.97-25H190.867z M203.995,127.48c0,7.236-5.892,13.129-13.127,13.1
		c-7.24,0-13.128-5.893-13.128-13.129v-0.502h3.994l-3.947-8.479l0.906-0.424l3.629,7.797c0.279-0.519,0.646-0.984,1.078-1.396
		l-2.375-9.815l0.972-0.235l2.269,9.367c0.996-0.643,2.209-1.025,3.518-1.041c0.97-0.01,1.9,0.2,2.699,0.5
		c1.115-0.927,2.553-1.453,4.09-1.479c0.031,0,0.101,0,0.101,0c3.199,0,5.899,2.2,6.2,5.146l-0.197,0.02h3.365v0.572H203.995z"/>
	<path fill="#2D3035" d="M149.938,182.868c-0.024,0-0.049,0-0.076,0c-1.157,0.019-2.25,0.37-3.137,1c1.153,0.8,2,1.899,2.4,3.161
		h5.975c-0.273-2.329-2.5-4.129-5.199-4.161H149.938z M143.055,183.807c-2.238,0.028-4.201,1.356-4.867,3.226h9.871
		c-0.67-1.933-2.658-3.232-4.959-3.226H143.055z M146.125,161.986c-13.783,0-24.998,11.217-24.998,25c0,13.8,11.2,25,25,25
		c13.785,0,25.002-11.215,25.002-25c-0.002-13.786-11.229-24.986-25.029-25H146.125z M159.254,187.5
		c0,7.238-5.891,13.13-13.127,13.13c-7.24,0-13.127-5.892-13.127-13.13v-0.502h3.993l-3.947-8.477l0.906-0.424l3.629,7.799
		c0.278-0.52,0.646-0.985,1.078-1.397l-2.375-9.813l0.971-0.234l2.271,9.365c0.994-0.643,2.207-1.023,3.517-1.041
		c0.969-0.01,1.899,0.201,2.7,0.545c1.115-0.928,2.551-1.453,4.09-1.48c0.029,0,0.1,0,0.1,0c3.199,0,5.9,2.2,6.2,5.1l-0.196,0.019
		h3.364v0.571L159.254,187.5z"/>
	<path fill="#2D3035" d="M50.489,45.559c0,0-1.182,5.362-2.067,7.526c-0.057,0.138-0.123,0.26-0.191,0.4c0.108,0,0.2,0.1,0.3,0.126
		c0.114,0.1,0.2,0.1,0.3,0.171c0.062,0,0.1,0.1,0.2,0.1c0.008-0.01,0.016-0.017,0.024-0.026c0.224-0.269,0.44-0.565,0.65-0.877
		c0.083-0.118,0.163-0.24,0.239-0.366c0.079-0.122,0.155-0.246,0.23-0.372c1.456-2.416,2.454-5.307,2.454-5.307
		C52.361,46.6,50.5,45.6,50.5,45.559H50.489z M50.6,54.779c0.165,0.1,0.3,0.2,0.4,0.335c0.304,0.3,0.5,0.6,0.7,0.9
		c2.163-1.883,5.668-4.365,5.674-4.37c-0.034-0.002-2.14-1.521-2.664-1.689C54.765,50,52.3,52.2,50.6,54.779z M42.959,32.663
		c-13.784,0-25,11.216-25,25.002c0,13.8,11.2,25,25,25c13.786,0,25.001-11.214,25-24.998C67.959,43.9,56.7,32.7,43,32.663H42.959z
		 M58.036,52.6c-0.374,0.266-3.873,2.765-5.812,4.504c0.249,0.9,0.1,1.855-0.366,2.644c-0.119,0.184-0.244,0.369-0.371,0.6
		c-2.577,3.621-7.142,6.437-12.414,7.339c-2.754,0.469-5.698,0.423-8.655-0.311c-0.355-0.088-0.653-0.192-0.893-0.305
		c-1.961-0.922-0.283-2.528,0.655-2.738c1.337-0.437,2.487-0.932,3.492-1.46c2.106-1.107,3.563-2.37,4.658-3.625
		c3.423-3.917,3.379-7.704,8.823-6.13c0.075-0.088,0.17-0.221,0.242-0.396c0.838-2.051,1.998-7.292,2.011-7.346
		c0.113-0.515,0.571-0.87,1.081-0.87c0.067,0,0.1,0,0.2,0.018c0.155,0,0.3,0.1,0.4,0.2c0.047,0,0.1,0.1,0.2,0.128
		c1.364,0.8,1.9,1.1,2.2,1.396c0.266,0.3,0.4,0.7,0.2,1.1c-0.031,0.096-0.678,1.94-1.688,3.939c1.059-1.177,1.932-1.991,1.992-2.047
		c0.207-0.19,0.477-0.292,0.753-0.292c0.111,0,0.2,0,0.3,0.053c0.408,0.1,1.1,0.5,2.6,1.586c0.107,0.1,0.2,0.1,0.3,0.2
		c0.354,0.2,0.6,0.6,0.6,0.984C58.543,52,58.3,52.4,58,52.59L58.036,52.6z"/>
	<path fill="#2D3035" d="M104.927,21.853c-2.239,0.03-4.2,1.357-4.867,3.225h9.872c-0.67-1.878-2.632-3.278-5.032-3.225H104.927z
		 M111.811,20.917c-0.024,0-0.051,0-0.076,0c-1.158,0.016-2.25,0.371-3.137,1c1.153,0.8,2,1.9,2.4,3.162h5.975
		c-0.273-2.379-2.473-4.179-5.173-4.162H111.811z M107.998,0.035c-13.783,0-24.999,11.217-24.999,25.001c0,13.8,11.2,25,25,25
		c13.784,0,25.002-11.214,25.002-24.999C133,11.3,121.8,0,108,0.035H107.998z M121.126,25.6c0,7.239-5.892,13.129-13.127,13.129
		c-7.24,0-13.128-5.89-13.128-13.129v-0.502h3.994l-3.947-8.477l0.906-0.423l3.629,7.8c0.28-0.519,0.646-0.986,1.078-1.397
		l-2.375-9.815l0.972-0.235l2.269,9.367c0.995-0.644,2.208-1.025,3.516-1.041c0.97-0.011,1.9,0.2,2.7,0.543
		c1.116-0.927,2.552-1.454,4.091-1.48c0.028,0,0.101,0,0.101,0c3.198,0,5.899,2.2,6.199,5.145l-0.195,0.017h3.363v0.476
		L121.126,25.6z"/>
	<g display="none">
		<g display="inline">
			<path d="M87.485,91.94L63.073,72.491c-0.596,0.806-1.241,1.572-1.927,2.3l24.413,19.45C86.159,93.4,86.8,92.7,87.5,91.94H87.485z
				"/>
			<path d="M155.48,74.266c-0.664-0.747-1.285-1.534-1.856-2.356l-25.116,20.025c0.682,0.7,1.301,1.5,1.9,2.3L155.48,74.266z"/>
			<path d="M105,49.849V83.15c0.986-0.105,1.986-0.162,3-0.162V50.035v-0.046c0,0-0.001,0-0.002,0C106.983,50,106,50,105,49.849z"/>
			<path d="M80.53,163.932c0.927,0.4,1.8,0.801,2.7,1.334l13.714-28.555c-0.923-0.396-1.817-0.846-2.686-1.337L80.53,163.932z"/>
			<path d="M135.706,115.023c-0.144,0.998-0.337,1.98-0.584,2.941l30.825,7.076c0.076-1.014,0.209-2.01,0.402-2.984L135.706,115
				V115.023z"/>
			<path d="M80.293,115.021l-30.962,7.104c0.25,1,0.4,1.9,0.6,2.945l30.975-7.106C80.63,117,80.4,116,80.3,115.021H80.293z"/>
			<path d="M119.068,136.711l13.934,29.01c0.85-0.525,1.732-1,2.645-1.423l-13.893-28.925c-0.867,0.527-1.754,0.927-2.654,1.338
				H119.068z"/>
		</g>
	</g>
</g>
</svg>
