<svg xmlns="http://www.w3.org/2000/svg" xmlns:xlink="http://www.w3.org/1999/xlink" version="1.1" x="0px" y="0px" width="172px" height="172px" viewBox="0 0 172 172" enable-background="new 0 0 172 172" xml:space="preserve">
<style>
.style_foodtripadd_bgsq{
	fill:	#EB4A3F;
}
svg:hover .style_foodtripadd_bgsq{
	fill:	#FFFFFF;
}
.style_foodtripadd_line{
	stroke-linejoin:	round;
	stroke:	#FFFFFF;
	stroke-linecap:	round;
	stroke-dasharray:	0;
	stroke-width:	3;
	fill:	none;
}
svg:hover .style_foodtripadd_line{
	stroke:	#EB4A3F;
}
.style_foodtripadd_white{
	fill:	#FFFFFF;
}
svg:hover .style_foodtripadd_white{
	fill:	#EB4A3F;
}
.style_foodtripadd_white2{
	opacity:	0.48;fill:	#FFFFFF;
	}
svg:hover .style_foodtripadd_white2{
	fill:	#EB4A3F;
}
</style><rect width="172" height="172" class="style_foodtripadd_bgsq"/><line x1="140.6" y1="93.3" x2="140.3" y2="93.2" class="style_foodtripadd_line"/><path d="M73.81 51.874c-0.77-0.29-1.16-1.16-0.87-1.93l0 0c0.29-0.78 1.16-1.17 1.93-0.88l0 0 c0.78 0.3 1.2 1.2 0.9 1.94l0 0c-0.23 0.6-0.8 0.97-1.41 0.97l0 0C74.17 52 74 51.9 73.8 51.874z M69.14 50.1 c-0.78-0.29-1.17-1.16-0.88-1.93l0 0c0.3-0.78 1.16-1.17 1.94-0.88l0 0c0.77 0.3 1.2 1.2 0.9 1.94l0 0 c-0.23 0.6-0.8 0.97-1.41 0.97l0 0C69.49 50.2 69.3 50.2 69.1 50.104z M64.46 48.334c-0.78-0.29-1.17-1.15-0.87-1.93l0 0 c0.29-0.77 1.15-1.17 1.93-0.87l0 0c0.77 0.3 1.2 1.2 0.9 1.93l0 0c-0.23 0.6-0.8 0.97-1.4 0.97l0 0 C64.81 48.4 64.6 48.4 64.5 48.334z M59.78 46.574c-0.78-0.3-1.17-1.16-0.87-1.94l0 0c0.29-0.77 1.16-1.16 1.93-0.87l0 0 c0.78 0.3 1.2 1.2 0.9 1.93l0 0c-0.22 0.6-0.79 0.97-1.4 0.97l0 0C60.13 46.7 60 46.6 59.8 46.574z" class="style_foodtripadd_white"/><path d="M102.95 82.104c-0.521-0.64-0.431-1.59 0.21-2.11l0 0c0.64-0.52 1.59-0.43 2.1 0.21l0 0 c0.53 0.6 0.4 1.59-0.21 2.11l0 0c-0.279 0.23-0.609 0.34-0.95 0.34l0 0C103.68 82.7 103.2 82.5 103 82.104z M99.79 78.234c-0.53-0.64-0.44-1.59 0.21-2.11l0 0c0.64-0.52 1.58-0.43 2.1 0.21l0 0c0.521 0.6 0.4 1.59-0.21 2.11l0 0 c-0.279 0.23-0.619 0.34-0.949 0.34l0 0C100.51 78.8 100.1 78.6 99.8 78.234z M96.62 74.364c-0.53-0.64-0.431-1.59 0.21-2.11 l0 0c0.64-0.52 1.59-0.43 2.1 0.21l0 0c0.53 0.6 0.4 1.59-0.21 2.11l0 0c-0.279 0.23-0.62 0.34-0.949 0.34l0 0 C97.35 74.9 96.9 74.7 96.6 74.364z M93.45 70.494c-0.521-0.64-0.431-1.58 0.21-2.11l0 0c0.649-0.53 1.59-0.43 2.1 0.21l0 0 c0.53 0.6 0.4 1.59-0.21 2.11l0 0c-0.279 0.23-0.609 0.34-0.95 0.34l0 0C94.18 71 93.8 70.9 93.5 70.494z M90.29 66.6 c-0.53-0.64-0.431-1.58 0.21-2.11l0 0c0.64-0.53 1.59-0.43 2.1 0.21l0 0c0.521 0.6 0.4 1.59-0.21 2.11l0 0 c-0.279 0.23-0.619 0.34-0.949 0.34l0 0C91.02 67.2 90.6 67 90.3 66.624z M87.12 62.754c-0.521-0.64-0.43-1.59 0.21-2.11 l0 0c0.64-0.53 1.59-0.43 2.1 0.21l0 0c0.53 0.6 0.4 1.59-0.21 2.11l0 0c-0.279 0.23-0.609 0.34-0.949 0.34l0 0 C87.85 63.3 87.4 63.1 87.1 62.754z M83.96 58.884c-0.53-0.64-0.43-1.59 0.21-2.11l0 0c0.64-0.53 1.58-0.43 2.1 0.21l0 0 c0.52 0.6 0.4 1.59-0.21 2.11l0 0c-0.28 0.23-0.62 0.34-0.95 0.34l0 0C84.68 59.4 84.2 59.2 84 58.884z" class="style_foodtripadd_white"/><path d="M133.1 94.494c-0.8-0.2-1.29-1.021-1.08-1.82l0 0c0.2-0.81 1.021-1.29 1.82-1.08l0 0 c0.8 0.2 1.3 1 1.1 1.82l0 0c-0.17 0.68-0.78 1.13-1.45 1.13l0 0C133.35 94.5 133.2 94.5 133.1 94.494z M128.25 93.3 c-0.8-0.2-1.28-1.021-1.08-1.82l0 0c0.21-0.81 1.02-1.29 1.83-1.08l0 0c0.8 0.2 1.3 1 1.1 1.82l0 0 c-0.181 0.68-0.79 1.13-1.45 1.13l0 0C128.5 93.3 128.4 93.3 128.2 93.254z M123.41 92.014c-0.801-0.2-1.29-1.02-1.08-1.82 l0 0c0.2-0.8 1.02-1.289 1.819-1.079l0 0c0.801 0.2 1.3 1 1.1 1.819l0 0c-0.17 0.681-0.779 1.13-1.449 1.13l0 0 C123.66 92.1 123.5 92 123.4 92.014z M118.56 90.773c-0.8-0.199-1.279-1.02-1.08-1.819l0 0c0.21-0.811 1.03-1.29 1.83-1.08 l0 0c0.8 0.2 1.3 1 1.1 1.819l0 0c-0.17 0.681-0.78 1.131-1.45 1.131l0 0C118.81 90.8 118.7 90.8 118.6 90.773z M113.72 89.534c-0.8-0.2-1.28-1.021-1.08-1.82l0 0c0.21-0.8 1.021-1.29 1.83-1.08l0 0c0.8 0.2 1.3 1 1.1 1.82l0 0 c-0.18 0.68-0.79 1.13-1.46 1.13l0 0C113.97 89.6 113.8 89.6 113.7 89.534z" class="style_foodtripadd_white"/><line x1="53.9" y1="42.8" x2="53.6" y2="42.7" class="style_foodtripadd_line"/><g><circle cx="140.5" cy="94" r="3.9" class="style_foodtripadd_white2"/><circle cx="140.5" cy="94" r="1.7" class="style_foodtripadd_white"/></g><g><circle cx="108" cy="86.1" r="3.9" class="style_foodtripadd_white2"/><circle cx="108" cy="86.1" r="1.7" class="style_foodtripadd_white"/></g><g><circle cx="80.7" cy="52.2" r="3.9" class="style_foodtripadd_white2"/><circle cx="80.7" cy="52.2" r="1.7" class="style_foodtripadd_white"/></g><g><circle cx="53.5" cy="42.9" r="3.9" class="style_foodtripadd_white2"/><circle cx="53.5" cy="42.9" r="1.7" class="style_foodtripadd_white"/></g><path d="M57.354 27.911c-0.917-0.916-1.992-1.361-3.287-1.361s-2.371 0.445-3.288 1.4 c-0.916 0.917-1.362 1.992-1.362 3.288c0 0.7 0.1 1.2 0.3 1.601l3.543 7.512c0.071 0.2 0.2 0.3 0.3 0.4 c0.309 0.2 0.7 0.2 1 0c0.151-0.091 0.262-0.212 0.338-0.37l3.531-7.509c0.192-0.408 0.29-0.946 0.29-1.601 C58.716 29.9 58.3 28.8 57.4 27.911z M55.598 32.728c-0.427 0.427-0.927 0.634-1.53 0.634c-0.604 0-1.104-0.207-1.531-0.634 c-0.425-0.425-0.634-0.926-0.634-1.529c0-0.603 0.208-1.103 0.634-1.53c0.427-0.427 0.927-0.634 1.531-0.634 c0.603 0 1.1 0.2 1.5 0.634s0.634 0.9 0.6 1.53C56.231 31.8 56 32.3 55.6 32.728z" class="style_foodtripadd_white"/><path d="M84.098 37.255c-0.917-0.916-1.992-1.362-3.287-1.362s-2.37 0.446-3.288 1.4 c-0.916 0.917-1.362 1.992-1.362 3.287c0 0.7 0.1 1.2 0.3 1.602l3.543 7.513c0.073 0.2 0.2 0.3 0.3 0.4 c0.308 0.2 0.7 0.2 1 0c0.151-0.091 0.262-0.213 0.338-0.37l3.53-7.51c0.193-0.408 0.292-0.945 0.292-1.602 C85.46 39.2 85 38.2 84.1 37.255z M82.34 42.073c-0.426 0.427-0.927 0.634-1.529 0.634c-0.603 0-1.103-0.207-1.53-0.634 s-0.634-0.927-0.634-1.531c0-0.603 0.207-1.103 0.634-1.53c0.427-0.426 0.927-0.634 1.53-0.634c0.602 0 1.1 0.2 1.5 0.6 c0.427 0.4 0.6 0.9 0.6 1.53C82.974 41.1 82.8 41.6 82.3 42.073z" class="style_foodtripadd_white"/><path d="M111.732 68.981c-0.916-0.916-1.99-1.362-3.286-1.362c-1.295 0-2.369 0.446-3.287 1.4 c-0.917 0.917-1.362 1.992-1.362 3.288c0 0.7 0.1 1.2 0.3 1.6l3.543 7.513c0.073 0.2 0.2 0.3 0.3 0.4 c0.309 0.2 0.7 0.2 1 0c0.151-0.09 0.262-0.211 0.338-0.369l3.532-7.511c0.192-0.407 0.29-0.945 0.29-1.6 C113.096 71 112.7 69.9 111.7 68.981z M109.977 73.799c-0.428 0.427-0.927 0.634-1.53 0.6 c-0.603 0-1.104-0.207-1.529-0.634c-0.427-0.427-0.634-0.926-0.634-1.53s0.207-1.104 0.634-1.53 c0.426-0.426 0.927-0.635 1.529-0.635c0.604 0 1.1 0.2 1.5 0.635c0.426 0.4 0.6 0.9 0.6 1.5 S110.402 73.4 110 73.799z" class="style_foodtripadd_white"/><path d="M143.903 78.498c-0.916-0.916-1.991-1.362-3.286-1.362s-2.37 0.446-3.287 1.4 c-0.917 0.917-1.362 1.992-1.362 3.288c0 0.7 0.1 1.2 0.3 1.6l3.542 7.513c0.072 0.2 0.2 0.3 0.3 0.4 c0.31 0.2 0.7 0.2 1 0c0.149-0.091 0.261-0.212 0.337-0.37l3.53-7.51c0.194-0.406 0.291-0.945 0.291-1.6 C145.266 80.5 144.8 79.4 143.9 78.498z M142.147 83.315c-0.428 0.426-0.929 0.634-1.53 0.6 c-0.603 0-1.104-0.208-1.53-0.634c-0.427-0.426-0.634-0.926-0.634-1.53s0.207-1.104 0.634-1.53c0.427-0.427 0.928-0.635 1.53-0.635 c0.602 0 1.1 0.2 1.5 0.635c0.426 0.4 0.6 0.9 0.6 1.53S142.573 82.9 142.1 83.315z" class="style_foodtripadd_white"/><g><path d="M29.517 94.654c1.514 0 2.6 0.4 3.3 0.557l-0.125 2.274h-0.832l-0.408-1.31 c-0.659-0.446-1.31-0.612-2.4-0.612c-2.235 0-4.228 1.883-4.228 5.216c0 3 1.5 5.6 4.4 5.6 c1.263 0 2.039-0.346 2.51-0.941l0.455-1.208c0.235 0 0.4 0 0.7 0.008v2.251c-0.745 0.031-1.749 0.714-3.992 0.7 c-3.239 0-5.608-2.416-5.608-5.898C23.195 97.2 26.2 94.7 29.5 94.654z" class="style_foodtripadd_white"/><path d="M34.452 106.277l1.271-0.164v-6.385l-1.114-0.611v-0.486l2.071-0.62l0.369 0.157v1.208 c0.392-0.596 1.725-1.365 2.682-1.365c0.345 0 0.6 0 0.8 0.055v1.608c-0.337-0.134-0.667-0.267-1.388-0.267 c-0.847 0-1.38 0.251-1.859 0.549v6.134l2.235 0.188v0.667h-5.027V106.277z" class="style_foodtripadd_white"/><path d="M45.93 97.909c1.851-0.047 3 1.2 3.1 3.263c0 0.1 0 0.2 0 0.3 c0 0.518-0.062 0.918-0.102 1.239H43.09c0 0.1 0 0.1 0 0.181c0.086 2.5 1.7 3.2 3 3.2 c0.808 0 1.882-0.211 2.322-0.47l0.29 0.666c-0.612 0.549-2.023 0.879-3.208 0.879c-2.525 0-3.945-1.796-3.945-4.549 C41.592 99.9 43.4 98 45.9 97.909z M47.396 101.744c0.016-0.18 0.016-0.36 0.016-0.541c0-0.894-0.173-1.765-0.839-2.188 c-0.267-0.172-0.612-0.266-1.051-0.266c-1.177 0-2.251 0.839-2.416 2.995H47.396z" class="style_foodtripadd_white"/><path d="M55.705 101.729v-0.683c0-1.654-0.941-1.991-2.149-1.991c-0.612 0-1.545 0.235-2.282 0.596l-0.29-0.706 c0.784-0.635 2.353-0.934 3.153-0.934c1.663 0 3.1 0.6 3.1 2.871l-0.016 5.396h1.004v0.518 c-0.361 0.196-0.949 0.338-1.49 0.338c-0.384 0-0.925-0.039-0.925-0.815v-0.22c-0.486 0.58-1.286 1.035-2.612 1 c-1.529 0-2.549-1.099-2.549-2.432c0-0.094 0.008-0.188 0.016-0.282C50.881 102.2 54.2 101.7 55.7 101.729z M54.019 106.1 c0.62 0 1.349-0.361 1.67-0.675c0-0.973 0.008-1.945 0.016-2.926c-1.325 0-3.537 0.393-3.537 1.9 C52.167 105.7 52.9 106.1 54 106.137z" class="style_foodtripadd_white"/><path d="M64.937 99.156h-1.2v-0.589c0.917-0.234 1.176-0.203 1.404-0.721c0.157-0.361 0.463-1.506 0.494-1.773 h0.776v2.095h2.635v0.988h-2.635v3.953c0 2.4 0.1 2.9 0.9 2.917c0.533 0 1.333-0.228 1.592-0.384l0.243 0.7 c-0.47 0.518-1.717 0.8-2.439 0.8c-1.137 0-1.796-0.651-1.796-2.243C64.929 103 64.9 101.1 64.9 99.156z" class="style_foodtripadd_white"/><path d="M71.293 99.281l-0.808-0.234v-0.604l2.016-0.432l0.274 0.142v5.403c0 1.7 0.3 2.5 1.7 2.5 c0.933 0 1.89-0.596 2.165-0.886v-5.796l-0.98-0.251v-0.644l2.243-0.447l0.22 0.134v8.133h0.941v0.597 c-0.306 0.164-0.973 0.337-1.466 0.337c-0.502 0-0.808-0.212-0.808-0.675v-0.643c-0.902 0.792-1.953 1.216-2.894 1.2 c-2.463 0-2.581-1.608-2.596-3.78V99.281z" class="style_foodtripadd_white"/><path d="M24.592 129.377v-10.385l-1.114-0.611v-0.486l2.078-0.62l0.361 0.165v0.91 c0.439-0.51 1.459-1.177 2.761-1.177c1.757 0 3.4 1.2 3.4 4.368c0 2.683-1.828 4.848-4.471 4.8 c-0.581 0-1.106-0.118-1.6-0.251l0.047 2.109v1.138l1.537 0.164v0.667h-4.141v-0.667L24.592 129.377z M27.831 125.6 c1.365 0 2.753-1.059 2.792-3.819c0.039-2.635-1.263-3.561-2.573-3.561c-0.996 0-1.616 0.518-1.961 0.815l0.008 3.051v2.824 C26.34 125.3 26.9 125.6 27.8 125.564z" class="style_foodtripadd_white"/><path d="M33.778 125.541l1.271-0.164v-6.385l-1.114-0.611v-0.486l2.071-0.62l0.369 0.157v1.208 c0.392-0.597 1.725-1.365 2.682-1.365c0.345 0 0.6 0 0.8 0.056v1.607c-0.337-0.134-0.667-0.267-1.388-0.267 c-0.847 0-1.38 0.251-1.859 0.549v6.134l2.235 0.188v0.667h-5.027V125.541z" class="style_foodtripadd_white"/><path d="M45.099 117.173c2.659-0.031 3.9 2 3.9 4.541c-0.024 2.784-1.843 4.675-4.094 4.7 c-2.878 0.008-4.008-2.267-3.977-4.753C40.966 118.8 42.9 117.2 45.1 117.173z M47.389 121.8 c0-2.109-0.722-3.757-2.384-3.788c-1.772-0.031-2.471 1.326-2.471 3.577c0 2 0.8 3.9 2.4 3.9 C46.746 125.6 47.4 124.2 47.4 121.784z" class="style_foodtripadd_white"/><path d="M51.854 129.377v-10.385l-1.113-0.611v-0.486l2.078-0.62l0.361 0.165v0.91 c0.439-0.51 1.459-1.177 2.761-1.177c1.757 0 3.4 1.2 3.4 4.368c0 2.683-1.827 4.848-4.47 4.8 c-0.581 0-1.106-0.118-1.6-0.251l0.047 2.109v1.138l1.538 0.164v0.667h-4.141v-0.667L51.854 129.377z M55.093 125.6 c1.365 0 2.753-1.059 2.792-3.819c0.039-2.635-1.263-3.561-2.573-3.561c-0.996 0-1.616 0.518-1.961 0.815l0.008 3.051v2.824 C53.603 125.3 54.2 125.6 55.1 125.564z" class="style_foodtripadd_white"/><path d="M61.04 125.541l1.333-0.164v-6.424l-1.083-0.572v-0.486l2.172-0.62l0.353 0.157v7.945l1.271 0.164v0.667 H61.04V125.541z M61.785 114.459c0-0.65 0.612-1.145 1.168-1.145c0.69 0 1 0.4 1 0.972c0 0.69-0.588 1.138-1.176 1.1 C62.264 115.4 61.8 115.1 61.8 114.459z" class="style_foodtripadd_white"/><path d="M71.437 120.992v-0.683c0-1.654-0.941-1.991-2.149-1.991c-0.612 0-1.545 0.235-2.282 0.596l-0.29-0.706 c0.784-0.635 2.353-0.934 3.153-0.934c1.663 0 3.1 0.6 3.1 2.871l-0.016 5.396h1.004v0.518 c-0.361 0.196-0.949 0.338-1.49 0.338c-0.384 0-0.925-0.039-0.925-0.815v-0.22c-0.486 0.58-1.286 1.035-2.612 1 c-1.529 0-2.549-1.099-2.549-2.432c0-0.094 0.008-0.188 0.016-0.282C66.613 121.5 70 121 71.4 120.992z M69.75 125.4 c0.62 0 1.349-0.361 1.67-0.675c0-0.973 0.008-1.945 0.016-2.926c-1.325 0-3.537 0.393-3.537 1.9 C67.899 125 68.6 125.4 69.8 125.4z" class="style_foodtripadd_white"/><path d="M79.468 125.541l1.271-0.164v-6.385l-1.114-0.611v-0.486l2.071-0.62l0.369 0.157v1.208 c0.392-0.597 1.726-1.365 2.683-1.365c0.345 0 0.6 0 0.8 0.056v1.607c-0.338-0.134-0.667-0.267-1.389-0.267 c-0.847 0-1.38 0.251-1.858 0.549v6.134l2.235 0.188v0.667h-5.028V125.541z" class="style_foodtripadd_white"/><path d="M87.504 118.545l-0.809-0.234v-0.604l2.016-0.432l0.275 0.142v5.403c0 1.7 0.3 2.5 1.7 2.5 c0.934 0 1.891-0.596 2.165-0.886v-5.796l-0.98-0.251v-0.644l2.243-0.447l0.22 0.134v8.133h0.941v0.597 c-0.307 0.164-0.973 0.337-1.467 0.337c-0.502 0-0.808-0.212-0.808-0.675v-0.643c-0.902 0.792-1.953 1.216-2.895 1.2 c-2.463 0-2.58-1.608-2.596-3.78V118.545z" class="style_foodtripadd_white"/><path d="M98.03 118.42h-1.2v-0.588c0.918-0.235 1.177-0.204 1.404-0.722c0.157-0.361 0.463-1.506 0.494-1.772h0.776 v2.094h2.636v0.988h-2.636v3.953c0 2.4 0.1 2.9 0.9 2.917c0.533 0 1.333-0.228 1.592-0.384l0.243 0.7 c-0.471 0.518-1.718 0.8-2.439 0.8c-1.137 0-1.796-0.651-1.796-2.243C98.022 122.2 98 120.3 98 118.42z" class="style_foodtripadd_white"/><path d="M108.631 120.992v-0.683c0-1.654-0.941-1.991-2.149-1.991c-0.611 0-1.545 0.235-2.282 0.596l-0.29-0.706 c0.784-0.635 2.353-0.934 3.152-0.934c1.663 0 3.1 0.6 3.1 2.871l-0.016 5.396h1.004v0.518 c-0.361 0.196-0.949 0.338-1.49 0.338c-0.385 0-0.926-0.039-0.926-0.815v-0.22c-0.486 0.58-1.286 1.035-2.611 1 c-1.53 0-2.55-1.099-2.55-2.432c0-0.094 0.008-0.188 0.016-0.282C103.807 121.5 107.2 121 108.6 120.992z M106.944 125.4 c0.619 0 1.349-0.361 1.671-0.675c0-0.973 0.008-1.945 0.016-2.926c-1.326 0-3.537 0.393-3.537 1.9 C105.094 125 105.8 125.4 106.9 125.4z" class="style_foodtripadd_white"/><path d="M24.843 145.167c-0.934-0.33-0.879-0.91-0.879-1.357c0-0.384 0.337-1.286 0.973-1.858 c-0.776-0.471-1.271-1.263-1.271-2.393c0-2.164 1.812-3.152 3.577-3.191c0.878-0.016 1.7 0.2 2.3 0.6 c0.211-0.243 0.596-0.407 1.263-0.407h0.949v1.184h-1.537c0.22 0.4 0.3 0.9 0.3 1.498c0 2.079-1.655 3.216-3.49 3.2 c-0.604 0-1.161-0.094-1.655-0.29c-0.079 0.204-0.094 0.463-0.094 0.675c0 0.1 0 0.3 0 0.3 c0 0.6 0.3 0.9 1 0.941c0.471 0 1.1 0 2 0.039c2.934 0 3.1 1.5 3.1 2.5 c0 1.796-1.537 2.988-4.125 2.988c-1.875 0-3.788-0.534-3.788-2.338C23.517 146.3 24.3 145.5 24.8 145.167z M27.494 148.8 c1.702 0 2.729-0.557 2.729-1.726c0-1.004-0.369-1.584-2.306-1.584l-0.988-0.016c-0.612 0-1.098-0.039-1.482-0.103 c-0.243 0.299-0.47 0.706-0.47 1.475C24.976 148.2 26.1 148.8 27.5 148.751z M29.046 139.5 c0-1.553-0.674-2.298-2.008-2.298c-1.043 0-1.875 0.486-1.875 2.07c0 1.3 0.6 2.4 2.1 2.4 C28.583 141.6 29 140.9 29 139.488z" class="style_foodtripadd_white"/><path d="M32.829 144.806l1.271-0.164v-6.385l-1.114-0.611v-0.486l2.071-0.62l0.369 0.157v1.208 c0.392-0.597 1.725-1.365 2.682-1.365c0.345 0 0.6 0 0.8 0.056v1.607c-0.337-0.133-0.667-0.267-1.388-0.267 c-0.847 0-1.38 0.251-1.859 0.549v6.134l2.235 0.188v0.667h-5.027V144.806z" class="style_foodtripadd_white"/><path d="M45.107 140.257v-0.682c0-1.655-0.941-1.992-2.149-1.992c-0.612 0-1.545 0.234-2.282 0.596l-0.29-0.706 c0.784-0.635 2.353-0.934 3.153-0.934c1.663 0 3.1 0.6 3.1 2.871l-0.016 5.396h1.004v0.518 c-0.361 0.196-0.949 0.338-1.49 0.338c-0.384 0-0.925-0.039-0.925-0.816v-0.219c-0.486 0.58-1.286 1.035-2.612 1 c-1.529 0-2.549-1.099-2.549-2.432c0-0.094 0.008-0.188 0.016-0.282C40.284 140.8 43.6 140.3 45.1 140.257z M43.421 144.665c0.62 0 1.349-0.361 1.67-0.675c0-0.973 0.008-1.945 0.016-2.926c-1.325 0-3.537 0.393-3.537 1.9 C41.57 144.2 42.3 144.7 43.4 144.665z" class="style_foodtripadd_white"/><path d="M49.479 143.198h0.698l0.306 0.957c0.533 0.4 1 0.6 1.7 0.7 c1.176 0 2.008-0.438 2.008-1.475c0-0.948-1.114-1.263-2.228-1.796c-1.239-0.596-2.455-1.341-2.431-2.737 c0.031-1.623 1.733-2.329 3.129-2.368c1.043-0.031 2 0.3 2.4 0.541v1.679h-0.667l-0.337-0.879 c-0.29-0.306-0.667-0.549-1.356-0.557c-1.004-0.008-1.741 0.385-1.765 1.317c-0.032 0.9 1.1 1.3 2.2 1.9 c1.161 0.5 2.5 1.1 2.5 2.564c0 1.772-1.522 2.683-3.428 2.683c-0.941 0-1.945-0.228-2.737-0.667V143.198z" class="style_foodtripadd_white"/><path d="M58.454 137.685h-1.2v-0.588c0.917-0.235 1.176-0.204 1.404-0.722c0.157-0.361 0.463-1.506 0.494-1.772 h0.776v2.094h2.635v0.988h-2.635v3.953c0 2.4 0.1 2.9 0.9 2.917c0.533 0 1.333-0.228 1.592-0.384l0.243 0.7 c-0.47 0.518-1.717 0.8-2.439 0.8c-1.137 0-1.796-0.651-1.796-2.243C58.446 141.5 58.5 139.6 58.5 137.685z" class="style_foodtripadd_white"/><path d="M64.011 144.806l1.271-0.164v-6.385l-1.114-0.611v-0.486l2.071-0.62l0.369 0.157v1.208 c0.392-0.597 1.725-1.365 2.682-1.365c0.345 0 0.6 0 0.8 0.056v1.607c-0.337-0.133-0.667-0.267-1.388-0.267 c-0.847 0-1.38 0.251-1.859 0.549v6.134l2.235 0.188v0.667h-5.027V144.806z" class="style_foodtripadd_white"/><path d="M75.332 136.438c2.659-0.031 3.9 2 3.9 4.541c-0.024 2.784-1.843 4.675-4.094 4.7 c-2.878 0.008-4.008-2.267-3.977-4.753C71.199 138.1 73.2 136.5 75.3 136.438z M77.622 141 c0-2.109-0.722-3.757-2.384-3.788c-1.772-0.031-2.471 1.326-2.471 3.577c0 2 0.8 3.9 2.4 3.9 C76.979 144.8 77.6 143.5 77.6 141.049z" class="style_foodtripadd_white"/><path d="M81.099 144.806l1.067-0.156v-6.393l-1.114-0.611v-0.486l2.086-0.62l0.354 0.157v1.121 c0.706-0.611 2.086-1.238 3.16-1.278c1.938-0.062 2.6 1 2.6 3.679v4.432l1.263 0.156v0.667h-3.953v-0.667l1.185-0.164 v-4.149c0-1.913-0.298-2.878-1.891-2.808c-0.643 0.031-1.372 0.274-2.164 0.815v6.142l1.168 0.164v0.667h-3.756V144.806z" class="style_foodtripadd_white"/><path d="M95.924 136.438c2.658-0.031 3.9 2 3.9 4.541c-0.023 2.784-1.843 4.675-4.094 4.7 c-2.878 0.008-4.008-2.267-3.977-4.753C91.79 138.1 93.8 136.5 95.9 136.438z M98.214 141 c0-2.109-0.722-3.757-2.385-3.788c-1.772-0.031-2.47 1.326-2.47 3.577c0 2 0.8 3.9 2.4 3.9 C97.57 144.8 98.2 143.5 98.2 141.049z M94.771 134.539l2.306-3.027l1.146 1.169c-0.628 0.965-2.181 1.883-3.035 2.3 L94.771 134.539z" class="style_foodtripadd_white"/><path d="M101.69 144.806l1.067-0.172v-6.377l-1.114-0.611v-0.486l2.086-0.62l0.354 0.157v1.121 c0.698-0.611 2.039-1.246 3.113-1.278c1.122-0.039 1.8 0.3 2.2 1.114c0.753-0.572 2.141-1.082 3.137-1.114 c1.953-0.062 2.6 1.1 2.6 3.749v4.354l1.325 0.164v0.667h-3.897v-0.667l1.066-0.164v-4.079c0-2-0.298-2.948-1.891-2.878 c-0.706 0.031-1.419 0.282-2.094 0.667c0.109 0.5 0.2 1.2 0.2 1.858v4.439l1.199 0.156v0.667h-3.882v-0.667l1.177-0.172 v-4.196c0-1.992-0.322-2.823-1.914-2.753c-0.564 0.031-1.317 0.274-2.109 0.815v1.436c0 1.255-0.008 2.51-0.008 3.8 c0 0.3 0 0.6 0 0.941l1.168 0.164v0.667h-3.757V144.806z" class="style_foodtripadd_white"/><path d="M117.713 144.806l1.333-0.164v-6.424l-1.083-0.572v-0.486l2.173-0.62l0.354 0.157v7.945l1.271 0.164v0.667 h-4.047V144.806z M118.457 133.724c0-0.65 0.612-1.145 1.169-1.145c0.69 0 1 0.4 1 1 c0 0.689-0.588 1.137-1.177 1.137C118.936 134.7 118.5 134.3 118.5 133.724z" class="style_foodtripadd_white"/><path d="M127.27 136.461c0.079 0 0.157-0.008 0.235-0.008c0.815 0 1.7 0.1 2 0.4v1.882h-0.745l-0.399-0.988 c-0.338-0.274-0.91-0.376-1.286-0.376c-1.396 0-2.651 1.035-2.667 3.191c-0.023 2.8 1.5 4 2.9 4 c0.809 0 1.82-0.22 2.259-0.479l0.267 0.698c-0.611 0.541-1.858 0.855-3.043 0.855c-2.415 0-3.765-1.867-3.78-4.385 C122.987 138.4 124.9 136.6 127.3 136.461z" class="style_foodtripadd_white"/><path d="M136.301 140.257v-0.682c0-1.655-0.941-1.992-2.149-1.992c-0.611 0-1.545 0.234-2.282 0.596l-0.29-0.706 c0.784-0.635 2.353-0.934 3.152-0.934c1.663 0 3.1 0.6 3.1 2.871l-0.016 5.396h1.004v0.518 c-0.361 0.196-0.949 0.338-1.49 0.338c-0.385 0-0.926-0.039-0.926-0.816v-0.219c-0.486 0.58-1.286 1.035-2.611 1 c-1.53 0-2.55-1.099-2.55-2.432c0-0.094 0.008-0.188 0.016-0.282C131.477 140.8 134.8 140.3 136.3 140.257z M134.614 144.665c0.619 0 1.349-0.361 1.671-0.675c0-0.973 0.008-1.945 0.016-2.926c-1.326 0-3.537 0.393-3.537 1.9 C132.764 144.2 133.5 144.7 134.6 144.665z" class="style_foodtripadd_white"/></g></svg>