<svg xmlns="http://www.w3.org/2000/svg" xmlns:xlink="http://www.w3.org/1999/xlink" version="1.1" x="0px" y="0px" width="370px" height="185px" viewBox="0 0 370 185" enable-background="new 0 0 370 185" xml:space="preserve"><style>.style0{fill:	#FFFFFF;}.style1{fill:	#F5F4F4;}.style10{font-size:	17.8863;font-family:	'NexaLight';fill:	#2E3136;}.style11{fill:	#2E3136;}.style12{font-size:	18.5606;font-family:	'Lato-Black';fill:	#2E3136;}.style13{font-size:	10.3115;font-family:	'Merriweather';fill:	#2E3136;}.style14{fill:	#E0E0E1;}.style2{font-size:	11.3426;font-family:	'Lato-Bold';fill:	#2E3136;}.style3{font-size:	10.3115;font-family:	'Lato-Bold';fill:	#EB4A3F;text-decoration:	 underline;}.style4{font-size:	10.3115;font-family:	'Merriweather-Bold';fill:	#2E3136;}.style5{font-size:	11.3426;font-family:	'Merriweather';fill:	#2E3136;}.style6{font-size:	10.3115;font-family:	'Merriweather-Italic';fill:	#87888B;}.style7{fill:	#243139;}.style8{fill:	none;}.style9{font-size:	17.8863;font-family:	'NexaBold';fill:	#2E3136;}</style><rect width="370" height="185" class="style0"/><rect x="132" y="74" width="230" height="67" class="style1"/><g><text transform="matrix(1 0 0 1 17.6304 66.5991)" class="style2">Contenido</text></g><g><text transform="matrix(1 0 0 1 318.0586 175.3965)" class="style3">EDITAR&gt;</text></g><g><text transform="matrix(1 0 0 1 131.9863 69.0176)" class="style4">Ver mis notas</text></g><g><text transform="matrix(1 0 0 1 20.2104 92.2554)" class="style5">6 Regiones</text></g><g><text transform="matrix(1 0 0 1 138.8208 89.4302)" class="style6">Todav&#237;a no tienes ninguna nota...</text></g><g><text transform="matrix(1 0 0 1 20.2104 110.9258)" class="style5">20 platos</text></g><g><text transform="matrix(1 0 0 1 20.2104 129.5972)" class="style5">1o productos</text></g><g><g><rect x="4.5" y="37.3" width="360.9" height="0.5" class="style7"/></g><g><rect x="23.8" y="16.4" width="97.7" height="14.4" class="style8"/><text transform="matrix(1 0 0 1 23.7886 29.0918)"><tspan x="0" y="0" class="style9">FOOD</tspan><tspan x="43.5" y="0" class="style10">TRIP</tspan></text><g><g><path d="M12.615 30.571c-4.447 0-8.065-3.618-8.065-8.065s3.618-8.065 8.065-8.065 c4.447 0 8.1 3.6 8.1 8.065S17.062 30.6 12.6 30.571z M12.615 14.733c-4.286 0-7.772 3.487-7.772 7.8 s3.487 7.8 7.8 7.772s7.772-3.486 7.772-7.772S16.901 14.7 12.6 14.733z" class="style11"/></g><path d="M12.24 17.906h-0.583c-0.088 0-0.16 0.072-0.16 0.16v2.559H9.109c-0.092 0-0.215 0.022-0.338 0.1 c-0.123 0.037-0.236 0.088-0.31 0.14L6.923 21.88c-0.057 0.039-0.087 0.087-0.087 0.135s0.031 0.1 0.1 0.135l1.538 1.1 c0.076 0.1 0.2 0.1 0.3 0.139c0.122 0 0.2 0.1 0.3 0.06h2.388v5.797c0 0.1 0.1 0.2 0.2 0.16h0.583 c0.088 0 0.16-0.072 0.16-0.16V18.066C12.4 18 12.3 17.9 12.2 17.906z" class="style11"/><path d="M19.5 20.585l-1.538-1.056c-0.074-0.051-0.188-0.103-0.311-0.14c-0.123-0.038-0.246-0.06-0.338-0.06 h-4.309l0.484 2.781h3.825c0.093 0 0.216-0.021 0.338-0.06c0.123-0.037 0.236-0.089 0.311-0.14l1.538-1.056 c0.056-0.039 0.087-0.087 0.087-0.135C19.588 20.7 19.6 20.6 19.5 20.585z" class="style11"/></g></g><g><text transform="matrix(1 0 0 1 123.082 28.6743)" class="style12">SUR DE India</text></g><g><text transform="matrix(1 0 0 1 267.9678 28.8916)" class="style13">Creado por </text></g><g><circle cx="348.5" cy="19.8" r="14.7" class="style0"/><g><g><path d="M348.532 34.634c-8.191 0-14.855-6.664-14.855-14.855c0-8.192 6.664-14.856 14.855-14.856 s14.856 6.7 14.9 14.856C363.389 28 356.7 34.6 348.5 34.634z M348.532 5.217c-8.029 0-14.562 6.533-14.562 14.6 c0 8 6.5 14.6 14.6 14.561s14.562-6.532 14.562-14.561C363.094 11.8 356.6 5.2 348.5 5.217z" class="style14"/></g><g><path d="M348.531 20.253c2.764 0 5-2.238 5-4.998c0-2.76-2.236-4.998-5-4.998c-2.758 0-4.993 2.238-4.993 5 C343.538 18 345.8 20.3 348.5 20.253z" class="style14"/></g><g><path d="M356.509 28.655c1.198 0 2.179-0.371 2.179-0.824c0-0.453 0-0.829 0-0.835c0 0 0 0 0-0.005 c-0.018-3.229-3.882-4.953-3.882-4.953c-1.094-0.488-2.97-0.888-4.169-0.888h-1.451c-1.198 0-2.269 0-2.378 0s-0.729 0-1.377 0 c-0.647 0-2.073 0.399-3.168 0.888c0 0-3.863 1.724-3.882 4.953c0 0 0 0 0 0.005c-0.002 0.006-0.004 0.382-0.004 0.8 c0 0.5 1 0.8 2.2 0.824H356.509z" class="style14"/></g></g></g></g></svg>