<svg class="icon icon-footer icon-fb" version="1.1" id="Layer_1" xmlns="http://www.w3.org/2000/svg" xmlns:xlink="http://www.w3.org/1999/xlink" x="0px" y="0px"
	 width="25px" height="25px" viewBox="0 0 25 25" enable-background="new 0 0 25 25" xml:space="preserve">
<g>
	<g>
		<path d="M12.495,25h-0.002c-3.339,0-6.477-1.299-8.839-3.659c-4.873-4.875-4.873-12.806,0-17.68
			C6.016,1.3,9.154,0,12.493,0c3.34,0,6.479,1.3,8.841,3.662c2.359,2.361,3.661,5.5,3.661,8.839c0,3.338-1.302,6.478-3.661,8.84
			C18.973,23.701,15.833,25,12.495,25z M12.493,0.455c-3.217,0-6.242,1.252-8.518,3.527c-4.695,4.698-4.695,12.338,0,17.04
			c2.275,2.271,5.301,3.525,8.518,3.525h0.002c3.217,0,6.241-1.254,8.519-3.527c2.272-2.275,3.526-5.302,3.526-8.52
			c0-3.217-1.253-6.242-3.526-8.517C18.736,1.707,15.712,0.455,12.493,0.455z"/>
	</g>
	<path d="M10.154,7.818l-0.002,2.179L8.246,9.996l-0.003,3.156l1.906,0.002l-0.01,9.093l3.753,0.004l0.01-9.092
		l2.507,0.004l0.33-3.158l-2.832-0.003l0.001-1.797c0.001-0.6,0.35-0.979,0.928-0.978l1.905,0.002l0.004-3.158l-2.562-0.002
		C11.622,4.065,10.157,5.271,10.154,7.818z"/>
</g>
</svg>