<svg class="icon icon-share icon-twitter" xmlns="http://www.w3.org/2000/svg" xmlns:xlink="http://www.w3.org/1999/xlink" version="1.1" x="0px" y="0px" width="25px" height="25px" viewBox="0 0 25 25" enable-background="new 0 0 25 25" xml:space="preserve"><g><g><path d="M12.497 25L12.497 25c-3.341 0-6.479-1.3-8.84-3.661C-1.219 16.465-1.219 8.5 3.7 3.7 C6.018 1.3 9.2 0 12.5 0s6.48 1.3 8.8 3.662C23.699 6 25 9.2 25 12.5c0 3.339-1.301 6.478-3.663 8.8 C18.976 23.7 15.8 25 12.5 25z M12.496 0.455c-3.218 0-6.243 1.252-8.519 3.527C-0.72 8.68-0.72 16.3 4 21 c2.274 2.3 5.3 3.5 8.5 3.528h0.001c3.218 0 6.243-1.253 8.519-3.529c2.276-2.274 3.529-5.299 3.529-8.518 c0-3.217-1.253-6.242-3.529-8.516C18.741 1.7 15.7 0.5 12.5 0.455z"/></g><g><g><path d="M20.051 12.826c-0.02 0.051-0.055 0.083-0.087 0.121c-0.018 0-0.021 0.014-0.034 0 c0-0.022 0.021-0.024 0.017-0.052c-0.062-0.008-0.056-0.072-0.068-0.087c-0.017 0-0.035 0-0.052 0 C19.865 12.8 20 12.8 20.1 12.826z"/><path d="M19.515 13.259c0.062-0.03 0.121-0.063 0.173-0.104C19.616 13.2 19.6 13.2 19.5 13.259z M16.51 16.289c-0.001-0.001-0.002-0.003-0.004-0.004C16.507 16.3 16.5 16.3 16.5 16.289z M10.75 15.6 c0.053-0.008 0 0 0 0.053c0.029 0 0.1 0 0.1 0c0-0.034 0-0.068 0-0.104C10.818 15.5 10.8 15.5 10.8 15.6 z M11.991 18.152c-0.122-0.007-0.2 0.032-0.329 0.019c-0.018 0-0.033 0-0.051 0c-0.162 0-0.323 0-0.485 0 c-0.005-0.024-0.042-0.016-0.069-0.019c-0.021-0.074 0.1 0 0.2 0c-0.014-0.031-0.052-0.012-0.018-0.051 c-0.128 0.026-0.182-0.045-0.222 0.03c0.005-0.077-0.039-0.004-0.055-0.1c-0.046 0-0.091 0-0.139 0 c0.013 0.1 0.1 0 0.1 0.034c0.019 0.041-0.004 0 0 0.086c-0.015-0.003-0.017 0.007-0.018 0 c-0.056 0.01-0.079-0.013-0.121-0.019c-0.019-0.038-0.109-0.006-0.155-0.017c0-0.006 0-0.011 0-0.017 c0.025-0.01 0.1 0 0.087-0.018c-0.069-0.056-0.173-0.1-0.156 0.018c-0.036 0.01-0.114-0.021-0.12 0 c-0.036 0.007-0.047-0.012-0.07-0.017c0-0.012 0-0.023 0-0.035c-0.046 0.011-0.137-0.021-0.155 0 c-0.245-0.084-0.575-0.083-0.796-0.19c0.052-0.016-0.039-0.026-0.018-0.07c0.037 0 0 0 0.1 0.1 c-0.038-0.092 0.015-0.029 0.034-0.104c-0.049 0.003-0.072 0.031-0.121 0.034c-0.024 0.052-0.014-0.04 0.034-0.017 c-0.054-0.045-0.062 0.025-0.155 0.017c0.01 0 0 0 0 0.035c-0.052 0.013-0.062-0.019-0.103-0.019 c0-0.005 0-0.011 0-0.017c0.036-0.061 0.139-0.056 0.19-0.104c-0.017-0.03-0.056-0.038-0.104-0.034 c-0.014 0.072-0.154 0.092-0.138 0.138c-0.285-0.102-0.568-0.205-0.813-0.346c0.035-0.03 0.015-0.054 0.034-0.069 c0.04 0 0.2 0 0.2 0.104c0.022 0 0 0.1 0 0.087c0.066 0 0.1 0 0.122-0.018 c-0.016-0.052-0.027 0.04-0.069 0.018c-0.014-0.016-0.019-0.039-0.018-0.069c0-0.006 0-0.012 0-0.018 c0.021-0.003 0 0 0 0.018c0.028 0 0.013-0.034 0.022-0.05c0.011 0 0 0 0.031-0.002 c-0.019-0.008-0.027-0.006-0.031 0.002c-0.102-0.003-0.275-0.075-0.263-0.105c-0.026 0.038-0.043-0.021-0.053 0 c-0.02 0.015-0.046 0.023-0.087 0.018c0.006 0 0 0 0.1 0.019C8.364 17.5 8.3 17.4 8.3 17.4 c-0.133-0.007-0.168-0.107-0.276-0.139c-0.004-0.077-0.12-0.042-0.139-0.104c0.016-0.008 0.031-0.015 0.035-0.034 c-0.018-0.01-0.08-0.005-0.104-0.052c-0.029 0-0.045 0.014-0.052 0.034c-0.015-0.003-0.018-0.017-0.034-0.017 c-0.023-0.062-0.109-0.063-0.139-0.121c0.021-0.003 0 0 0 0.018c0.024-0.021-0.037-0.049 0.012-0.084 c0.003-0.001 0.005-0.002 0.005-0.003c-0.002 0.001-0.003 0.002-0.005 0.003c-0.022 0.008-0.108 0.013-0.082 0 c-0.025-0.021-0.07-0.021-0.086-0.052c0.06-0.038 0.124-0.073 0.173-0.121c-0.088 0.017-0.172 0.035-0.19 0.1 c-0.038-0.036-0.077-0.072-0.121-0.104c0.094-0.032-0.077-0.108-0.051-0.053c-0.017-0.008-0.032-0.015-0.036-0.034 c0.004-0.065-0.048-0.078-0.086-0.104c-0.047-0.005 0 0.1 0 0.034c0.049 0.011-0.026 0.027-0.018 0.1 c-0.014-0.004-0.018-0.018-0.035-0.018c-0.059-0.045-0.113-0.094-0.172-0.138c0-0.047-0.056-0.038-0.054-0.087 c0.004-0.032 0.061-0.011 0.071-0.035c-0.009-0.054-0.082-0.101-0.122-0.068c-0.01 0.1 0.1 0 0 0.1 c-0.052-0.007-0.086-0.03-0.104-0.068c0.047-0.026-0.024-0.068 0.014-0.085c0.001-0.001 0.003-0.001 0.004-0.002 c-0.001 0.001-0.003 0.001-0.004 0.002c-0.023 0.004-0.083-0.06-0.116-0.02c-0.038-0.014-0.07-0.035-0.07-0.086 c0.021 0 0 0 0 0.051c0.068-0.005-0.021-0.06 0.051-0.051c-0.008-0.043-0.041-0.062-0.069-0.087 c-0.031 0.044-0.035 0.008-0.068 0.053c-0.055 0.008-0.046-0.048-0.087-0.053c-0.014-0.008-0.029-0.015-0.033-0.034 c0-0.035-0.048-0.021-0.036-0.069c-0.012-0.047 0.036-0.035 0.036-0.069c-0.063-0.015-0.021-0.065-0.069-0.035 c-0.001-0.017-0.021-0.013-0.035-0.017c0.004-0.015 0.018-0.018 0.018-0.034c0.088-0.021 0.103-0.07 0.087-0.069 c-0.049-0.024-0.143 0.054-0.156 0.12c-0.051-0.023-0.069-0.08-0.121-0.104c0-0.006 0-0.012 0-0.017 c-0.074-0.14-0.195-0.231-0.259-0.382c0.033 0 0 0 0.1 0.036c0.286 0.2 0.6 0.4 0.9 0.6 c-0.053 0 0.1 0.1 0 0.086c0.015 0 0.018-0.006 0.019-0.017c0.053 0.055-0.05 0.02-0.087 0 c0.001-0.023-0.008-0.037-0.017-0.052c-0.045-0.014-0.082 0.066-0.053 0.069c0.003-0.025 0.042-0.016 0.069-0.018 c0.095 0.2 0.3 0.1 0.4 0.139c-0.1-0.076-0.237-0.024-0.345-0.104c0.039-0.046 0.065-0.068 0-0.104 c0.181 0.1 0.3 0.1 0.6 0.174c0.047 0.1 0.2 0.1 0.3 0.069c0.065 0 0.201-0.004 0.3 0 c-0.017 0-0.033 0-0.051 0c0.006 0 0 0 0.1 0.018c0 0 0 0 0 0.017c0.052 0.033-0.053-0.024-0.068 0 c0.041 0 0.1 0.1 0.12-0.015c-0.002 0.1 0 0 0 0.066c0.04-0.004 0.01-0.076 0-0.086c0.15 0 0.3 0 0.4 0 c-0.018 0.069-0.069-0.003-0.138 0.017c-0.025 0.004-0.006 0.052-0.034 0.053c0.094 0 0.134-0.042 0.207-0.035 c-0.003-0.02-0.018-0.01-0.018 0c-0.025-0.008 0.002-0.016 0-0.034c0.069-0.044 0.2 0 0.208-0.035 c0.076-0.021 0.171-0.026 0.242-0.052c0.057 0 0.098-0.017 0.172-0.018c0.014 0 0.1 0 0 0.1 c0.022 0 0 0 0.1 0c0.059-0.045 0.026-0.075 0.07-0.122c0.267-0.077 0.493-0.198 0.726-0.312 c-0.013 0.017-0.019 0.04-0.017 0.069c-0.033 0.032-0.032-0.01-0.087 0c0.035 0 0 0 0.1 0.1 c0.054-0.038 0.093-0.091 0.155-0.122c-0.006-0.06-0.047 0.003-0.052-0.034c0-0.006 0-0.012 0-0.017 c0.062 0 0.088-0.027 0.104-0.07c0.021-0.006 0.026-0.029 0.051-0.034c-0.01 0 0 0 0 0.1 c0.053-0.022 0.064-0.071 0.156-0.087c0.006-0.03-0.013-0.033-0.034-0.035c0.012-0.016 0.031-0.025 0.051-0.034 c0.101-0.012 0.063-0.093 0.155-0.034c-0.014-0.015-0.01-0.048-0.033-0.053c0.001-0.032 0.058-0.012 0.052-0.051 c0.004-0.015 0.018-0.018 0.018-0.036c0.054-0.055 0.193-0.116 0.172-0.188c-0.035-0.041-0.144-0.007-0.208-0.019 c-0.085-0.006-0.136-0.048-0.225-0.052c-0.003-0.014-0.017-0.017-0.017-0.034c0.055-0.021 0 0 0.086-0.019 c-0.072-0.058-0.15-0.066-0.207-0.033c-0.053 0-0.067-0.036-0.104-0.052c-0.004-0.014-0.018-0.019-0.018-0.035 c0.014 0 0 0 0 0.017c0.012-0.08-0.069-0.067-0.086-0.121c-0.021 0.024-0.007 0 0 0.1 c-0.032-0.024-0.076-0.039-0.069-0.104c-0.017 0-0.013 0.021-0.017 0.034c-0.194-0.289 0.021-0.694 0.276-0.795 c0.039 0 0.065-0.004 0.069-0.035c0.025 0.007-0.002 0 0 0.035c0.021-0.006 0.027-0.031 0.051-0.035 c-0.025-0.01-0.02-0.018-0.068-0.034c0.01-0.025 0.025-0.044 0.035-0.07c-0.036 0.005-0.035 0.047-0.052 0.1 c-0.225-0.03-0.487-0.021-0.642-0.121C9.763 13.8 9.8 13.9 9.8 13.83c-0.04-0.02-0.062-0.055-0.12-0.053 c-0.015 0.003-0.018 0.018-0.035 0.018c0.005 0.1 0.1 0.1 0.1 0.086c0 0 0 0 0 0 c-0.08-0.018-0.134-0.062-0.207-0.087c0.006-0.063-0.084-0.031-0.086-0.086c0.086-0.013 0.1 0 0.086-0.086 c-0.057 0.045-0.072 0.028-0.122 0.068c-0.056-0.007-0.075-0.05-0.121-0.068H9.311c-0.039-0.054-0.085-0.1-0.138-0.14 c-0.013-0.046-0.05-0.064-0.07-0.104c0.107 0.1 0.019-0.14-0.069-0.121c-0.013 0 0 0 0 0.1 c-0.066-0.013-0.054-0.106-0.121-0.12c-0.025-0.033-0.025-0.091-0.068-0.104c0-0.022 0-0.046 0-0.069 c0.014-0.003 0.017-0.017 0.033-0.017c0.01 0 0 0 0.018-0.018c0.085 0.001-0.039 0 0 0.1 c0.022-0.03 0.027-0.057 0.035-0.121c0.082-0.08 0.198-0.125 0.294-0.191c0.104 0 0.1 0.1 0.208-0.051 c0.074 0 0.088-0.047 0.172-0.068c-0.022-0.062-0.056-0.047-0.121-0.036c-0.101-0.008-0.172-0.046-0.242-0.085 c-0.028-0.036-0.083-0.045-0.12-0.07c-0.047-0.062-0.144-0.076-0.19-0.139c-0.048 0 0 0 0 0.1 c-0.055-0.042-0.13-0.065-0.173-0.121c-0.016-0.054-0.081-0.056-0.104-0.104c-0.025-0.05-0.068-0.081-0.104-0.122 c0.081-0.101 0.013-0.006-0.034-0.103c-0.067 0 0.1 0.1 0 0.069c-0.028-0.025-0.056-0.054-0.083-0.086 c0.022 0 0 0 0 0.017c0.049-0.026-0.035-0.077 0.035-0.069c0.01-0.07-0.07-0.055-0.087-0.017 c0.06 0.045-0.004 0 0 0.063c-0.144-0.176-0.26-0.45-0.229-0.689c0.004 0 0 0 0 0 c0.039 0 0.1 0.1 0.1 0.104c0.036 0 0.007-0.061 0.017-0.087c0.039 0 0.1 0 0.1 0 c0.016-0.055-0.026-0.053-0.034-0.087c-0.034 0.001-0.021 0.047-0.069 0.036c0.004-0.019 0.035-0.012 0.035-0.036 c0-0.005 0-0.011 0-0.017c0.155-0.009 0.286-0.022 0.38-0.052c0 0 0 0 0 0.036c-0.015-0.004-0.017 0.006-0.018 0 c0.086-0.016 0.1 0.1 0.1 0.069c0.01-0.083-0.062-0.085-0.104-0.121c0.067 0 0.1 0 0.173-0.017 c-0.029-0.056-0.087-0.087-0.138-0.121H8.844c0-0.006 0-0.012 0-0.018c0.062-0.014-0.008-0.06 0.052-0.085 c-0.015-0.047-0.039 0.039-0.069 0.034c-0.054-0.018 0.051-0.017 0.035-0.052c-0.045 0.002-0.067 0.026-0.07 0.1 c-0.069-0.056-0.15-0.103-0.207-0.173c0.01-0.014 0.019-0.028 0.018-0.052c-0.033 0.013-0.013 0.052-0.052 0 c0-0.017 0.021-0.014 0.034-0.018c-0.022-0.032-0.079 0.018-0.034-0.051c-0.047-0.013-0.034 0.036-0.053 0.051H8.48 c-0.028-0.029-0.054-0.061-0.087-0.085c0.031-0.072-0.104-0.125-0.121-0.208c0.021-0.003 0 0 0 0 c0.076-0.037-0.018-0.085 0.019-0.12c-0.023 0-0.047 0-0.069 0c-0.005 0 0 0 0 0 c0.051 0.01-0.026 0.027-0.017 0.052c-0.016-0.01-0.027-0.048-0.035-0.018c-0.045-0.001-0.024-0.067-0.069-0.069 c-0.008-0.061-0.043-0.094-0.069-0.138C8.153 10.2 8.2 10 8.1 9.973c-0.017 0.013-0.026 0.032-0.035 0.1 c-0.017 0.1 0.1 0.1 0 0.122c-0.006 0-0.012 0-0.018 0c-0.038-0.088-0.099-0.154-0.104-0.277 c-0.022-0.079-0.022-0.18 0-0.259C8.01 9.6 8 9.6 8.1 9.575C8.044 9.5 8 9.5 7.9 9.5 c0-0.057 0-0.115 0-0.172c0-0.006 0-0.012 0-0.018c0.045 0 0.1 0 0.2 0.07C8.029 9.4 8 9.4 8 9.4 C8.029 9.5 8.1 9.4 8.1 9.489c0.026-0.016 0.056-0.026 0.052-0.07c0.006 0 0 0 0 0 c0.017 0.1 0.1 0.1 0.2 0.07c0.037 0 0.1 0 0.1 0.034c0.066-0.004 0.1 0 0.1 0.1 c0.102 0.1 0.2 0.1 0.3 0.121C8.924 9.7 8.9 9.7 9 9.73c0.102 0.1 0.3 0.1 0.4 0.2 c0.035 0.041-0.007 0.04-0.035 0.018c-0.007 0 0 0 0 0.085c0.031-0.09 0.1 0 0.07-0.069 c0.084 0 0.1 0 0.2 0.052c0.012-0.003 0.021-0.004 0.028-0.002c0.01 0 0 0 0 0 c0.007 0 0 0 0 0.018c0.027-0.005 0 0 0.1 0.017c0.075 0.1 0.2 0.1 0.3 0.2 c-0.021 0.013-0.062-0.025-0.12-0.051c-0.016 0.1 0.1 0.2 0.3 0.172c-0.024-0.05-0.063-0.085-0.121-0.103 c0-0.006 0-0.012 0-0.018c0.056 0 0.1 0 0.1 0.035c0.113 0 0.2 0.1 0.3 0.1 c0.031 0.1 0.1 0.1 0.2 0.103c-0.006 0.024-0.03 0.028-0.034 0.052c0.042 0 0.1 0 0.104-0.017 c0.014-0.004 0 0 0 0.017c-0.037 0 0 0.052-0.036 0.018c0.008 0.1 0.2 0 0.2 0.1 c0.075-0.066-0.146-0.049-0.069-0.121c0.021 0 0.1 0 0.1 0.052c0.119 0 0.2 0.1 0.3 0.2 c-0.023-0.018-0.061-0.017-0.082 0.004c0.004 0 0 0 0 0.035c0.043-0.033 0.2 0.1 0.2 0 c0.082 0 0.1 0.1 0.2 0.138c-0.014 0.03-0.033 0.003-0.054 0c-0.006 0.1 0.1 0.1 0.2 0.2 c0.016-0.005 0.077-0.047 0.034-0.052c0-0.006 0-0.012 0-0.018c0.086 0 0.1 0.1 0.2 0.1 c0.05 0 0.1 0.1 0.1 0.087c0.158 0.2 0.3 0.3 0.5 0.467c0.055 0.1 0.1 0 0.152-0.066 c0.005 0 0 0 0 0.066c0.028-0.051 0.023-0.22 0.018-0.257c0-0.001 0-0.001 0-0.002 c0.07-0.113 0.094-0.276 0.172-0.38c-0.004 0.058-0.026 0.1-0.017 0.172c0.011 0 0 0 0 0 c0.041-0.019-0.003-0.123 0.029-0.152c-0.056 0 0.016-0.031-0.048-0.038c0.021-0.02 0.021-0.061 0.019-0.104 c0.027-0.088 0.055-0.176 0.103-0.243c0.009 0 0.1 0 0 0.087c0.028 0 0.029-0.017 0.052-0.017 c-0.108-0.08 0.071-0.093 0.035-0.208c-0.026 0.025-0.038 0.055-0.035-0.018c0.043-0.044 0.11-0.154 0.086-0.207 c0.012-0.081 0.091-0.094 0.087-0.19c0.088-0.045 0.11-0.155 0.174-0.225c0.019 0.064-0.044 0.049-0.035 0.1 c0.004 0 0 0 0.1 0.035c0.03-0.076 0.003-0.148-0.034-0.19c0.03-0.113 0.113-0.175 0.155-0.277 c0.064-0.004 0.054-0.086 0.103-0.104c0.029 0 0 0 0 0.069c0.021-0.021 0.045-0.007 0 0 c0.016 0 0.041-0.01 0.1 0.008c0.002 0 0 0 0 0.01c-0.003-0.004-0.005-0.008-0.008-0.01 c-0.018-0.029-0.012-0.081-0.062-0.077c0.01-0.014 0.019-0.027 0.018-0.051c0-0.029 0.013-0.045 0.036-0.052 c-0.015 0 0.1 0.1 0.1 0.138c0.045-0.075-0.1-0.108-0.087-0.207c-0.022 0.006-0.027 0.03-0.051 0 c0.016-0.082 0.083-0.112 0.12-0.174c0.104-0.074 0.158-0.199 0.242-0.293c0.003-0.02 0.019-0.027 0.034-0.035 c0.068-0.048 0.095-0.136 0.174-0.173c0.041 0 0.065-0.052 0.115-0.099c0.002-0.001 0.003-0.003 0.005-0.004 c0.087-0.041 0.124-0.129 0.208-0.172c-0.006 0 0 0 0.1 0.051c-0.009 0.014-0.018 0.028-0.017 0.1 c0.007 0 0.015-0.002 0 0c-0.002 0.043-0.003 0.1 0 0.085c0.055 0.025-0.067 0.011-0.068 0 c0.036 0 0.1 0 0.1 0.104c0.015-0.009 0.028-0.018 0.053-0.018c0.019-0.064-0.043-0.049-0.034-0.104 c0.042-0.01 0.036-0.067 0.104-0.052C14.99 8.7 15 8.7 15.1 8.71c0.044-0.062-0.094-0.089-0.086-0.173 c-0.015 0.01-0.029 0.018-0.052 0.018c0.003-0.031 0.028-0.04 0.069-0.035c0.122-0.05 0.238-0.107 0.345-0.173 c0.022-0.001 0.023-0.022 0.053-0.017c0.092-0.022 0.203-0.026 0.259-0.086c0.006 0 0 0 0 0 c0.091-0.005 0.1 0.1 0.1 0.156c-0.006-0.041 0.002-0.067 0.017-0.087c-0.039 0.016-0.142 0.023-0.139-0.017 c-0.069 0 0 0.043-0.007 0.073c-0.003 0.003-0.007 0.008-0.011 0.012c0.006-0.004 0.009-0.008 0.011-0.012 c0.051-0.053 0.062-0.017 0.1 0.047c0.002 0.015-0.008 0.017-0.019 0.018c-0.07 0.035-0.184-0.028-0.259-0.018 c0.05 0 0.2 0.1 0.2 0.036c-0.023 0.039-0.068 0.057-0.051 0.138c0.122 0 0.222-0.078 0.362-0.104 c0.015 0 0.017-0.007 0.018-0.018c0.006 0 0 0 0 0c0.057 0 0.085-0.03 0.156-0.017 c-0.008 0 0.094-0.014 0.1 0.034c-0.064 0 0 0 0 0.104c0.044-0.002 0.028-0.064 0.054-0.086 c0.012 0 0.1 0 0.1 0.069c-0.008 0.033-0.037 0.043-0.035 0.086c-0.036 0.008-0.032-0.024-0.034-0.052 c-0.062-0.008-0.037 0.2 0 0.139c0.006 0 0 0 0 0c0.012 0.047-0.036 0.035-0.036 0.069h-0.018 c-0.05-0.047-0.043-0.151-0.103-0.19c-0.025 0.1 0.1 0.1 0 0.19c0.021-0.003 0 0 0 0 c-0.056 0.021-0.092 0.059-0.157 0.07c-0.033-0.088 0.024-0.047 0.035-0.121c-0.024 0.05-0.107 0.042-0.156 0.1 c0.01 0 0.1 0 0 0.052c0.005 0 0 0 0.1 0.017c0 0 0 0 0 0 c-0.071 0.021-0.12 0.063-0.208 0.069c-0.048-0.014-0.044 0.024-0.086 0.018c0.027-0.068-0.076-0.04-0.104 0 c0.007 0 0.032-0.016 0 0.017c-0.004 0.024-0.053 0.006-0.053 0.034c-0.032 0.019-0.082 0.022-0.121 0 c-0.021-0.031-0.086 0.041-0.139 0.036c0.005 0 0 0 0 0.034c-0.035 0-0.069 0-0.104 0 c0.008 0 0.2 0.1 0.2 0c0.076 0 0.1 0 0.2 0.035c0.029 0 0.1 0 0.1 0c0.006 0 0 0 0 0 c0.035 0 0.1 0 0.2 0.069c-0.051 0.001-0.064 0.04-0.086 0.069c0.027-0.03 0.071-0.043 0.138-0.035 c-0.004-0.02-0.034-0.012-0.034-0.035c0.16 0 0.3 0.1 0.4 0.156c0.129 0.1 0.3 0.2 0.4 0.3 c-0.055 0.003-0.029 0.1 0 0.069c0.002-0.032-0.021-0.038-0.018-0.069C16.97 9.7 17 9.7 17 9.7 c0.021 0 0.1 0.1 0.1 0.104c0 0 0 0 0 0.052c0.052 0 0.1 0 0.1 0 c0.067 0.1 0.1 0.1 0.2 0.172c0.015 0 0 0 0 0.036c0.078 0.1 0.1 0.2 0.2 0.3 c0.056 0 0.1 0.1 0.1 0.104c0.005 0 0.1 0 0.1 0.085c-0.041-0.024-0.032-0.036-0.087-0.017 c0.043 0 0.1 0.1 0.1 0.172c0.014-0.003 0.018-0.017 0.034-0.017c0.065 0.1 0.1 0.2 0.2 0.3 c-0.004 0 0 0 0 0.052c0.013 0.1 0.1 0.2 0.1 0.189c0.063 0.1 0.1 0.2 0.1 0.3 c-0.087-0.088-0.075 0.092-0.018 0.086c-0.059 0.043-0.031 0.2 0.1 0.139c-0.003 0 0 0 0 0.1 c-0.021 0.02-0.035 0.015-0.034-0.017c-0.047 0.04-0.061 0.1 0 0.104c0.023-0.006 0.015-0.043 0.018-0.069h0.017 c0.062 0.1 0.3 0.1 0.4 0.138c0.041 0 0.126-0.021 0.1 0.018c-0.006 0-0.012 0-0.017 0 c0.002 0 0 0 0 0.013c0.009 0.033-0.003 0.1 0 0.074c0.113-0.002 0.405-0.002 0.5 0 c0.016-0.004 0 0 0 0.017c0.004-0.025-0.019-0.057 0.023-0.095c0.001 0 0.002-0.001 0.002-0.001 c0.003-0.002 0.006-0.004 0.009-0.007c0.013 0 0 0 0 0c0.012 0.046-0.035 0.035-0.035 0.1 c0.06 0 0.022-0.07 0.087-0.052c0.009 0 0 0 0 0.07c0.014-0.01 0.027-0.019 0.051-0.018 c-0.005-0.036-0.034-0.046-0.051-0.069c0.012-0.034 0.1 0 0.104-0.035c0.113-0.036 0.222-0.078 0.329-0.12 c0.001 0.076-0.002 0.148-0.053 0.172c-0.016 0.008-0.031 0.016-0.034 0.034c-0.062 0.004-0.076-0.073-0.174-0.034 c0.039 0.1 0.1 0.1 0.1 0.07c-0.008 0.063-0.127 0.104-0.105 0.138c-0.048 0.073-0.142 0.1-0.189 0.2 c-0.173 0.069-0.311 0.173-0.519 0.208c-0.093-0.006-0.166 0.008-0.225 0.035c0-0.053-0.046-0.061-0.053-0.104 c-0.03-0.004-0.037 0.02-0.068 0.016c0.025 0.1 0.021-0.002 0.1 0c0.002 0 0 0.1 0 0.1 c-0.005 0.019-0.035 0.012-0.035 0.036c-0.054 0.002-0.127-0.012-0.155 0.016c0.027 0.1 0.2 0.1 0.3 0.1 c0.006 0 0 0 0 0c0.062 0.1 0.2 0 0.3 0.07c-0.005 0.039-0.046 0.039-0.069 0 c0.013 0 0 0.084-0.018 0.069c0.062 0 0.088-0.04 0.156-0.052c-0.011-0.053-0.037 0.016-0.069 0 c0.003-0.014 0.017-0.018 0.017-0.035c0.209-0.015 0.5 0 0.658-0.018c0.013 0 0 0.1 0.1 0.1 c0.005 0.027-0.017 0.029-0.017 0.052c-0.026 0.065-0.112 0.072-0.139 0.137c-0.041 0.006-0.032 0.062-0.086 0.1 c-0.082 0.081-0.199 0.125-0.312 0.174c-0.006 0-0.012 0-0.018 0c-0.059-0.012-0.187 0.038-0.242 0.1 c-0.141 0.033-0.28 0.065-0.45 0.07c-0.022 0-0.045 0-0.068 0c-0.012-0.054-0.012-0.034 0-0.088 c0.042-0.006 0 0 0.1 0.018c-0.043-0.064-0.1-0.033-0.14-0.052c-0.038 0 0 0.026-0.017 0.1 c-0.044-0.068-0.064-0.016-0.069-0.086c-0.119-0.001-0.12 0.051-0.189 0.068c0 0 0 0.1 0 0 c0.039-0.004 0 0.1 0.1 0.053c-0.031-0.005-0.04 0.045-0.068 0.087c0.003-0.05-0.049-0.044-0.069-0.07 c0.054 0.061-0.064 0.1 0 0.156c0.037 0 0.008-0.062 0.018-0.086c0.028-0.006 0 0 0.1 0 c-0.026 0.039-0.059 0.137-0.035 0.173c-0.001 0 0 0.065-0.017 0.069c-0.03 0.011-0.08 0.15-0.086 0.2 c-0.021 0.032-0.022 0.081-0.035 0.121c-0.006 0-0.012 0-0.018 0c-0.023-0.047-0.071-0.058-0.068-0.087 c-0.027 0 0.1 0.142-0.035 0.173c0.013 0 0.053-0.038 0.087-0.034c0 0 0 0 0 0 c-0.052 0.048-0.072 0.124-0.087 0.208c-0.046 0.092-0.089 0.188-0.138 0.276c-0.036 0.005-0.036 0.046-0.053 0.1 c-0.11-0.066 0.085-0.15-0.017-0.19c-0.049 0.088-0.085 0.1 0 0.207c-0.011 0.081-0.09 0.096-0.087 0.2 c-0.045 0.071-0.079 0.152-0.138 0.208c-0.045 0.001-0.021-0.013-0.018-0.034c-0.031 0.021-0.092 0.013-0.104 0.1 c0.008 0 0.016-0.002 0 0c0 0.113-0.099-0.028-0.122-0.053c-0.049 0.1 0.1 0.1 0.1 0.2 c0.057-0.006 0.021-0.106 0.104-0.087c-0.002 0.014-0.018 0.018-0.018 0.034c-0.021 0.061-0.057 0.104-0.104 0.1 c-0.091 0.035-0.096 0.157-0.19 0.19c-0.05-0.011 0.026-0.028 0.018-0.053c-0.038-0.011-0.056 0.05-0.052-0.018 c-0.069 0.007-0.055 0.2 0 0.104c0.005 0 0 0 0 0c-0.059 0.148-0.2 0.215-0.277 0.3 c-0.016 0.029-0.038 0.054-0.069 0.069c0.021-0.023 0.022-0.065-0.018-0.069c-0.046 0.036-0.019 0.083-0.069 0.1 c0.003 0 0 0 0.1 0.018c-0.009 0.024-0.025 0.043-0.052 0.053c-0.06 0.02-0.102 0.06-0.12 0.1 c-0.03 0.017-0.035 0.057-0.069 0.069c-0.013-0.053 0.047-0.033 0.034-0.086c-0.065-0.017-0.071 0.062-0.116 0 c0.031 0.034-0.026 0.1 0 0.101c0 0 0 0 0 0.017c-0.072 0.027-0.126 0.071-0.155 0.139c-0.008 0-0.013 0-0.019 0 c-0.061-0.004-0.104 0.011-0.122 0.052c-0.023-0.004-0.006-0.052-0.033-0.052c-0.063 0 0 0 0 0.1 c0.04-0.005 0.031-0.061 0.086-0.051c-0.015 0.054-0.082 0.056-0.104 0.103c-0.071 0.085-0.203 0.109-0.277 0.2 c-0.021-0.022-0.007-0.026 0-0.052c-0.026 0.026-0.072 0.031-0.087 0.068c-0.043-0.024-0.051-0.086-0.138-0.068 c-0.018 0.1 0 0 0.1 0.034c-0.005 0.071-0.075 0.076-0.104 0.121c0.021 0 0.1 0 0.138-0.034 c0.015-0.003 0.018-0.018 0.034-0.018c-0.044 0.071-0.147 0.084-0.207 0.139c0.004-0.015-0.007-0.017-0.018-0.018 c-0.038-0.075-0.104-0.042-0.225-0.086c-0.001 0.1 0.1 0 0.1 0.104c-0.114-0.017-0.085 0.032-0.104 0.1 c-0.022-0.002-0.063 0.059-0.068 0.018c-0.024 0.034-0.036 0.081-0.087 0.087c-0.026 0-0.062-0.038-0.104-0.069 c-0.019 0.004-0.012 0.035-0.035 0.035c0.037 0.1 0.1 0 0.1 0.068c-0.011 0-0.022 0-0.034 0 c-0.015-0.013-0.069-0.016-0.12-0.034c0.044 0 0 0.1 0 0.104c-0.044-0.002-0.03 0 0 0 c-0.092 0.059-0.209 0.092-0.312 0.138c-0.022-0.058-0.107-0.054-0.138-0.104c-0.07 0.04-0.229-0.007-0.295 0 c0.104 0.1 0.287-0.012 0.4 0.068c-0.013 0.016-0.031 0.027-0.052 0.035c-0.097-0.012-0.219 0.061-0.294 0.1 c0.021-0.042 0.06-0.066 0.104-0.086c0.007-0.049-0.064 0.043-0.068-0.018c-0.021 0 0 0.039-0.035 0.1 c-0.023-0.012 0.015-0.052-0.035-0.069c-0.036 0 0 0.043-0.017 0.086c0.006 0 0.03-0.015 0 0 c-0.029 0.04-0.098 0.041-0.155 0.053c-0.067-0.056-0.115-0.022-0.086 0.034c-0.041 0.006-0.075 0.018-0.087 0.052h-0.018 c0.035-0.022 0.023-0.091 0.068-0.104c-0.004-0.052-0.063 0.069-0.086 0c-0.004 0.049-0.086 0.066-0.052 0.1 c-0.01 0.017-0.048 0.026-0.018 0.035c-0.105 0.009-0.169 0.062-0.277 0.069c0.015-0.041-0.091-0.074-0.068-0.018 c-0.026-0.018-0.04-0.047-0.017-0.069c-0.056-0.01-0.054 0.032-0.087 0c0.021 0.1 0.1 0.1 0.1 0.1 c-0.217 0.043-0.415 0.104-0.64 0.139c-0.02-0.015-0.046-0.023-0.086-0.018c0.151-0.064-0.262-0.101-0.363-0.051 c0.024 0 0.1 0 0.1 0.033c0.023-0.097 0.2 0 0.173-0.033c0.029 0.034-0.012 0.1 0 0.1 c-0.008 0.001-0.009 0.008-0.01 0.017c-0.14 0-0.208 0.069-0.364 0.053c0.021-0.022 0.008-0.027 0-0.053 c-0.091 0.005-0.103-0.019-0.172 0c0.053 0 0.1 0 0.1 0.035c0 0 0 0 0 0 c-0.085 0.023-0.202 0.017-0.312 0.018c0.005 0 0 0 0.1 0.017C12.116 18.2 12 18.1 12 18.152z M11.68 18.152c0.012 0 0 0 0 0c0.02-0.099-0.055-0.027-0.156-0.051C11.588 18.2 11.7 18.1 11.7 18.152z M10.75 15.558c-0.001 0-0.003 0.001-0.004 0.001C10.737 15.6 10.7 15.6 10.8 15.558z M11.8 18.1 c-0.019-0.021-0.014-0.035 0.019-0.034c-0.004-0.025-0.052-0.006-0.052-0.035c-0.035 0 0 0.053-0.035 0 c-0.048 0 0.1 0 0 0.068C11.768 18.2 11.8 18.1 11.8 18.136z M9.464 12.437c0.001-0.002 0.001-0.004 0.001-0.007 C9.465 12.4 9.5 12.4 9.5 12.437z M9.464 12.437c-0.013 0.042-0.111-0.002-0.103 0.1 c0.11-0.035 0.1 0.1 0.2 0.068c-0.064-0.023 0.052-0.002 0.035-0.033C9.51 12.5 9.5 12.5 9.5 12.437z M19.774 13.051c0.045-0.002 0.132-0.051 0.087-0.086c-0.011 0.109-0.116-0.002-0.14 0 C19.738 13 19.8 13 19.8 13.051z M19.705 12.186c-0.04-0.107 0.1 0 0.069-0.033 c-0.014-0.029-0.085-0.088-0.121-0.035c0.08 0.002-0.014 0.031-0.019 0.052C19.659 12.2 19.7 12.2 19.7 12.186z M19.688 13.138c0.037 0 0.055-0.014 0.052-0.052c-0.059 0-0.101-0.178-0.155-0.069 C19.625 13 19.7 13.1 19.7 13.138z M19.722 12.931c-0.128 0.01-0.39-0.021-0.433 0 C19.472 12.9 19.6 13 19.7 12.931z M19.584 12.29c-0.015-0.05 0.024-0.044 0.017-0.087 c-0.055 0.021-0.013-0.057-0.068-0.034c0.001 0.1 0 0.1 0 0.121C19.553 12.3 19.6 12.3 19.6 12.29z M19.532 13.138c0.068 0 0.046-0.044 0.034-0.087c-0.047-0.012-0.033 0.035-0.052 0.051c0.014 0 0 0 0 0 C19.538 13.1 19.5 13.1 19.5 13.138z M19.324 13.259c0.075-0.022 0.1 0 0.1 0 C19.439 13.2 19.3 13.2 19.3 13.259z M19.238 13.259c-0.063 0.001-0.138-0.01-0.156 0 C19.127 13.3 19.2 13.3 19.2 13.259z M19.134 12.549c0-0.096-0.18-0.016-0.189-0.104 c-0.053 0.052-0.168 0.041-0.242 0.069C18.828 12.5 19 12.5 19.1 12.549z M19.048 13.4 c-0.024-0.006-0.029-0.02-0.053 0C18.751 13.4 19 13.4 19 13.396z M19.014 12.913c0-0.022 0-0.046 0-0.069 c-0.063 0.023-0.164 0.01-0.19 0.069C18.886 12.9 18.9 12.9 19 12.913z M18.944 13.3 c-0.08 0.007-0.19-0.018-0.242 0.017C18.731 13.3 18.9 13.3 18.9 13.259z M18.754 12 c0.005 0 0 0.1 0.1 0.034c-0.021-0.007-0.036-0.021-0.035-0.051c-0.025 0.003-0.063-0.007-0.068 0 c0.022 0 0 0 0 0.034C18.74 12 18.7 12 18.8 12.013z M18.615 12.7 c-0.044-0.003-0.055 0.027-0.069 0.051c0.014 0 0 0 0 0.019c-0.037 0 0.1 0.1 0.1 0 C18.619 12.8 18.6 12.8 18.6 12.723z M18.562 12.913c-0.034 0.004-0.072-0.074-0.086-0.034 C18.492 12.9 18.5 13 18.6 12.913z M18.391 12.013c0.019 0 0.1 0.1 0.2 0 C18.532 12 18.4 12 18.4 12.013z M18.252 13.259c0.036-0.011 0.1 0 0.104-0.034c-0.034 0-0.068 0-0.104 0 C18.252 13.2 18.3 13.2 18.3 13.259z M18.2 13.691c0-0.012 0-0.023 0-0.035c-0.001-0.01-0.002-0.02-0.017-0.017 c-0.044 0 0.025-0.082-0.036-0.087C18.149 13.6 18.1 13.7 18.2 13.691z M18.2 13.362c0-0.022 0-0.046 0-0.069 c-0.017 0-0.034 0-0.053 0C18.144 13.3 18.1 13.4 18.2 13.362z M17.958 11.148c0.023-0.05 0-0.084-0.035-0.121 c-0.004 0.032-0.062 0.097-0.017 0.121C17.911 11.1 17.9 11.1 18 11.148z M17.94 14.4 c0.004-0.027 0.038-0.011 0.1 0c-0.067-0.1-0.019-0.253-0.052-0.311C17.87 14.1 17.9 14.3 17.9 14.365z M17.698 10.8 c-0.004-0.033 0.02-0.038 0.018-0.069c-0.022-0.001-0.023-0.022-0.052-0.017C17.637 10.7 17.6 10.8 17.7 10.75z M17.716 14.919c-0.071 0 0.017-0.061-0.052-0.017c0.08-0.099-0.048-0.198 0.034-0.294c-0.141 0.018-0.018 0.192-0.051 0.3 C17.679 14.9 17.7 15 17.7 14.919z M17.318 10.232c0.032 0.1 0.1 0.2 0.2 0.2 C17.458 10.3 17.4 10.3 17.3 10.232z M17.369 15.421c-0.089 0 0.048-0.071-0.016-0.087 c-0.008 0.021-0.022 0.035-0.054 0.035c0.025 0.069-0.036 0.055-0.033 0.104C17.324 15.5 17.3 15.4 17.4 15.421z M17.249 10.059c0.008-0.066-0.048-0.12-0.087-0.086C17.178 10 17.2 10 17.2 10.059z M17.18 10.1 c-0.023-0.005-0.033-0.025-0.068-0.017c0 0 0 0 0 0.052C17.15 10.2 17.2 10.2 17.2 10.146z M16.973 15.7 c0.071-0.003 0.1 0 0.139-0.017C17.075 15.7 17 15.7 17 15.749z M16.938 16 c-0.014-0.062 0.107-0.076 0.052-0.121c-0.009 0.03-0.019-0.008-0.034-0.019c-0.027 0.026-0.061 0.044-0.069 0.1 C16.957 15.9 16.9 16 16.9 15.975z M16.921 9.799c-0.029 0-0.059 0-0.088 0c0.041 0.098-0.076 0.04-0.069 0.1 C16.831 9.9 16.9 9.9 16.9 9.799z M16.695 16.025c0.074 0 0.146-0.091 0.068-0.121 C16.805 16 16.7 16 16.7 16.025z M16.661 16.25c-0.015-0.061 0.106-0.074 0.052-0.121 c-0.009 0.032-0.019-0.007-0.036-0.017c-0.025 0.024-0.059 0.044-0.068 0.087C16.68 16.2 16.6 16.2 16.7 16.25z M16.574 9.627c0.065-0.02 0.1 0 0.103-0.035C16.64 9.6 16.6 9.6 16.6 9.627z M16.523 9.6 c0.01 0 0.02-0.002 0.016-0.017c-0.057-0.006-0.159-0.057-0.189-0.035c0.087 0 0 0 0 0.1 c0.074-0.003 0.123-0.067 0.2 0C16.523 9.6 16.5 9.6 16.5 9.557z M16.314 9.471c0.007-0.064-0.106-0.115-0.12-0.052 C16.22 9.4 16.3 9.5 16.3 9.471z M16.194 9.557c0.021 0 0.1 0 0.087-0.017 C16.258 9.5 16.2 9.5 16.2 9.557z M16.09 16.58c-0.005 0.1 0.1 0.1 0.1 0 C16.143 16.6 16.1 16.6 16.1 16.58z M16.142 16.683c-0.013-0.004-0.02-0.015-0.018-0.034 C15.973 16.7 16.1 16.8 16.1 16.683z M15.987 16.597c0.006-0.039 0.1 0 0.086-0.052 c-0.021-0.015-0.047-0.023-0.086-0.018C16.01 16.6 15.9 16.6 16 16.597z M15.934 8.9 c-0.063-0.039-0.248 0.04-0.241 0.07C15.747 8.9 15.9 8.9 15.9 8.865z M15.865 9.2 c-0.042 0.011-0.126-0.021-0.139 0.017C15.771 9.3 15.8 9.3 15.9 9.229z M15.83 8.6 c-0.024 0.009-0.042-0.067-0.052-0.018c0.045 0.02-0.068 0.023-0.086 0.035c-0.004-0.013-0.001-0.034-0.018-0.035 C15.699 8.7 15.8 8.6 15.8 8.624z M15.571 9.299c0.024 0 0.1 0 0.138-0.018 C15.652 9.3 15.6 9.2 15.6 9.299z M15.381 16.89c0.133-0.028 0.2 0.1 0.3 0 C15.642 16.9 15.4 16.8 15.4 16.89z M15.501 9.315c-0.056 0.01-0.078-0.012-0.12-0.017 C15.383 9.3 15.5 9.4 15.5 9.315z M15.363 8.468c0.013-0.076-0.088-0.078-0.104-0.035 C15.312 8.4 15.3 8.5 15.4 8.468z M15.26 17.098c-0.028 0-0.057 0-0.087 0c0.001 0.024-0.008 0.039-0.017 0.1 C15.194 17.1 15.2 17.1 15.3 17.098z M15.035 17.133c0.011-0.001 0.02-0.003 0.017-0.018 c-0.021-0.024-0.074-0.018-0.12-0.018c0.004 0.1 0.1 0.1 0.1 0.069C15.035 17.2 15 17.1 15 17.133z M14.862 17.306c0.039-0.018 0.013-0.116-0.035-0.104C14.838 17.2 14.8 17.3 14.9 17.306z M14.794 17.4 c-0.007-0.03 0.024-0.045 0-0.053c-0.07 0.008-0.017 0.048-0.087 0C14.699 17.4 14.7 17.4 14.8 17.444z M14.689 8.6 c-0.02-0.065 0.017-0.078-0.035-0.104c0.014 0.062-0.107 0.076-0.052 0.121C14.614 8.6 14.6 8.7 14.7 8.64z M14.274 9.281c0-0.018 0-0.035 0-0.052c-0.04-0.004-0.065 0.004-0.069 0.035C14.228 9.3 14.2 9.3 14.3 9.281z M14.135 9.212c0.015-0.044 0.026-0.08-0.017-0.104c-0.016 0.025-0.025 0.055-0.068 0.052C14.047 9.2 14.1 9.2 14.1 9.212z M13.876 17.669c-0.013-0.004-0.02-0.015-0.017-0.035c-0.059 0.012-0.127 0.014-0.156 0.1 C13.732 17.7 13.8 17.7 13.9 17.669z M13.669 10.076c0.008-0.074 0.052-0.201 0.034-0.242 c-0.012 0.046-0.052 0.063-0.086 0.086C13.641 10 13.6 10.1 13.7 10.076z M13.721 17.8 C13.594 17.8 13.6 17.9 13.7 17.79L13.721 17.79z M13.409 10.37c0-0.03 0.004-0.053 0.018-0.069 c-0.024-0.004-0.028-0.028-0.053-0.034C13.361 10.3 13.3 10.4 13.4 10.37z M13.34 10.5 c-0.008 0.1 0 0.1 0.1 0.069C13.404 10.5 13.4 10.5 13.3 10.475z M13.288 10.7 c0.089 0 0.055-0.138-0.018-0.122C13.276 10.7 13.3 10.7 13.3 10.734z M13.167 10.9 c0.024-0.021 0.027-0.084-0.018-0.086C13.127 10.9 13.1 10.9 13.2 10.924z M13.149 18 c0-0.025 0.009-0.039 0.018-0.053c-0.043-0.034-0.104 0.02-0.121 0.018C13.076 18 13.1 18 13.1 17.98z M13.098 11.3 c0.048-0.074 0.044-0.277 0-0.312c0.003 0.032-0.018 0.042-0.052 0.036C13.104 11.1 13.1 11.2 13.1 11.287z M12.476 11.858c0.011-0.023 0.068-0.13 0.034-0.087c-0.026 0.001-0.014 0.043-0.051 0.035c-0.035-0.029-0.114-0.068-0.069-0.121 c-0.03-0.002-0.055 0.004-0.07 0.017C12.354 11.8 12.4 11.8 12.5 11.858z M12.112 11.5 c-0.005-0.045 0.067-0.014 0.053-0.069c-0.047 0.067-0.096-0.028-0.104 0.035C12.095 11.5 12.1 11.5 12.1 11.529z M12.112 11.46c0.003-0.043-0.027-0.054-0.034-0.086c0.029 0 0.043-0.014 0.052-0.035 C12.037 11.4 12 11.4 12.1 11.46z M11.94 18.049c0.041 0 0.1 0.1 0.12-0.017 C12.025 18 11.9 18 11.9 18.049z M11.991 17.928c-0.058 0.011-0.16-0.022-0.191 0 C11.859 17.9 12 18 12 17.928z M11.836 11.287c0.014-0.066-0.083-0.066-0.069 0 C11.814 11.3 11.8 11.3 11.8 11.287z M11.524 18.032c0.061-0.002 0.099-0.028 0.138-0.052 c-0.032-0.031-0.113-0.013-0.173-0.017C11.477 18 11.5 18 11.5 18.032z M11.559 11.2 c0.005-0.023 0.024-0.034 0.017-0.069c-0.022-0.006-0.032-0.026-0.068-0.018C11.504 11.2 11.5 11.2 11.6 11.235z M11.404 11.011c0.024-0.042 0.1 0 0.085-0.018c-0.035-0.021-0.069 0.009-0.034-0.052c-0.029 0.002-0.053-0.004-0.068-0.017 c0.006 0.03-0.026 0 0 0.051C11.428 10.9 11.4 11 11.4 11.011z M11.489 18 c-0.074 0.011-0.194-0.022-0.241 0.018C11.323 18.1 11.4 18.1 11.5 18.049z M11.264 18 c-0.062 0.01-0.177-0.029-0.188 0.033C11.161 18 11.2 18 11.3 17.964z M10.953 17.9 c-0.058 0.011-0.16-0.022-0.189 0.018C10.817 17.9 10.9 18 11 17.928z M10.798 10.7 c-0.054 0.01-0.131-0.005-0.138 0.052C10.737 10.7 10.8 10.7 10.8 10.682z M10.296 15 c0.087-0.01 0.275-0.072 0.4 0.017c-0.018-0.103-0.15-0.104-0.312-0.104C10.396 15 10.3 15 10.3 15.006z M10.417 14.33c0-0.011 0-0.022 0-0.034c-0.011-0.001-0.021-0.002-0.017-0.017c-0.012 0-0.023 0-0.035 0 c-0.001 0.01-0.002 0.021-0.017 0.017c0 0 0 0 0 0.034c0.011 0 0 0 0 0.018c0.012 0 0 0 0 0 C10.4 14.3 10.4 14.3 10.4 14.33z M10.192 18.049c0.125-0.03 0.273-0.038 0.347-0.121 C10.425 18 10.3 18 10.2 18.049z M10.417 14.158c-0.022-0.018-0.033-0.047-0.068-0.052 c0.004 0.083-0.181 0.071-0.156 0.189c0.028-0.064 0.049-0.003 0 0.018c0.024 0 0 0 0.1 0 C10.257 14.3 10.3 14.2 10.4 14.158z M10.365 15.87c0.07 0 0.055-0.071 0.018-0.086 C10.368 15.8 10.4 15.8 10.4 15.87z M10.313 10.439c0.021-0.001 0 0 0 0c-0.011 0-0.021-0.002-0.017-0.017 c0-0.017 0.013-0.021 0.017-0.035c-0.045 0.018-0.083-0.053-0.104 0c0.018 0 0 0 0.1 0.1 c-0.01 0-0.02 0 0 0.018C10.297 10.4 10.3 10.4 10.3 10.439z M10.383 13.847c-0.217 0.019-0.329-0.067-0.484 0 C10.063 13.9 10.2 13.9 10.4 13.847z M10.332 15.957c0.004-0.046-0.008-0.075-0.053-0.069 c-0.001 0.01-0.003 0.021-0.018 0.017C10.257 15.9 10.3 16 10.3 15.957z M10.262 17.9 c-0.07-0.007-0.089 0.039-0.138 0.053C10.174 18 10.2 18 10.3 17.928z M10.002 18 c0.025-0.011 0.1 0 0.087-0.019c-0.04-0.017-0.056-0.002-0.121-0.018c0.014 0.1 0 0.036-0.018 0.1 C10.026 18 10 18 10 17.964z M9.898 10.405c0.006-0.023 0.025-0.033 0.018-0.07 c-0.024-0.005-0.034-0.024-0.069-0.017C9.843 10.4 9.8 10.4 9.9 10.405z M9.709 16.2 c0.037-0.013 0.161-0.003 0.12-0.07c0 0 0 0 0 0.034C9.81 16.1 9.7 16.1 9.7 16.165z M9.691 12.6 c-0.018-0.089 0.1 0.1 0.121-0.052c-0.118-0.004-0.097-0.054-0.139 0.018c0.023-0.047-0.068-0.06-0.018-0.035 C9.658 12.6 9.7 12.6 9.7 12.618z M9.709 16.269c0.059 0 0.1 0 0.138-0.019 C9.814 16.2 9.7 16.2 9.7 16.269z M9.777 16.112c-0.017-0.032 0.052-0.058 0-0.069c-0.004 0.045-0.029-0.023-0.068 0 c0 0.024-0.008 0.038-0.018 0.052C9.745 16.1 9.7 16.1 9.8 16.112z M9.484 16.199c-0.006 0.1 0.2 0 0.2 0 C9.599 16.2 9.5 16.2 9.5 16.199z M9.605 10.024c-0.021 0.003-0.051-0.002-0.053 0 c-0.002 0.092-0.18 0.045-0.26 0.069C9.401 10.2 9.6 10.2 9.6 10.024z M9.397 12.947c0.035-0.011 0.1 0 0.104-0.034 c-0.035 0-0.069 0-0.104 0C9.397 12.9 9.4 12.9 9.4 12.947z M9.57 13.536c-0.082 0.021-0.144 0.062-0.209 0.1 c0.034 0 0 0 0.1 0.034C9.429 13.6 9.6 13.6 9.6 13.536z M9.432 13.536c0.009-0.078-0.08-0.046-0.104-0.018 C9.354 13.5 9.4 13.6 9.4 13.536z M9.38 12.861c-0.052-0.023-0.085-0.016-0.104 0 C9.326 12.9 9.4 12.9 9.4 12.861z M9.12 12.377c-0.008 0.1 0.2 0.1 0.1 0.053c-0.001 0.01-0.003 0.02-0.017 0 c-0.007-0.029 0.024-0.044 0-0.052C9.21 12.4 9.2 12.3 9.1 12.377z M9.189 13.275c0.008-0.053-0.015-0.076-0.069-0.068 c0 0 0 0 0 0.068C9.144 13.3 9.2 13.3 9.2 13.275z M9.189 17.687c-0.06 0.012-0.104-0.079-0.156-0.018 C9.101 17.7 9.1 17.8 9.2 17.687z M8.965 11.183c0.045 0 0.073-0.006 0.068-0.052 C9.005 11.1 9 11.1 9 11.183z M9.017 11.097c0.021-0.068-0.05-0.042-0.052-0.086c0.027-0.002 0.1 0 0.052-0.036 C8.968 11 9 11 8.9 10.993C8.947 11 9 11.1 9 11.097z M9.017 10.837c-0.029 0-0.058 0-0.087 0 c0 0.1 0.1 0.1 0.1 0.034C9.021 10.9 9 10.9 9 10.837z M9.017 12.152c-0.067 0.1-0.167-0.083-0.208 0 c0.117-0.018-0.045 0.1 0.1 0.086C8.865 12.2 9 12.3 9 12.152z M8.74 9.748C8.77 9.8 8.8 9.8 8.9 9.8 C8.807 9.8 8.8 9.8 8.8 9.748c0.01-0.001 0.021-0.003 0.017-0.018C8.771 9.7 8.7 9.7 8.7 9.748z M8.809 10.8 c0.021-0.068-0.08-0.092-0.087-0.035C8.756 10.8 8.8 10.9 8.8 10.837z M8.688 11.3 c-0.023 0.1 0.1 0 0.1 0.018C8.771 11.2 8.7 11.2 8.7 11.252z M8.74 16.476c-0.04-0.016-0.273-0.001-0.243 0.1 C8.555 16.5 8.7 16.5 8.7 16.476z M8.636 10.665c0-0.034 0-0.07 0-0.104c-0.034 0-0.069 0-0.104 0 c0.004 0.027-0.007 0.1 0 0.07c0.002-0.022 0.005-0.042 0.034-0.036c-0.046 0.1 0 0 0 0.1 c-0.01 0-0.02 0 0 0.017C8.604 10.7 8.6 10.7 8.6 10.665z M8.463 10.301c0.014-0.066-0.036-0.067-0.069-0.086 c0 0.018-0.014 0.021-0.017 0.036C8.407 10.3 8.4 10.3 8.5 10.301z M8.463 11.477c0-0.029 0-0.057 0-0.086 c-0.071-0.009-0.026 0.1-0.086 0.104c-0.027-0.013 0.004-0.085-0.052-0.069c0.006 0.1 0 0.1 0.1 0.1 C8.381 11.5 8.4 11.5 8.5 11.477z M8.463 10.491c-0.03 0.003-0.04-0.017-0.034-0.052 c-0.031-0.004-0.102 0.034-0.052 0.052c0.041-0.053 0 0 0 0.017c0.027-0.035 0 0 0 0.1 C8.48 10.6 8.5 10.5 8.5 10.491z M8.446 16.44c-0.074 0.02-0.226-0.04-0.243 0.035C8.276 16.5 8.4 16.5 8.4 16.4 z M8.169 9.627C8.201 9.6 8.3 9.7 8.3 9.592c-0.028 0-0.059 0-0.087 0C8.169 9.6 8.2 9.6 8.2 9.627z M8.256 10.181c-0.056 0.014-0.054-0.027-0.087-0.035c-0.035 0.08-0.027 0.1 0 0.1 C8.133 10.2 8.2 10.3 8.3 10.181z M8.186 17.254c0.003-0.03-0.017-0.041-0.051-0.034 c-0.007 0.071-0.07-0.019-0.104 0.051c0.03 0 0 0 0.1 0.053c0.006-0.036 0.034-0.047 0.052-0.069 c-0.01 0-0.02-0.014 0-0.018C8.17 17.2 8.2 17.3 8.2 17.254z M8.151 9.938c0.071 0 0.064-0.122 0.018-0.139 C8.143 9.8 8.2 9.9 8.2 9.938z M8.082 9.852C8.151 9.9 8 9.6 8 9.592C8.006 9.7 8.1 9.7 8.1 9.852z M8.064 16.476c-0.071 0.009-0.075-0.051-0.154-0.035C7.877 16.5 8 16.5 8.1 16.476z M7.841 16.4 c-0.001-0.023 0.007-0.038 0.017-0.051c-0.066-0.007-0.053-0.025-0.121-0.053C7.734 16.4 7.7 16.4 7.8 16.4 C7.782 16.4 7.8 16.4 7.8 16.44z M7.287 16.648c0-0.022 0-0.046 0-0.068c-0.057-0.006-0.083 0.021-0.086 0.1 C7.229 16.6 7.3 16.6 7.3 16.648z M6.82 16.233c0.03-0.011 0.1 0 0.103-0.018 c-0.054-0.008-0.071-0.054-0.138-0.051c0.002 0.028-0.056 0.1 0 0.104C6.807 16.3 6.8 16.2 6.8 16.233z M6.751 15.975c-0.018 0.002-0.035-0.075-0.053-0.018c0.042 0.034-0.001 0.034-0.018 0c0 0.021-0.021 0.023-0.016 0.1 c0.016 0 0 0 0 0.017C6.693 16 6.7 16 6.8 15.975z M6.543 15.975c0.018-0.062 0.1 0 0.087-0.035 c-0.021-0.009-0.04-0.019-0.052-0.035c-0.002-0.02 0.024-0.026 0-0.034c-0.043 0.085-0.091 0.003-0.138 0 c0.016 0 0.1 0 0.1 0.053c0.057 0 0.013-0.057 0.069-0.035c-0.016 0.031-0.049 0.044-0.034 0.1 c0.025-0.003 0.1 0 0.068-0.017C6.575 16 6.6 16 6.5 15.975z M6.231 15.801c0.051 0 0.113-0.046 0.069-0.068 c0.013 0.047-0.081-0.014-0.069 0.034c-0.029 0.001-0.054-0.004-0.069-0.018c-0.002 0.1 0.1 0.1 0.1 0.1 c-0.035-0.01-0.036-0.027-0.018-0.052C6.253 15.8 6.2 15.8 6.2 15.801z"/><path d="M19.93 12.965c0.014-0.004 0.017-0.018 0.034-0.018c-0.041 0.068-0.111 0.107-0.173 0.2 C19.817 13 19.9 13 19.9 12.965z"/><path d="M19.93 12.013c0.002 0.043-0.027 0.054-0.034 0.086c-0.058 0.029-0.082 0.092-0.14 0.1 c-0.021-0.034 0.098-0.074 0.105-0.138c0.015-0.008 0.03-0.016 0.034-0.036C19.898 12 19.9 12 19.9 12.013z"/><path d="M19.722 12.013c0.098-0.039 0.1 0 0.2 0.034c-0.004 0.02-0.02 0.028-0.034 0 C19.823 12.1 19.8 12.1 19.7 12.013z"/><path d="M19.22 12.844c0 0.018-0.014 0.021-0.017 0.035c0.032 0 0.059-0.053 0.1 0 c-0.068 0.012-0.094 0.074-0.156 0.052c0.061 0 0.03-0.058 0.018-0.069c0.023 0 0.1 0 0.069-0.018 c-0.09-0.032-0.232-0.011-0.295-0.07c0.268 0.1 0.6 0.1 0.9 0.053c0.017 0 0 0 0.1 0 C19.754 12.9 19.4 12.8 19.2 12.844z"/><path d="M19.861 12.965c0.045 0.035-0.042 0.084-0.087 0.086c0.012-0.046-0.036-0.033-0.053-0.053 C19.745 13 19.9 13.1 19.9 12.965z"/><path d="M19.756 12.221c0.058-0.029 0.082-0.092 0.14-0.121c-0.096 0.113-0.197 0.219-0.329 0.3 C19.614 12.3 19.7 12.3 19.8 12.221z"/><path d="M19.774 12.152c0.052 0.05-0.109-0.074-0.069 0.033c-0.036 0.008-0.046-0.011-0.07-0.017 c0.005-0.021 0.099-0.05 0.019-0.052C19.689 12.1 19.8 12.1 19.8 12.152z"/><path d="M19.739 13.086c0.003 0.038-0.015 0.055-0.052 0.052c0.037-0.056-0.062-0.091-0.104-0.121 C19.639 12.9 19.7 13.1 19.7 13.086z"/><path d="M19.289 12.947c0.043-0.038 0.305-0.007 0.433-0.017C19.622 13 19.5 12.9 19.3 12.947z"/><path d="M19.653 11.961c-0.008 0.04-0.092 0.001-0.104 0.035c-0.03 0-0.059 0-0.087 0c-0.012 0-0.022 0-0.035 0 c-0.003 0.002-0.006 0.004-0.009 0.007c0 0-0.001 0.001-0.002 0.001c-0.04 0.029-0.066 0.001-0.11 0.026c0 0-0.011 0-0.018 0 c-0.114 0-0.229 0-0.345 0h-0.018c-0.036-0.034-0.07 0.013-0.096-0.022c-0.002-0.006-0.004-0.01-0.008-0.013 c0.005 0 0 0 0 0C19.123 12 19.4 12 19.7 11.961z"/><path d="M19.601 12.203c0.008 0.043-0.031 0.037-0.017 0.087c-0.016-0.011-0.031-0.021-0.034 0 c-0.017-0.014-0.017-0.056-0.018-0.121C19.588 12.1 19.5 12.2 19.6 12.203z"/><path d="M19.601 12.065c-0.023-0.001-0.037 0.008-0.051 0.018c-0.011-0.026-0.026-0.044-0.035-0.07 c-0.064-0.018-0.027 0.065-0.087 0.052c0-0.035 0.047-0.023 0.035-0.069c0.028 0 0.1 0 0.1 0 C19.566 12 19.6 12 19.6 12.065z"/><path d="M19.566 13.051c0.012 0 0 0.09-0.034 0.087c-0.004-0.015 0.006-0.017 0.018-0.018 c-0.001-0.017-0.021-0.013-0.035-0.019C19.533 13.1 19.5 13 19.6 13.051z"/><path d="M19.688 13.154c-0.052 0.041-0.111 0.074-0.173 0.104C19.56 13.2 19.6 13.2 19.7 13.154z"/><path d="M19.446 13.259c-0.026 0.015-0.047-0.022-0.122 0C19.319 13.2 19.4 13.2 19.4 13.259z"/><path d="M19.428 11.996c-0.003 0.002-0.006 0.005-0.009 0.007C19.422 12 19.4 12 19.4 11.996z"/><path d="M19.417 12.004c-0.042 0.038-0.02 0.07-0.023 0.095c-0.001-0.011-0.002-0.021-0.018-0.017 c-0.009-0.015-0.018-0.028-0.017-0.052c-0.047-0.005-0.084 0.069-0.053 0C19.351 12 19.4 12 19.4 12.004z"/><path d="M19.134 13.414c0.056-0.048 0.184-0.098 0.242-0.086C19.314 13.4 19.2 13.4 19.1 13.414z"/><path d="M19.359 12.031c-0.001 0 0 0 0 0.052c-0.113-0.002-0.405-0.002-0.519 0 c0.001-0.109 0.1 0 0.069-0.052h0.018c0.028 0 0.3 0 0.3 0c0.007 0 0 0 0 0 C19.275 12.1 19.3 12 19.4 12.031z"/><path d="M18.944 12.031c0.115 0 0.2 0 0.3 0C19.262 12.1 19 12.1 18.9 12.031z"/><path d="M19.082 13.293c0.019-0.044 0.093-0.033 0.156-0.034C19.225 13.3 19.1 13.3 19.1 13.293z"/><path d="M18.944 12.445c0.01 0.1 0.2 0 0.2 0.104c-0.141-0.05-0.306-0.045-0.432-0.034 C18.776 12.5 18.9 12.5 18.9 12.445z"/><path d="M18.823 12.637c0.059-0.027 0.132-0.041 0.225-0.035c-0.074 0.024-0.14 0.057-0.242 0.1 C18.803 12.6 18.8 12.6 18.8 12.637z"/><path d="M18.995 13.396c0.023-0.02 0.028-0.006 0.1 0C19.029 13.4 18.8 13.4 19 13.396z"/><path d="M19.014 12.844c0 0 0 0 0 0.069c-0.064 0-0.128 0-0.19 0 C18.85 12.9 18.9 12.9 19 12.844z"/><path d="M18.927 12.031c0.047 0.078-0.068-0.057-0.069 0.052c-0.029 0.034-0.018-0.042-0.026-0.074 C18.856 12 18.9 12 18.9 12.031z"/><path d="M18.702 13.275c0.052-0.034 0.162-0.01 0.242-0.017C18.906 13.3 18.7 13.3 18.7 13.275z"/><path d="M18.892 12.773c-0.059-0.002-0.249 0.014-0.276-0.104c0.028-0.027 0.102-0.014 0.155-0.016 c0.012 0 0 0 0 0c-0.02 0.038-0.108 0.006-0.155 0.016C18.674 12.8 18.8 12.7 18.9 12.773z"/><path d="M18.831 12.009c-0.003-0.003-0.006-0.007-0.008-0.013C18.827 12 18.8 12 18.8 12.009z"/><path d="M18.823 12.637c-0.011 0-0.021 0.002-0.018 0.018c-0.012 0-0.023 0-0.035 0 c0-0.024 0.03-0.018 0.035-0.036c-0.023-0.011-0.033-0.036-0.035-0.069c-0.048-0.002-0.043 0.068-0.068 0 c0.031 0 0.038-0.02 0.068-0.016C18.777 12.6 18.8 12.6 18.8 12.637z"/><path d="M18.806 12.047c-0.018 0.053-0.047-0.019-0.052-0.034c-0.017 0.001-0.014 0.021-0.018 0 c-0.019-0.004-0.012-0.034-0.034-0.034c0.005-0.024 0.043-0.014 0.068-0.017C18.77 12 18.8 12 18.8 12.047z"/><path d="M18.702 13.414c-0.05 0.015-0.045-0.023-0.087-0.018c-0.012 0.054-0.012 0 0 0.1 c-0.022 0-0.046 0-0.069 0c0.002-0.044-0.026-0.055-0.034-0.088c-0.072-0.008-0.096 0.032-0.14 0.1 c-0.031-0.002-0.012-0.057-0.051-0.053c0.013 0.058-0.034 0.027-0.034 0c0.069-0.018 0.07-0.069 0.189-0.068 c0.005 0.1 0 0 0.1 0.086c0.038-0.025-0.021-0.042 0.017-0.052C18.603 13.4 18.7 13.3 18.7 13.414z"/><path d="M18.615 13.484c0.023 0 0 0 0.1 0c-0.085 0.05-0.211-0.009-0.312 0 c-0.07 0.044-0.049 0.18-0.104 0.241c-0.023-0.036 0.009-0.134 0.035-0.173c0-0.005 0-0.011 0-0.017 c0.028-0.042 0.037-0.092 0.068-0.087c0.044-0.021 0.067-0.061 0.14-0.053c0.008 0 0 0 0 0.1 C18.569 13.5 18.6 13.5 18.6 13.484z"/><path d="M18.702 11.979c-0.173 0.013-0.371 0.004-0.434-0.138c0-0.006 0-0.012 0-0.018 c0.031-0.007-0.003-0.021 0-0.051c-0.003-0.021 0.005-0.031 0.019-0.035C18.279 12 18.5 11.9 18.7 11.979z"/><path d="M18.546 12.773c0.015-0.023 0.025-0.054 0.069-0.051c-0.004 0 0 0.1 0 0.1 c-0.006 0.052-0.107 0.028-0.07 0C18.58 12.8 18.6 12.8 18.5 12.773z"/><path d="M18.477 12.879c0.014-0.04 0.1 0 0.1 0.034C18.536 13 18.5 12.9 18.5 12.879z"/><path d="M18.562 12.031c-0.035 0.04-0.153 0.017-0.172-0.018C18.396 12 18.5 12 18.6 12.031z"/><path d="M18.355 13.225c0.017 0.062-0.067 0.023-0.104 0.034c0-0.012 0-0.022 0-0.034 C18.287 13.2 18.3 13.2 18.4 13.225z"/><path d="M18.234 13.466c0.021 0 0.1 0 0.1 0.07c0 0 0 0 0 0 c-0.021-0.001-0.023-0.022-0.052-0.017c-0.01 0 0 0.089-0.018 0.086C18.17 13.6 18.3 13.5 18.2 13.466z"/><path d="M18.269 11.823c0 0 0 0 0 0.018h-0.017c-0.003 0 0 0.063-0.018 0.1 c-0.061-0.03-0.047-0.064 0-0.104C18.233 11.8 18.2 11.8 18.3 11.823z"/><path d="M18.287 11.736c-0.014 0.004-0.021 0.015-0.019 0.035c-0.083 0.061-0.11-0.096-0.052-0.139 c-0.058 0.006-0.069-0.174 0.018-0.086C18.227 11.6 18.3 11.7 18.3 11.736z"/><path d="M18.252 13.795c-0.021 0.088-0.042 0.177-0.086 0.242C18.172 13.9 18.2 13.8 18.3 13.795z"/><path d="M18.2 13.656c0 0 0 0 0 0.035c-0.064 0-0.051-0.077-0.053-0.139 c0.062 0.005-0.008 0.1 0 0.087C18.198 13.6 18.2 13.6 18.2 13.656z"/><path d="M18.2 13.293c0 0 0 0 0 0.069c-0.059 0.019-0.057-0.024-0.053-0.069 C18.166 13.3 18.2 13.3 18.2 13.293z"/><path d="M18.113 14.158c0.002 0 0 0.049-0.017 0.052c-0.034-0.004-0.074 0.073-0.087 0 c0.093-0.031 0.008-0.131 0.035-0.173C18.042 14.1 18.1 14.1 18.1 14.158z"/><path d="M18.097 11.2c-0.027 0.005-0.074-0.121-0.087-0.189C18.057 11.1 18.1 11.1 18.1 11.2z"/><path d="M18.097 14.227c-0.023 0.076-0.044 0.153-0.087 0.208C18.024 14.4 18 14.3 18.1 14.227z"/><path d="M17.923 11.027c0.035 0 0.1 0.1 0 0.121c-0.015-0.012-0.047-0.027-0.052 0 C17.861 11.1 17.9 11.1 17.9 11.027z"/><path d="M17.992 14.365c-0.014-0.011-0.048-0.027-0.052 0c0.002-0.076-0.07-0.217 0-0.311 C17.974 14.1 17.9 14.3 18 14.365z"/><path d="M17.992 10.958c-0.06-0.085-0.107-0.182-0.173-0.259c0.021-0.022 0.007-0.028 0-0.052 C17.896 10.7 17.9 10.8 18 10.958z"/><path d="M17.819 14.781c0.017-0.024 0.017-0.065 0.053-0.07c-0.038 0.107-0.087 0.203-0.156 0.3 c-0.003-0.094 0.076-0.108 0.087-0.189C17.816 14.8 17.8 14.8 17.8 14.781z"/><path d="M17.819 10.647c0.007 0 0 0 0 0.052c-0.017 0-0.021 0.014-0.034 0 c-0.023-0.069-0.062-0.124-0.104-0.172c0.055-0.02 0.046-0.008 0.1 0.017C17.76 10.6 17.8 10.6 17.8 10.647z"/><path d="M17.803 14.591c0.102 0.04-0.094 0.1 0 0.19c-0.001 0.01-0.003 0.02-0.017 0 C17.718 14.7 17.8 14.7 17.8 14.591z"/><path d="M17.716 10.682c0.002 0.031-0.021 0.036-0.018 0.069c-0.06 0.013-0.062-0.06-0.034-0.086 C17.692 10.7 17.7 10.7 17.7 10.682z"/><path d="M17.664 14.902c0.068-0.044-0.02 0 0.1 0.017c-0.012 0.052-0.037-0.017-0.068 0 c0.033-0.118-0.09-0.293 0.051-0.311C17.616 14.7 17.7 14.8 17.7 14.902z"/><path d="M17.716 10.475c-0.054-0.015-0.049-0.09-0.104-0.104c-0.024-0.079-0.097-0.11-0.12-0.189 C17.579 10.3 17.6 10.4 17.7 10.475z"/><path d="M17.561 15.161c-0.004 0.021-0.027 0 0 0.034c0 0.053-0.017 0.088-0.053 0.1 c0-0.017 0.016-0.021 0.018-0.034c-0.002-0.02 0.004-0.03 0.018-0.034c-0.005-0.016-0.065-0.059-0.069-0.017 c-0.02-0.002-0.027 0.024-0.035 0C17.469 15.2 17.5 15.2 17.6 15.161z"/><path d="M17.491 10.181c0.023 0.1 0.1 0.1 0.1 0.189c-0.082-0.085-0.146-0.188-0.225-0.276 c0.041 0 0 0.1 0.1 0.069C17.471 10.2 17.5 10.2 17.5 10.181z"/><path d="M17.561 15.23c-0.014 0.004-0.02 0.015-0.018 0.034c-0.083-0.02-0.047 0.081-0.104 0.1 c0.028-0.042-0.119-0.129-0.07-0.19c0.023 0 0.1 0.2 0.1 0.053C17.495 15.2 17.6 15.2 17.6 15.23z"/><path d="M17.491 10.388c-0.073 0.032-0.141-0.089-0.173-0.156C17.382 10.3 17.5 10.3 17.5 10.388z"/><path d="M17.474 10.163c-0.039-0.012-0.046-0.057-0.087-0.069c-0.003-0.02-0.019-0.028-0.033-0.036 c-0.046-0.082-0.126-0.128-0.191-0.19c-0.014-0.003-0.018-0.017-0.034-0.017c-0.043-0.049-0.089-0.095-0.155-0.121 c-0.001-0.011-0.003-0.02-0.018-0.017c-0.12-0.123-0.29-0.194-0.449-0.277c-0.138-0.058-0.272-0.12-0.433-0.156 c-0.006 0-0.012 0-0.018 0c-0.036-0.045-0.138-0.024-0.173-0.069C16.583 9.4 17.1 9.7 17.5 10.163z"/><path d="M17.422 15.438c-0.011 0.063-0.061 0.089-0.086 0.138c-0.04 0.012-0.047 0.058-0.087 0.1 c-0.015 0.003-0.016-0.007-0.018-0.017C17.326 15.6 17.3 15.5 17.4 15.438z"/><path d="M17.354 15.334c0.063 0.016-0.073 0.1 0 0.087c-0.037 0.014-0.045 0.057-0.103 0.1 c-0.003-0.049 0.059-0.034 0.033-0.104C17.331 15.4 17.3 15.4 17.4 15.334z"/><path d="M17.249 15.646c0.04-0.012 0.047-0.058 0.087-0.069c-0.054 0.058-0.087 0.132-0.156 0.2 c0.012-0.04 0.058-0.047 0.069-0.086C17.249 15.7 17.2 15.7 17.2 15.646z"/><path d="M17.162 9.868c0.065 0.1 0.1 0.1 0.2 0.19c-0.069-0.053-0.124-0.118-0.191-0.172 C17.162 9.9 17.2 9.9 17.2 9.868z"/><path d="M17.162 9.973c0.039-0.034 0.1 0 0.1 0.086C17.207 10 17.2 10 17.2 9.973z"/><path d="M17.249 15.576c0.009 0.024-0.067 0.042-0.018 0.053c0.002 0 0 0 0 0 c0 0 0 0 0 0.018c-0.012 0-0.022 0-0.034 0c-0.006 0-0.013 0-0.018 0c-0.055 0.05-0.069-0.098 0-0.104 C17.193 15.6 17.2 15.6 17.2 15.576z"/><path d="M17.215 15.663c0.012 0 0 0 0 0c-0.012 0.039-0.058 0.046-0.069 0.1 c-0.048 0.09-0.116 0.161-0.19 0.226c-0.024 0.004-0.029 0.027-0.052 0.034C17.015 15.9 17.2 15.8 17.2 15.663z"/><path d="M17.162 9.868c0 0 0 0 0 0.018c-0.022 0.023-0.035 0.005-0.087 0c0-0.018 0-0.035 0-0.052 c0.024 0 0 0 0.1 0.018C17.145 9.9 17.1 9.9 17.2 9.868z"/><path d="M17.111 10.128c0.035-0.008 0 0 0.1 0.017c-0.004 0.03-0.029 0.039-0.068 0 C17.111 10.2 17.1 10.1 17.1 10.128z"/><path d="M17.128 9.852c-0.014-0.01-0.028-0.018-0.053-0.018c-0.014-0.053-0.081-0.056-0.103-0.104 C17.039 9.8 17.1 9.8 17.1 9.852z"/><path d="M17.111 15.732c-0.044 0.047-0.067 0.014-0.139 0.017C16.99 15.7 17.1 15.7 17.1 15.732z"/><path d="M16.989 15.854c0.056 0.045-0.065 0.059-0.052 0.121c-0.068-0.006 0.02-0.061-0.052-0.053 c0.009-0.043 0.042-0.061 0.069-0.087C16.971 15.8 17 15.9 17 15.854z"/><path d="M16.955 9.713c-0.004 0 0 0 0 0.069c-0.064 0.017-0.09-0.066-0.035-0.069 C16.943 9.7 17 9.7 17 9.713z"/><path d="M16.938 16.009c0.022-0.007 0.027-0.03 0.052-0.034c-0.079 0.094-0.166 0.179-0.259 0.3 c0.005-0.035 0.046-0.034 0.051-0.068c0.026-0.01 0.043-0.028 0.052-0.053c0.016-0.008 0.031-0.015 0.035-0.034 C16.899 16.1 16.9 16 16.9 16.009z"/><path d="M16.955 9.713c0 0-0.012 0-0.018 0c-0.122-0.115-0.303-0.17-0.432-0.277 C16.665 9.5 16.8 9.6 17 9.713z"/><path d="M16.833 9.799c0.029 0 0.1 0 0.1 0c-0.021 0.066-0.09 0.083-0.157 0.1 C16.757 9.8 16.9 9.9 16.8 9.799z"/><path d="M16.851 16.009c0.04 0 0 0 0 0.069c-0.004 0.02-0.02 0.026-0.035 0 c-0.02-0.003-0.049 0.003-0.052-0.018C16.832 16.1 16.8 16 16.9 16.009z"/><path d="M16.764 15.904c0.077 0 0 0.135-0.068 0.121C16.701 16 16.8 16 16.8 15.904z"/><path d="M16.781 16.165c-0.005 0.034-0.046 0.033-0.051 0.068c-0.016 0.024-0.026 0.055-0.069 0.1 C16.68 16.2 16.7 16.2 16.8 16.165z"/><path d="M16.713 16.129c0.055 0.047-0.066 0.061-0.052 0.121c-0.068-0.005 0.019-0.06-0.053-0.051 c0.01-0.043 0.043-0.062 0.068-0.087C16.694 16.1 16.7 16.2 16.7 16.129z"/><path d="M16.677 9.592c-0.023 0.05-0.037 0.015-0.103 0.035C16.583 9.6 16.6 9.6 16.7 9.592z"/><path d="M16.574 16.354c-0.025 0.004-0.029 0.028-0.051 0.035c-0.04-0.035 0.018-0.066-0.014-0.101 c0.045 0 0.051-0.037 0.116-0.021c0.013 0.053-0.047 0.033-0.034 0.086c-0.053 0.08-0.14 0.126-0.208 0.2 C16.427 16.5 16.5 16.4 16.6 16.354z"/><path d="M16.539 9.54c0.004 0.015-0.006 0.017-0.016 0.017c0 0 0 0 0 0 c-0.051-0.067-0.1-0.003-0.174 0c0.014-0.056 0.087-0.059 0-0.087C16.38 9.5 16.5 9.5 16.5 9.54z"/><path d="M16.51 16.289c-0.001-0.001-0.003-0.003-0.004-0.004C16.508 16.3 16.5 16.3 16.5 16.289z"/><path d="M16.056 8.468c0.122-0.069 0.406-0.05 0.4 0.121c-0.01-0.001-0.02-0.003-0.016-0.018 c-0.024-0.091-0.112-0.118-0.225-0.12C16.141 8.4 16.1 8.5 16.1 8.468z"/><path d="M16.452 8.589c-0.01 0 0 0.113-0.016 0.121c0-0.006 0-0.012 0-0.018 c-0.056-0.015-0.036 0.045-0.068 0.052c-0.008 0-0.013 0-0.019 0c-0.037 0.059-0.062-0.147 0-0.139 c0.002 0.028-0.002 0.1 0 0.052c-0.002-0.043 0.027-0.053 0.035-0.086c0.006 0 0 0 0 0 C16.433 8.6 16.4 8.6 16.5 8.589z"/><path d="M16.437 8.71c0 0 0 0 0 0.017c-0.046 0.019-0.059 0.069-0.104 0.1 c0-0.034 0.048-0.021 0.036-0.069c0.032-0.007 0.013-0.067 0.068-0.052C16.437 8.7 16.4 8.7 16.4 8.71z"/><path d="M16.437 8.571c-0.006 0-0.012 0-0.018 0c0.003-0.043-0.039-0.042-0.051-0.069 c-0.017-0.014-0.041-0.019-0.07-0.017c0.008-0.048-0.094 0.013-0.086-0.034C16.324 8.5 16.4 8.5 16.4 8.571z"/><path d="M16.332 8.813c0.046-0.018 0.059-0.068 0.104-0.086c-0.146 0.177-0.386 0.261-0.641 0.3 c0.015-0.038 0.089-0.015 0.104-0.052c0.088-0.006 0.137-0.048 0.208-0.069c0.066-0.044 0.161-0.058 0.207-0.122H16.332z"/><path d="M16.35 16.545c0.006 0 0 0 0 0c-0.048 0.057-0.106 0.101-0.174 0.1 c0.021-0.047 0.089-0.049 0.104-0.103C16.327 16.6 16.3 16.6 16.4 16.545z"/><path d="M16.368 8.502c-0.025 0.022-0.01 0.084-0.054 0.086c0.027-0.057-0.081-0.065-0.017-0.104 C16.327 8.5 16.4 8.5 16.4 8.502z"/><path d="M16.228 16.597c0.018-0.041 0.062-0.056 0.122-0.052c-0.007 0.021-0.022 0.035-0.052 0 c-0.055-0.01-0.046 0.046-0.086 0.051c0.012-0.038-0.081-0.056-0.018-0.086C16.222 16.5 16.2 16.6 16.2 16.597z"/><path d="M16.194 9.419c0.014-0.063 0.127-0.012 0.1 0.052C16.256 9.5 16.2 9.4 16.2 9.419z"/><path d="M16.314 8.813c-0.017 0-0.02 0.014-0.033 0.017c-0.004-0.013-0.015-0.02-0.036-0.017 c0.054-0.07-0.059-0.093-0.033-0.19C16.271 8.7 16.3 8.8 16.3 8.813z"/><path d="M16.281 8.831c0.014-0.003 0.017-0.017 0.033-0.017c-0.046 0.063-0.141 0.077-0.207 0.1 c0-0.006 0-0.012 0-0.018c0.015 0 0.016-0.006 0.017-0.017C16.189 8.9 16.2 8.9 16.3 8.831z"/><path d="M16.281 9.54c-0.002 0.043-0.065 0.041-0.087 0.017C16.196 9.5 16.3 9.5 16.3 9.54z"/><path d="M16.177 16.614c-0.007 0.058-0.092 0.02-0.087-0.034C16.133 16.6 16.1 16.6 16.2 16.614z"/><path d="M16.124 16.648c-0.002 0 0 0 0 0.034C16.082 16.8 16 16.7 16.1 16.648z"/><path d="M16.124 8.9c-0.001 0.011-0.002 0.02-0.017 0.017c-0.025-0.003-0.064 0.007-0.069-0.017 c0.048-0.048-0.025-0.017-0.035-0.052c0.049-0.026 0.132-0.019 0.156-0.069C16.148 8.9 16.1 8.8 16.1 8.9z"/><path d="M16.073 9.281c0 0 0 0 0 0.035c-0.066-0.009-0.11 0.005-0.138 0 c0.021-0.03 0.035-0.068 0.086-0.069C16.062 9.3 16.1 9.3 16.1 9.281z"/><path d="M16.073 16.545c0.008 0.055-0.08 0.013-0.086 0.052c-0.046-0.004 0.022-0.03 0-0.069 C16.026 16.5 16.1 16.5 16.1 16.545z"/><path d="M15.727 8.537c0.095-0.031 0.182-0.072 0.312-0.069c-0.001 0.011-0.003 0.021-0.018 0 C15.896 8.5 15.8 8.5 15.7 8.537z"/><path d="M15.727 8.537c0.119 0 0.17-0.061 0.294-0.051c-0.141 0.026-0.24 0.105-0.362 0.1 c-0.018-0.081 0.027-0.099 0.051-0.138c0.015 0 0.017-0.007 0.018-0.018c0.011-0.001 0.021-0.003 0.019-0.018 c0-0.005 0-0.011 0-0.017c0.06-0.053 0.038-0.161-0.053-0.156c0.025-0.003 0.1 0 0.069-0.018c0.017 0 0 0 0.1 0 C15.854 8.4 15.7 8.4 15.7 8.537z"/><path d="M15.917 16.873c0 0 0 0 0 0.017c-0.053-0.013-0.033 0.049-0.087 0 c-0.017 0-0.02 0.015-0.034 0.018c0.008-0.021 0.021-0.035 0.053-0.034c0.003-0.016-0.007-0.018-0.019-0.019 c0.015-0.037 0.061-0.042 0.087-0.068C15.91 16.8 15.9 16.9 15.9 16.873z"/><path d="M15.692 8.935c-0.007-0.031 0.178-0.109 0.241-0.07C15.906 8.9 15.7 8.9 15.7 8.935z"/><path d="M15.813 9.021c0.042 0 0.038-0.031 0.086-0.018c-0.015 0.038-0.089 0.015-0.104 0.052h-0.018 c-0.041-0.007-0.037 0.032-0.086 0.017c0-0.028 0.049-0.01 0.053-0.034C15.78 9 15.8 9 15.8 9.021z"/><path d="M15.865 9.212c-0.029 0-0.058 0-0.087 0c-0.056-0.043-0.195-0.001-0.225-0.069 C15.646 9.2 15.8 9.2 15.9 9.212z"/><path d="M15.83 16.89c0.012 0 0 0 0 0.019c-0.031-0.001-0.045 0.013-0.053 0 c-0.048 0.037-0.117 0.034-0.138 0.034c0.028-0.045 0.099-0.05 0.104-0.121c-0.031-0.004-0.087 0.018-0.069-0.034 C15.779 16.8 15.8 16.9 15.8 16.89z"/><path d="M15.727 9.246c0.013-0.039 0.097-0.006 0.139-0.017C15.844 9.3 15.8 9.3 15.7 9.246z"/><path d="M15.778 8.605c0.01-0.049 0 0 0.1 0.018c-0.038 0.024-0.131 0.085-0.155-0.018 c0.017 0 0 0 0 0.035C15.71 8.6 15.8 8.6 15.8 8.605z"/><path d="M15.709 9.021c0.028-0.04 0.132-0.068 0.1 0c-0.023 0.005-0.033 0.024-0.068 0 C15.741 9 15.7 9 15.7 9.021z"/><path d="M15.692 9.073c0.049 0 0.045-0.023 0.086-0.017c-0.05 0.047-0.145 0.05-0.225 0.1 c0.001-0.011 0.003-0.021 0.018-0.018C15.61 9.1 15.7 9.1 15.7 9.073z"/><path d="M15.778 9.212c-0.1 0.007-0.165-0.02-0.241-0.035c-0.024 0-0.047 0-0.069 0 c-0.001-0.023-0.03-0.016-0.035-0.034c0.053 0 0.118-0.066 0.139-0.036c-0.015-0.003-0.017 0.007-0.018 0 c0 0 0 0 0 0.018C15.583 9.2 15.7 9.2 15.8 9.212z"/><path d="M15.745 8.399c0 0 0 0 0 0.017c-0.066-0.063-0.078-0.1-0.129-0.047 c0.015-0.03-0.062-0.055 0.007-0.073c-0.003 0 0.1 0 0.1 0.017C15.747 8.3 15.7 8.4 15.7 8.399z"/><path d="M15.762 8.225c-0.005 0.024-0.044 0.015-0.069 0.018c0 0-0.012 0-0.018 0 c-0.084 0.031-0.187 0.044-0.259 0.086c-0.029-0.005-0.03 0.016-0.053 0.017c-0.133 0.04-0.248 0.097-0.345 0.2 c-0.041-0.005-0.066 0.004-0.069 0.035c0.003 0.015-0.007 0.016-0.018 0.017c-0.018 0-0.034 0-0.053 0 C15.13 8.4 15.4 8.3 15.8 8.225z"/><path d="M15.727 8.433c-0.001 0.011-0.003 0.021-0.018 0.018c-0.045 0.054-0.191 0.009-0.241-0.036 C15.543 8.4 15.7 8.5 15.7 8.433z"/><path d="M15.709 9.281c-0.001 0.052-0.113 0.041-0.138 0.018C15.601 9.2 15.7 9.3 15.7 9.281z"/><path d="M15.658 16.925c-0.087 0.034-0.145-0.063-0.277-0.035C15.415 16.8 15.6 16.9 15.7 16.925z"/><path d="M15.605 17.046c0.011 0 0 0 0 0.018c-0.091 0.04-0.153 0.111-0.26 0.1 c0.005-0.046 0.074-0.03 0.087-0.068C15.514 17.1 15.5 17.1 15.6 17.046z"/><path d="M15.605 8.381c0.004-0.004 0.008-0.009 0.011-0.012C15.614 8.4 15.6 8.4 15.6 8.381z"/><path d="M15.675 8.243c-0.056 0.06-0.167 0.064-0.259 0.086C15.488 8.3 15.6 8.3 15.7 8.243z"/><path d="M15.537 9.177c0.063 0.091-0.166 0.048-0.174 0c0.035 0 0.1 0 0.1 0 C15.49 9.2 15.5 9.2 15.5 9.177z"/><path d="M15.381 16.96c0.12 0 0.2 0 0.2 0.086c-0.075 0.005-0.092 0.071-0.155 0.1 c-0.002-0.043-0.058-0.004-0.052 0.017c-0.006 0-0.012 0-0.018 0c0.019-0.054-0.011-0.103 0.104-0.086 C15.498 17 15.4 17 15.4 16.96z"/><path d="M15.381 9.299c0.042 0 0.1 0 0.1 0.017C15.5 9.4 15.4 9.3 15.4 9.299z"/><path d="M15.398 17.149c-0.006-0.021 0.05-0.06 0.052-0.017c-0.013 0.038-0.082 0.022-0.087 0.1 c-0.045 0.036-0.097 0.064-0.155 0.087c0.003-0.014 0.018-0.018 0.018-0.034c0.051-0.006 0.062-0.053 0.087-0.087 c0.005 0 0.046-0.02 0.068-0.018C15.387 17.1 15.4 17.1 15.4 17.149z"/><path d="M15.26 8.433c0.016-0.043 0.116-0.042 0.1 0.035C15.313 8.5 15.3 8.4 15.3 8.433z"/><path d="M15.173 17.098c0.03 0 0.1 0 0.1 0c-0.01 0.043-0.065 0.039-0.104 0.1 C15.165 17.1 15.2 17.1 15.2 17.098z"/><path d="M15.226 17.254c0 0.017-0.015 0.021-0.018 0.034c-0.013 0-0.023 0-0.035 0 c0.033-0.059-0.049-0.015-0.086-0.068c0.023 0 0.017-0.031 0.035-0.035C15.163 17.2 15.2 17.3 15.2 17.254z"/><path d="M15.173 17.288c0.012 0 0 0 0 0c-0.067 0.025-0.108 0.075-0.189 0.1 c-0.03 0.004-0.044-0.02 0-0.018c0.055-0.032 0.07-0.067 0.12-0.069C15.15 17.3 15.2 17.3 15.2 17.288z"/><path d="M15.019 8.52c0.097-0.076 0.212-0.133 0.345-0.173C15.257 8.4 15.1 8.5 15 8.52z"/><path d="M15.019 17.254c0.051 0 0.1 0 0.1 0.034c-0.05 0.002-0.065 0.037-0.12 0.1 C15.052 17.3 15.1 17.3 15 17.254z"/><path d="M15.001 8.537c-0.008 0.1 0.1 0.1 0.1 0.173c-0.04-0.023-0.097-0.03-0.086-0.104 c-0.067-0.015-0.062 0.042-0.104 0.052c-0.009 0.1 0.1 0 0 0.104c-0.024 0-0.038 0.009-0.053 0 c0.049-0.077-0.049-0.066-0.085-0.104c0.001-0.025 0.123-0.011 0.068-0.036c0.005-0.04 0.054-0.038 0.069-0.069 c0.011-0.001 0.021-0.002 0.018-0.017C14.972 8.6 15 8.5 15 8.537z"/><path d="M15.052 17.115c0.003 0.015-0.006 0.017-0.017 0.018c0 0 0 0 0 0 c-0.042-0.015-0.1-0.015-0.104-0.069C14.978 17.1 15 17.1 15.1 17.115z"/><path d="M14.879 8.571c0.019 0 0 0 0.1 0c-0.016 0.031-0.064 0.029-0.069 0.1 c-0.038-0.002-0.037-0.042-0.035-0.085c0.003-0.014 0.018-0.018 0.018-0.035c0.019-0.038 0.044-0.07 0.034-0.136 c0.007-0.001 0.013-0.002 0.019-0.003C14.922 8.5 14.8 8.5 14.9 8.571z"/><path d="M14.897 8.381c-0.006 0.001-0.012 0.002-0.019 0.003c0-0.001 0-0.002 0-0.003 c-0.018 0.001-0.03 0.006-0.041 0.013c-0.218 0.064-0.369 0.301-0.563 0.419C14.418 8.7 14.7 8.3 14.9 8.381z"/><path d="M14.879 8.384c0.01 0.066-0.016 0.098-0.034 0.136c-0.023-0.018-0.034-0.046-0.069-0.052 c0.004-0.02 0.019-0.01 0 0c0.021-0.004 0.017-0.035 0-0.035c0.016-0.013 0.027-0.028 0.044-0.039 C14.852 8.4 14.9 8.4 14.9 8.384z"/><path d="M14.879 8.381c0 0 0 0 0 0.003c-0.014 0.002-0.027 0.006-0.041 0 C14.849 8.4 14.9 8.4 14.9 8.381z"/><path d="M14.827 17.201c0.048-0.012 0.1 0.1 0 0.104C14.8 17.3 14.8 17.2 14.8 17.201z"/><path d="M14.838 8.394c-0.017 0.011-0.028 0.026-0.044 0.039c-0.029-0.005-0.031 0.017-0.053 0 c-0.084 0.043-0.121 0.132-0.208 0.172c-0.002 0.001-0.003 0.003-0.005 0.004c-0.038 0.035-0.092 0.051-0.115 0.1 c-0.079 0.037-0.105 0.125-0.174 0.173c0-0.035 0.047-0.022 0.035-0.07c0-0.005 0-0.011 0-0.017 C14.469 8.7 14.6 8.5 14.8 8.394z"/><path d="M14.845 8.52c0 0.017-0.015 0.021-0.018 0.035c-0.019-0.002-0.026 0.024-0.033 0 c-0.001-0.024 0.008-0.039 0.017-0.052c-0.033-0.007-0.075-0.006-0.069-0.051c0.021-0.001 0.023-0.023 0.053-0.018 c0.017 0 0 0 0 0.035c0-0.01-0.015-0.02-0.019 0C14.811 8.5 14.8 8.5 14.8 8.52z"/><path d="M14.794 17.392c0.024 0.008-0.007 0 0 0.053c-0.051 0.003-0.095 0.002-0.087-0.053 C14.777 17.4 14.7 17.4 14.8 17.392z"/><path d="M14.707 17.513c-0.012 0-0.023 0-0.035 0c-0.11-0.08-0.294-0.005-0.397-0.068 c0.066-0.042 0.2 0 0.295-0.035C14.6 17.5 14.7 17.5 14.7 17.513z"/><path d="M14.654 8.537c0.052 0 0 0 0 0.104c-0.04 0.027-0.075-0.006-0.087 0 C14.547 8.6 14.7 8.6 14.7 8.537z"/><path d="M14.326 17.634c0.075-0.025 0.197-0.098 0.294-0.086c-0.227 0.108-0.483 0.186-0.744 0.3 c-0.03-0.009 0.008-0.019 0.018-0.035c0.022 0 0 0 0.1 0h0.018c0.012-0.034 0.046-0.046 0.087-0.052 c0.041 0 0.07-0.009 0.086-0.034c0.058-0.012 0.126-0.013 0.155-0.053C14.314 17.6 14.3 17.6 14.3 17.634z"/><path d="M14.413 8.727c0.023-0.048 0.077-0.064 0.115-0.099C14.479 8.7 14.5 8.7 14.4 8.727z"/><path d="M14.361 17.53c0.004 0.1 0.075-0.031 0.1 0.018c-0.044 0.02-0.083 0.044-0.104 0.1 c-0.006 0-0.012 0-0.018 0c-0.004-0.032-0.028 0.011-0.034-0.018c0.029-0.043-0.02-0.06 0.017-0.086 c0.05 0 0 0.1 0 0.069C14.361 17.6 14.3 17.5 14.4 17.53z"/><path d="M14.274 8.831c0.012 0.047-0.035 0.035-0.035 0.07c-0.016 0.008-0.031 0.015-0.034 0 c-0.103 0.076-0.159 0.198-0.242 0.293c-0.037 0.062-0.104 0.092-0.12 0.174c0 0 0 0 0 0 c-0.078 0.055-0.108 0.158-0.174 0.225c-0.042 0.102-0.125 0.164-0.155 0.277c0 0 0 0 0 0 c-0.059 0.04-0.061 0.135-0.122 0.172C13.636 9.6 13.9 9.2 14.3 8.831z"/><path d="M14.274 9.229c0 0 0 0 0 0.052c-0.037 0.007-0.047-0.012-0.069-0.018 C14.209 9.2 14.2 9.2 14.3 9.229z"/><path d="M14.118 9.107c0.043 0 0 0.1 0 0.104C14.11 9.2 14 9.2 14.1 9.2 C14.093 9.2 14.1 9.1 14.1 9.107z"/><path d="M14.205 8.935c-0.084 0.094-0.138 0.22-0.242 0.293C14.046 9.1 14.1 9 14.2 8.935z"/><path d="M14.067 17.721c-0.029-0.057 0.019-0.09 0.086-0.034C14.138 17.7 14.1 17.7 14.1 17.721z"/><path d="M13.945 17.669c0.022 0.1 0.082-0.052 0.1 0c-0.045 0.013-0.033 0.081-0.068 0.1 c-0.022 0-0.047 0-0.069 0C13.859 17.7 13.9 17.7 13.9 17.669z"/><path d="M13.894 9.368C13.881 9.5 14 9.5 14 9.575c-0.031-0.072-0.152-0.119-0.138-0.138 c0-0.006 0-0.012 0-0.018s0-0.012 0-0.017C13.866 9.4 13.9 9.4 13.9 9.368z"/><path d="M13.859 17.634c-0.003 0 0 0 0 0.035c-0.04 0.021-0.144 0.038-0.173 0 C13.732 17.6 13.8 17.6 13.9 17.634z"/><path d="M13.859 9.627c-0.003-0.003-0.006-0.006-0.008-0.01C13.854 9.6 13.9 9.6 13.9 9.627z"/><path d="M13.852 9.617c-0.021-0.019-0.047 0.035-0.062-0.008c0.027-0.007 0.004-0.021-0.018 0 c0-0.047 0.029-0.034 0-0.069c0-0.029 0.014-0.044 0.035-0.051c0.001 0.024-0.008 0.038-0.018 0.1 C13.84 9.5 13.8 9.6 13.9 9.617z"/><path d="M13.843 9.419c0 0 0 0 0 0.018c-0.023 0.007-0.036 0.023-0.036 0.1 c-0.021 0.007-0.035 0.022-0.035 0.051c-0.049 0.018-0.038 0.1-0.103 0.104C13.734 9.6 13.8 9.5 13.8 9.419z"/><path d="M13.703 9.834c0.018 0.041-0.026 0.168-0.034 0.242c-0.046-0.022-0.028-0.109-0.052-0.156 C13.651 9.9 13.7 9.9 13.7 9.834z"/><path d="M13.721 17.79C13.627 17.9 13.6 17.8 13.7 17.79L13.721 17.79z"/><path d="M13.53 17.859c-0.022-0.057 0.083-0.023 0.1 0.018c-0.014 0.003-0.017 0.017-0.034 0 c-0.059-0.021-0.117-0.045-0.138-0.104c0.033 0 0.031-0.01 0.1 0C13.49 17.8 13.5 17.8 13.5 17.859z"/><path d="M13.514 9.92c0.037 0 0.1 0.1 0 0.19c-0.039 0.005-0.065-0.004-0.069-0.035 c-0.009-0.054 0.054-0.04 0.035-0.104c0-0.012 0-0.023 0-0.034C13.514 9.9 13.5 9.9 13.5 9.92z"/><path d="M13.514 9.938c0 0 0 0 0 0.034c-0.063 0.07-0.086 0.18-0.174 0.2 c0.016-0.031 0.042-0.05 0.052-0.087C13.453 10.1 13.5 10 13.5 9.938z"/><path d="M13.427 10.301c-0.014 0.016-0.018 0.04-0.018 0.069c-0.071-0.006-0.048-0.059-0.035-0.104 C13.398 10.3 13.4 10.3 13.4 10.301z"/><path d="M13.409 10.543c-0.054 0.008-0.077-0.015-0.069-0.069C13.398 10.5 13.4 10.5 13.4 10.543z"/><path d="M13.271 10.612c0.072-0.017 0.1 0.1 0 0.122C13.299 10.7 13.3 10.7 13.3 10.612z"/><path d="M13.253 10.388c0.024 0.053-0.043 0.163-0.086 0.207c0-0.006 0-0.011 0-0.017 C13.177 10.5 13.2 10.4 13.3 10.388z"/><path d="M13.202 10.612c0.036 0.115-0.144 0.128-0.035 0.208c-0.022 0-0.023 0.022-0.052 0 c0.042-0.04-0.026-0.046-0.035-0.087c0.046-0.041 0.034-0.139 0.087-0.172c0 0 0 0 0 0 C13.164 10.7 13.2 10.6 13.2 10.612z"/><path d="M13.149 10.837c0.045 0 0 0.1 0 0.086C13.123 10.9 13.1 10.9 13.1 10.837z"/><path d="M13.167 17.928c-0.009 0.014-0.018 0.027-0.018 0.053c-0.06 0.014-0.073-0.019-0.104-0.035 C13.063 17.9 13.1 17.9 13.2 17.928z"/><path d="M13.098 10.975c0.044 0 0 0.2 0 0.312c-0.031-0.064 0.007-0.201-0.052-0.276 C13.08 11 13.1 11 13.1 10.975z"/><path d="M13.007 11.134c-0.033 0 0 0.134-0.029 0.152c-0.013 0-0.024 0-0.035 0 c-0.01-0.073 0.013-0.114 0.017-0.172c0-0.006 0-0.012 0-0.018C13.022 11.1 13 11.2 13 11.134z"/><path d="M12.978 10.993c0.002 0 0 0.083-0.019 0.104c0 0 0 0 0 0 c-0.078 0.104-0.102 0.267-0.172 0.38c0 0 0 0 0 0.002c0.001 0.012-0.008 0.014-0.018 0 C12.82 11.3 12.9 11.2 13 10.993z"/><path d="M12.925 18.032c-0.013 0.039-0.097 0.006-0.138 0.017c0-0.009 0.002-0.016 0.01-0.017 c0.002 0 0 0 0 0c0.013-0.004 0.017-0.018 0.034-0.018C12.879 18 12.9 18 12.9 18.032z"/><path d="M12.476 17.964c0.102-0.05 0.515-0.014 0.4 0.051c-0.018 0-0.021 0.014-0.034 0 c-0.003-0.001-0.006-0.001-0.008 0c-0.04-0.004 0.001-0.034-0.027-0.068c0.016 0.064-0.149-0.063-0.173 0 C12.543 18 12.5 18 12.5 17.964z"/><path d="M12.797 18.032c0.002-0.001 0.004-0.001 0 0C12.802 18 12.8 18 12.8 18.032z"/><path d="M12.788 11.497c0.005 0 0 0.206-0.018 0.257c-0.012-0.023-0.032-0.036-0.037-0.066 c0.002-0.013 0.003-0.026 0.002-0.038c-0.014-0.048 0.024-0.044 0.018-0.086c-0.005-0.027 0.018-0.029 0.018-0.052 C12.78 11.5 12.8 11.5 12.8 11.497z"/><path d="M12.752 11.563c0.007 0.042-0.031 0.038-0.018 0.086c-0.003 0.016-0.003 0.028-0.002 0 c-0.015 0.09-0.098 0.178-0.152 0.066c0.042 0.1 0.1 0 0.12-0.052C12.706 11.6 12.7 11.6 12.8 11.563z"/><path d="M12.734 11.649c0.001 0 0 0.025-0.002 0.038C12.731 11.7 12.7 11.7 12.7 11.649z"/><path d="M12.7 11.702c0.004 0.082-0.078 0.111-0.12 0.052c-0.141-0.177-0.327-0.308-0.485-0.467 c0.21 0.1 0.4 0.3 0.6 0.485C12.685 11.8 12.7 11.7 12.7 11.702z"/><path d="M12.51 11.771c0.034-0.043-0.023 0.064-0.034 0.087c-0.069-0.036-0.121-0.087-0.156-0.157 c0.016-0.013 0.04-0.019 0.07-0.017c-0.045 0.1 0 0.1 0.1 0.121C12.496 11.8 12.5 11.8 12.5 11.771z"/><path d="M12.423 18.049c0.008 0 0 0 0 0.053c-0.017 0-0.033 0-0.051 0c0-0.006 0-0.012 0-0.018 c-0.067-0.024-0.068-0.013-0.121-0.035C12.32 18 12.3 18.1 12.4 18.049z"/><path d="M12.372 18.102c0.018 0 0 0 0.1 0c-0.066 0.041-0.183 0.034-0.293 0 c-0.026-0.003-0.064 0.006-0.069-0.017C12.17 18.1 12.3 18.1 12.4 18.102z"/><path d="M12.165 11.46c0.015 0.055-0.058 0.024-0.053 0.069c-0.018-0.011-0.018-0.04-0.052-0.035 C12.069 11.4 12.1 11.5 12.2 11.46z"/><path d="M12.078 11.374c0.007 0 0 0 0 0.086c-0.081-0.027-0.075-0.108 0.018-0.121 C12.121 11.4 12.1 11.4 12.1 11.374z"/><path d="M12.061 18.032c0.007 0.084-0.079 0.027-0.12 0.017C11.947 18 12 18 12.1 18.032z"/><path d="M11.8 17.945c0.031-0.04 0.134-0.007 0.191-0.018C11.962 18 11.9 17.9 11.8 17.945z"/><path d="M11.974 11.2c-0.062-0.035-0.104-0.089-0.19-0.103c-0.026-0.048-0.101-0.049-0.121-0.104 c-0.012 0-0.022 0-0.033 0c-0.076-0.045-0.143-0.101-0.225-0.138c-0.004-0.015-0.018-0.018-0.018-0.035 C11.582 10.9 11.8 11 12 11.2z"/><path d="M11.767 11.287c-0.014-0.066 0.083-0.066 0.1 0C11.801 11.3 11.8 11.3 11.8 11.287z"/><path d="M11.818 18.102c-0.032-0.001-0.037 0.013-0.019 0.034c-0.022 0.005-0.032 0.024-0.068 0 c0.053-0.03-0.048-0.053 0-0.068c0.061 0 0-0.008 0.035-0.018C11.767 18.1 11.8 18.1 11.8 18.102z"/><path d="M11.783 11.114c0.043 0.005-0.019 0.047-0.034 0.052c-0.081-0.042-0.18-0.095-0.174-0.173 c0.021 0 0 0 0.1 0c0.011 0 0 0 0 0c0.021 0.1 0.1 0.1 0.1 0.1 C11.783 11.1 11.8 11.1 11.8 11.114z"/><path d="M11.559 18.102c0.102 0 0.176-0.048 0.2 0.051c-0.012 0-0.023 0-0.035 0 C11.734 18.1 11.6 18.2 11.6 18.102z"/><path d="M11.611 18.171c0.018 0 0 0 0.1 0c-0.155 0.028-0.432 0.028-0.587 0c0.017 0 0 0 0.1 0 C11.288 18.2 11.4 18.2 11.6 18.171z"/><path d="M11.662 17.98c-0.039 0.023-0.077 0.05-0.138 0.052c0-0.034-0.048-0.022-0.035-0.068 C11.549 18 11.6 17.9 11.7 17.98z"/><path d="M11.575 11.167c0.008 0.035-0.012 0.045-0.017 0.069c-0.054 0.008-0.055-0.038-0.052-0.087 C11.543 11.1 11.6 11.2 11.6 11.167z"/><path d="M11.489 10.993c-0.015 0.038-0.061-0.024-0.085 0.018c-0.038 0 0.023-0.089-0.018-0.036 c-0.026-0.007 0.006-0.021 0-0.051c0.016 0 0 0 0.1 0.017C11.42 11 11.5 11 11.5 10.993z"/><path d="M11.248 18.066c0.047-0.04 0.167-0.007 0.241-0.018C11.443 18.1 11.3 18.1 11.2 18.066z"/><path d="M11.404 10.855c0.038 0.114-0.131-0.05-0.174-0.018c0-0.017-0.014-0.021-0.018-0.035 c0.021-0.021 0.058-0.022 0.082-0.004c0.002 0 0 0 0 0.004c0.041-0.007 0 0 0.1 0 C11.387 10.8 11.4 10.8 11.4 10.855z"/><path d="M11.075 17.997c0.012-0.062 0.126-0.023 0.188-0.033C11.231 18 11.2 18 11.1 17.997z"/><path d="M11.248 18.152c-0.109 0.024-0.213-0.074-0.191 0c-0.012 0-0.022 0-0.034 0 c-0.001-0.009-0.002-0.019-0.015-0.017c0-0.002 0-0.003 0-0.004c0.041-0.075 0.094-0.004 0.222-0.03 C11.196 18.1 11.2 18.1 11.2 18.152z"/><path d="M11.126 18.171c-0.017 0-0.034 0-0.051 0c-0.041 0-0.081 0-0.122 0c0.001-0.012 0.003-0.021 0.018-0.019 c0.012 0 0 0 0 0h0.017c0.012 0 0 0 0 0C11.084 18.2 11.1 18.1 11.1 18.171z"/><path d="M11.022 18.152h-0.017c0.001-0.006 0.001-0.012 0.002-0.017C11.021 18.1 11 18.1 11 18.152z"/><path d="M10.953 18.032c0.017 0.1 0.1 0 0.1 0.1c-0.001 0.001-0.002 0.003-0.002 0 c0 0 0 0 0 0c0 0.005-0.001 0.011-0.002 0.017c-0.012 0-0.023 0-0.035 0c-0.038-0.039-0.016-0.045-0.034-0.086 c-0.066-0.008-0.109 0.043-0.122-0.034C10.862 18 10.9 18 11 18.032z"/><polygon points="11,18.1 11,18.1 11,18.1"/><path d="M10.764 17.945c0.029-0.04 0.132-0.007 0.189-0.018C10.933 18 10.8 17.9 10.8 17.945z"/><path d="M10.953 15.214c-0.063-0.012-0.172 0.021-0.208-0.019C10.81 15.2 10.9 15.2 11 15.214z"/><path d="M10.85 10.578c-0.077 0.1 0.1 0.1 0.1 0.121c-0.019-0.079-0.166-0.03-0.174-0.121 c0.061 0.034-0.001-0.008 0.036-0.018C10.811 10.6 10.8 10.6 10.8 10.578z"/><path d="M10.971 10.63c-0.045-0.014-0.101-0.014-0.121-0.052c-0.016-0.014-0.039-0.019-0.068-0.018 c-0.001-0.01-0.004-0.021-0.018-0.017c-0.012-0.023-0.038-0.033-0.069-0.036c-0.045-0.046-0.143-0.041-0.174-0.103 C10.682 10.5 10.8 10.5 11 10.63z"/><path d="M10.85 15.507c0 0 0 0.1 0 0.104c-0.029 0-0.057 0-0.086 0c0.01-0.016 0.039-0.061-0.014-0.053 C10.77 15.5 10.8 15.5 10.8 15.507z"/><path d="M10.832 18.152c-0.063-0.011-0.172 0.023-0.207-0.017c0.017 0 0 0 0.1 0 C10.723 18.1 10.8 18.1 10.8 18.152z"/><path d="M10.781 15.402c0 0.019-0.014 0.021-0.018 0.036c-0.067 0.036-0.119 0.09-0.174 0.1 c-0.02 0.009-0.039 0.019-0.051 0.034c-0.013 0-0.024 0-0.035 0C10.583 15.5 10.7 15.5 10.8 15.402z"/><path d="M10.764 15.438c0.006 0.039-0.051 0.019-0.052 0.051c0.023 0 0 0 0 0.1 c-0.092-0.059-0.055 0.022-0.155 0.034C10.645 15.5 10.7 15.5 10.8 15.438z"/><path d="M10.764 18.102c0.003 0.037-0.062 0.008-0.087 0.018c-0.022 0-0.046 0-0.069 0 C10.591 18 10.7 18 10.8 18.102z"/><path d="M10.745 15.559c0.001 0 0.003-0.001 0.004-0.001C10.74 15.6 10.7 15.6 10.7 15.559z"/><path d="M10.66 10.734c0.007-0.057 0.084-0.042 0.138-0.052C10.757 10.7 10.7 10.7 10.7 10.734z"/><path d="M10.764 10.543c-0.033 0.034-0.062 0.029-0.104 0.017c0.004-0.024 0.028-0.028 0.034-0.052 C10.726 10.5 10.8 10.5 10.8 10.543z"/><path d="M10.677 18.119c0 0 0 0 0 0.017c-0.017 0-0.035 0-0.052 0c-0.046 0-0.093 0-0.138 0 c0.006-0.038 0.084-0.007 0.12-0.017C10.631 18.1 10.7 18.1 10.7 18.119z"/><path d="M10.539 15.61c0.021 0 0 0 0 0.035c-0.092 0.016-0.104 0.064-0.156 0.1 c-0.001-0.028-0.044-0.015-0.034-0.053c0.043-0.019 0.085-0.042 0.121-0.069C10.515 15.6 10.5 15.6 10.5 15.61z"/><path d="M10.59 15.091c-0.039 0.023-0.031-0.002-0.086 0.019c-0.051-0.006-0.105-0.01-0.121-0.052 C10.439 15 10.5 15 10.6 15.091z"/><path d="M10.677 15.022c-0.105-0.089-0.294-0.026-0.381-0.017c0.021-0.031 0.101-0.004 0.069-0.087 C10.526 14.9 10.7 14.9 10.7 15.022z"/><path d="M10.504 15.109c0 0 0 0 0 0.034c-0.169-0.055-0.302-0.147-0.396-0.277 c0.062 0 0.1 0.1 0.2 0.14c0.036 0 0.1 0.1 0.1 0.052C10.398 15.1 10.5 15.1 10.5 15.109z"/><path d="M10.452 13.985c0.049 0 0 0 0.1 0.034c-0.023 0.004-0.029 0.029-0.051 0 c-0.002-0.021 0.025-0.028 0-0.035c-0.004-0.02-0.02-0.027-0.034-0.034c0.017-0.023 0.016-0.065 0.052-0.07 C10.478 13.9 10.5 14 10.5 13.985z"/><path d="M10.436 13.985c0.015 0 0 0 0 0.034c-0.004 0.031-0.03 0.04-0.069 0 c0.012-0.014 0.026-0.048 0-0.053c-0.035-0.039-0.144-0.006-0.208-0.017c-0.149-0.018-0.299-0.036-0.415-0.087 c0-0.006 0-0.012 0-0.018c-0.003-0.015 0.006-0.016 0.017-0.017C9.948 14 10.2 14 10.4 13.985z"/><path d="M10.417 18.084c0 0 0 0 0 0.035c-0.057-0.002-0.085-0.029-0.155-0.018 C10.28 18.1 10.4 18.1 10.4 18.084z"/><path d="M10.417 14.296c0 0 0 0 0 0.034c-0.015-0.003-0.017 0.007-0.017 0.018c-0.012 0-0.023 0-0.035 0 c0.004-0.015-0.006-0.016-0.017-0.018c0-0.011 0-0.022 0-0.034c0.015 0 0.016-0.007 0.017-0.017c0.012 0 0 0 0 0 C10.396 14.3 10.4 14.3 10.4 14.296z"/><path d="M10.539 17.928c-0.073 0.083-0.222 0.091-0.347 0.121C10.258 18 10.4 18 10.5 17.928z"/><path d="M10.349 14.106c0.035 0 0 0 0.1 0.052c-0.077 0.027-0.16 0.102-0.172 0.2 c-0.024-0.006-0.028-0.029-0.053-0.034c0.049-0.021 0.028-0.082 0-0.018C10.168 14.2 10.4 14.2 10.3 14.106z"/><path d="M10.383 15.784c0.037 0 0.1 0.096-0.018 0.086C10.36 15.8 10.4 15.8 10.4 15.784z"/><path d="M10.4 14.002c-0.064-0.011-0.172 0.022-0.208-0.017C10.257 14 10.4 14 10.4 14.002z"/><path d="M10.349 10.439c-0.007 0.026-0.015-0.001-0.035 0c-0.015-0.003-0.017 0.007-0.018 0 c-0.02-0.003-0.01-0.018 0-0.018c-0.017-0.018-0.033-0.035-0.051-0.051c0.021-0.053 0.1 0 0.1 0 c-0.004 0.014-0.017 0.018-0.017 0.035C10.328 10.4 10.3 10.4 10.3 10.439z"/><path d="M9.898 13.864c0.155-0.085 0.3 0 0.484-0.018C10.212 13.9 10.1 13.9 9.9 13.864z"/><path d="M10.279 15.888c0.045-0.006 0.1 0 0.1 0.069c-0.047 0.005-0.075-0.007-0.07-0.053 C10.276 15.9 10.3 15.9 10.3 15.888z"/><path d="M10.21 14.866c0.017 0.1 0.1 0 0.1 0.121c-0.017 0-0.021-0.014-0.034-0.017 c-0.024-0.01-0.043-0.027-0.052-0.052C10.203 14.9 10.2 14.9 10.2 14.866z"/><path d="M10.228 15.801c0.005 0 0.046-0.025 0.1 0.034c-0.062 0.031-0.102 0.084-0.155 0.1 c-0.043-0.014-0.052-0.006-0.087-0.053c0.055-0.01 0.1 0 0.1 0c-0.002-0.029 0.004-0.053 0.017-0.069 C10.195 15.9 10.2 15.8 10.2 15.801z"/><path d="M10.262 14.971c0 0 0 0 0 0.035c-0.062-0.036-0.094-0.103-0.155-0.14 c0-0.005 0-0.011 0-0.017c0.004-0.014 0-0.034 0.017-0.034c-0.007 0.1 0 0.1 0.1 0.1 C10.219 14.9 10.2 15 10.3 14.971z"/><path d="M10.124 17.98c0.049-0.014 0.067-0.06 0.138-0.053C10.23 18 10.2 18 10.1 17.98z"/><path d="M10.141 15.835c0.047-0.056 0.118-0.089 0.191-0.121c-0.017 0.043-0.042 0.075-0.104 0.1 c0 0 0 0 0 0.017C10.193 15.8 10.2 15.9 10.1 15.835z"/><path d="M10.21 10.267c-0.062 0.005-0.083-0.033-0.139-0.035c0 0-0.012 0-0.018 0 c-0.07-0.091-0.235-0.086-0.311-0.173C9.906 10.1 10.1 10.2 10.2 10.267z"/><path d="M10.071 10.25c0.058 0 0.1 0.1 0.1 0.103c-0.123-0.012-0.274-0.079-0.259-0.172 c0.059 0 0.1 0.1 0.1 0.051c0.006 0 0 0 0 0C10.071 10.2 10.1 10.2 10.1 10.25z"/><path d="M10.089 17.945c0.003 0.038-0.062 0.008-0.087 0.019c0.045 0 0 0.062-0.052 0 c0.032-0.033 0.031-0.014 0.018-0.069C10.033 17.9 10 17.9 10.1 17.945z"/><path d="M9.916 10.335c0.008 0.037-0.012 0.046-0.018 0.07c-0.054 0.007-0.056-0.037-0.052-0.086 C9.882 10.3 9.9 10.3 9.9 10.335z"/><path d="M9.829 16.095c0.041 0.067-0.083 0.058-0.12 0.07c0.012-0.043 0.101-0.054 0.12-0.036 C9.829 16.1 9.8 16.1 9.8 16.095z"/><path d="M9.812 12.566c0.006 0.102-0.139-0.037-0.121 0.052c-0.024-0.011-0.033-0.036-0.035-0.069 c-0.051-0.024 0.041-0.012 0 0.035C9.716 12.5 9.7 12.6 9.8 12.566z"/><path d="M9.829 13.83c-0.029 0.032-0.066-0.024-0.035 0.034c-0.011 0.001-0.02 0.002-0.017 0 c-0.046-0.017-0.099-0.028-0.104-0.086c0.018 0 0.021-0.015 0.035-0.018C9.768 13.8 9.8 13.8 9.8 13.83z"/><path d="M9.847 16.25c-0.046 0.038-0.079 0.024-0.138 0.019C9.746 16.2 9.8 16.2 9.8 16.25z"/><path d="M9.777 16.043c0.052 0.012-0.017 0 0 0.069c-0.041-0.022-0.032 0.002-0.086-0.018 c0.01-0.014 0.018-0.027 0.018-0.052C9.748 16 9.8 16.1 9.8 16.043z"/><path d="M9.691 10.042c-0.012-0.003-0.02-0.01-0.027-0.018C9.673 10 9.7 10 9.7 10.042z"/><path d="M9.656 16.199c0.002 0.046-0.178 0.061-0.172 0C9.541 16.2 9.6 16.2 9.7 16.199z"/><path d="M9.664 10.024c-0.01-0.006-0.021-0.013-0.031-0.019C9.648 10 9.7 10 9.7 10.024z"/><path d="M9.633 10.005c-0.007-0.001-0.016 0-0.028 0.002c-0.19-0.11-0.418-0.184-0.623-0.277 C8.928 9.7 8.9 9.7 8.9 9.696c0.002-0.015-0.002-0.022-0.011-0.027C9.129 9.8 9.4 9.9 9.6 10.005z"/><path d="M9.535 12.618c0.065-0.011 0.099-0.026 0.1 0.036c-0.084 0.021-0.098 0.072-0.172 0.1 c0.002-0.015-0.008-0.017-0.019-0.018c0.017-0.041 0.1 0 0.104-0.068C9.549 12.6 9.5 12.6 9.5 12.618z"/><path d="M9.588 12.533c0.017 0.031-0.1 0.01-0.035 0.033c-0.052 0.034-0.081-0.104-0.191-0.068 c-0.008-0.063 0.09-0.02 0.103-0.061C9.459 12.5 9.5 12.5 9.6 12.533z"/><path d="M9.553 10.042c0.002-0.02 0.031-0.015 0.053-0.018c-0.015 0.137-0.204 0.137-0.312 0.1 C9.373 10.1 9.6 10.1 9.6 10.042z"/><path d="M9.484 13.726c0.002 0.1 0.1 0 0.1 0.086c-0.074-0.063-0.185-0.09-0.243-0.172 c0.046 0 0.1 0.1 0.1 0.068C9.449 13.7 9.5 13.7 9.5 13.726z"/><path d="M9.57 13.64c-0.013 0.1 0 0.073-0.086 0.086c-0.015-0.003-0.035 0-0.036-0.018 C9.498 13.7 9.5 13.7 9.6 13.64z"/><path d="M9.605 10.007c-0.084-0.028-0.09-0.025-0.174-0.052C9.424 9.9 9.4 9.9 9.4 9.9 c-0.126-0.07-0.296-0.097-0.397-0.19C9.188 9.8 9.4 9.9 9.6 10.007z"/><path d="M9.553 17.79c-0.02 0.074-0.072 0.012-0.034 0.104c-0.036-0.005-0.033-0.047-0.07-0.053 c-0.021 0 0.1 0.1 0 0.07c-0.059-0.004-0.091-0.034-0.139-0.052c0.031-0.008-0.007-0.02-0.017-0.035 c0.094 0 0.102-0.062 0.155-0.017c-0.048-0.023-0.059 0.068-0.034 0.017C9.48 17.8 9.5 17.8 9.6 17.79z"/><path d="M9.501 12.913c0.017 0.062-0.068 0.023-0.104 0.034c0-0.012 0-0.022 0-0.034 C9.432 12.9 9.5 12.9 9.5 12.913z"/><path d="M9.466 12.705c0.011 0 0 0 0 0.018c-0.074 0.103-0.104 0.076-0.208 0.1 c0.004-0.018 0.034-0.01 0.034-0.033C9.373 12.7 9.4 12.7 9.5 12.705z"/><path d="M9.361 13.64c0.065-0.041 0.127-0.083 0.209-0.104c-0.006 0.081-0.142 0.031-0.122 0.1 C9.405 13.7 9.4 13.6 9.4 13.64z"/><path d="M9.464 12.437c0-0.002 0-0.004 0.001-0.007C9.466 12.4 9.5 12.4 9.5 12.437z"/><path d="M9.327 13.519c0.024-0.028 0.113-0.061 0.1 0.018C9.396 13.6 9.4 13.5 9.3 13.519z"/><path d="M9.432 9.955c0.002 0.096-0.039-0.021-0.07 0.069c0.016-0.048-0.023-0.044-0.017-0.085 C9.373 10 9.4 10 9.4 9.92C9.409 9.9 9.4 9.9 9.4 9.955z"/><path d="M9.415 16.146c-0.044 0.047-0.012 0.077-0.07 0.122c-0.022 0-0.046 0-0.068 0 c0.034-0.041-0.005-0.021-0.019-0.053c-0.074 0.001-0.115 0.047-0.172 0.018C9.191 16.2 9.3 16.2 9.4 16.146z"/><path d="M9.311 17.687c0.049-0.004 0.1 0 0.1 0.034c-0.052 0.048-0.154 0.043-0.19 0.1 c-0.018 0-0.035 0-0.052 0C9.156 17.8 9.3 17.8 9.3 17.687z"/><path d="M9.276 12.895c0.019-0.049 0.052-0.057 0.104-0.033C9.363 12.9 9.3 12.9 9.3 12.895z"/><path d="M9.311 12.74c0 0.023-0.03 0.016-0.034 0.033c-0.096 0.066-0.212 0.111-0.294 0.2 c-0.05-0.002-0.045 0.049-0.07 0.069c-0.017 0-0.02 0.014-0.033 0.017C8.968 12.9 9.1 12.8 9.3 12.74z"/><path d="M9.241 12.43c0.048 0.049-0.129 0.014-0.121-0.053c0.062-0.031 0.1 0.1 0.1 0 c0.024 0.008-0.007 0 0 0.052C9.238 12.4 9.2 12.4 9.2 12.43z"/><path d="M9.173 12.463c0.037 0 0.1 0 0.1 0.07c-0.096-0.037-0.195-0.07-0.26-0.14 C9.1 12.4 9.1 12.5 9.2 12.463z"/><path d="M9.173 13.5c0.053 0 0.1 0.1 0.1 0.14c-0.064-0.047-0.121-0.098-0.174-0.155 C9.154 13.5 9.2 13.5 9.2 13.5z"/><path d="M9.12 13.207c0.055-0.008 0.1 0 0.1 0.068c-0.022 0-0.046 0-0.069 0 C9.12 13.3 9.1 13.2 9.1 13.207z"/><path d="M9.033 17.669c0.053-0.062 0.1 0 0.2 0.018C9.141 17.8 9.1 17.7 9 17.669z"/><path d="M9.103 13.396c0.021 0 0.1 0.1 0.1 0.104c-0.015-0.002-0.019-0.016-0.036-0.016 c-0.036-0.057-0.102-0.084-0.12-0.156c-0.012-0.047-0.049-0.066-0.069-0.104c0.067 0 0.1 0.1 0.1 0.1 C9.068 13.4 9.1 13.4 9.1 13.396z"/><path d="M9.033 13.275c0.088-0.019 0.2 0.2 0.1 0.121c-0.021-0.006-0.034-0.021-0.034-0.052 C9.068 13.3 9 13.3 9 13.275z"/><path d="M9.173 12.463c-0.066-0.004-0.073-0.065-0.14-0.069H9.017c0.005-0.03-0.082-0.054-0.034-0.069 C9.029 12.4 9.1 12.4 9.2 12.463z"/><path d="M9.033 11.131c0.005 0.046-0.023 0.057-0.068 0.052C8.966 11.1 9 11.1 9 11.131z"/><path d="M8.965 11.011c0.002 0 0.1 0 0.1 0.086c-0.031-0.032-0.069-0.059-0.087-0.104 C8.972 11 9 11 9 10.975C9.024 11 9 11 9 11.011z"/><path d="M8.93 10.837c0.029 0 0.1 0 0.1 0c-0.003 0 0 0 0 0 C9.011 10.9 8.9 10.9 8.9 10.837z"/><path d="M8.947 13.225c0.021 0 0.1 0.1 0.1 0.104c-0.071-0.045-0.097-0.135-0.138-0.208 C8.922 13.1 8.9 13.2 8.9 13.225z"/><path d="M8.912 13.034c0.025-0.021 0.021-0.071 0.07-0.069c-0.008 0.064-0.013 0.091-0.035 0.1 c-0.057-0.03 0.067-0.068-0.018-0.069C8.931 13 8.9 13.1 8.9 13.034z"/><path d="M8.809 12.152c0.041-0.083 0.1 0.1 0.2 0c-0.006 0.12-0.151 0.006-0.155 0.1 C8.764 12.2 8.9 12.1 8.8 12.152z"/><path d="M8.861 10.993c0.004 0.1 0.1 0.1 0.1 0.121c-0.03-0.103-0.164-0.102-0.207-0.19 c0.036 0 0.1 0 0.1 0.069H8.861z"/><path d="M8.947 11.114c0.054-0.055-0.082-0.068-0.086-0.121c0.051 0 0.1 0.1 0.1 0.1 c-0.045 0.018-0.105 0.021-0.173 0.017c-0.006 0-0.012 0-0.018 0c-0.094 0.03-0.225 0.043-0.38 0.052c0 0 0 0 0 0 c-0.054-0.001-0.096 0.008-0.122 0.036c-0.01 0-0.017-0.001-0.021-0.003C8.287 11.2 8.3 11.2 8.3 11.2 C8.499 11.2 8.7 11.1 8.9 11.114z"/><path d="M8.826 11.131c0.041 0 0.1 0 0.1 0.121c-0.079 0.011-0.053-0.084-0.139-0.069 c0.001-0.011 0.003-0.021 0.018-0.017c0-0.012 0-0.024 0-0.036C8.814 11.1 8.8 11.1 8.8 11.131z"/><path d="M8.826 10.924c0.03 0 0.055-0.082 0.069-0.034c-0.06 0 0 0.072-0.052 0.1 c-0.005-0.023-0.038-0.02-0.053-0.034c0.003-0.043 0.025-0.067 0.07-0.069C8.877 10.9 8.8 10.9 8.8 10.924z"/><path d="M8.851 9.669c0.008 0 0 0 0 0.027c-0.11-0.03-0.176-0.055-0.277-0.121 c0.063 0 0.1 0 0.2 0.069c0 0 0 0 0 0c0.005 0 0 0 0.1 0 C8.844 9.7 8.8 9.7 8.9 9.669z"/><path d="M8.851 9.669c-0.003-0.001-0.006-0.002-0.01-0.003C8.845 9.7 8.8 9.7 8.9 9.669z"/><path d="M8.844 10.975c0 0 0 0 0 0.018c-0.037-0.022-0.067-0.048-0.104-0.069c0 0-0.013 0-0.019 0 c-0.052-0.085-0.157-0.118-0.207-0.208c0.035 0 0 0 0.1 0.052c0.057 0.1 0.1 0.1 0.2 0.2 C8.806 11 8.8 11 8.8 10.975z"/><path d="M8.774 9.644c0.022 0 0 0 0.1 0.022C8.817 9.7 8.8 9.7 8.8 9.644z"/><path d="M8.861 9.765C8.835 9.8 8.8 9.8 8.7 9.748c0.003-0.021 0.03-0.015 0.051-0.018 c0.004 0.015-0.007 0.017-0.017 0.018C8.79 9.8 8.8 9.8 8.9 9.765z"/><path d="M8.722 10.803c0.007-0.057 0.107-0.034 0.1 0.035C8.754 10.9 8.8 10.8 8.7 10.803z"/><path d="M8.74 12.169c0.022 0 0.1 0.1 0.1 0.104c-0.084-0.06-0.164-0.124-0.226-0.207 C8.67 12.1 8.7 12.1 8.7 12.169z"/><path d="M8.117 16.32c-0.012 0-0.023 0-0.035 0c-0.025-0.003-0.062 0.006-0.068-0.018c0.018 0 0 0 0.1 0 c0.271 0 0.528-0.003 0.779-0.018c-0.04 0.078-0.139-0.009-0.208 0.035c-0.005 0-0.012 0-0.018 0c-0.149 0-0.299 0-0.449 0 c-0.012 0-0.022 0-0.034 0c0 0.006-0.001 0.012-0.001 0.017C8.12 16.3 8.1 16.3 8.1 16.32z"/><path d="M8.791 11.27c0 0.026-0.127 0.037-0.104-0.018C8.73 11.2 8.8 11.2 8.8 11.27z"/><path d="M8.671 17.6c0.042 0 0.054-0.069 0.069-0.018c-0.041 0.041-0.056 0.026-0.122 0 c0.022-0.022 0.022-0.063 0-0.087c0.018 0 0 0 0 0.018C8.652 17.6 8.7 17.6 8.7 17.6z"/><path d="M8.74 17.479c-0.009 0.002-0.02 0.002-0.031 0.002C8.713 17.5 8.7 17.5 8.7 17.479z"/><path d="M8.636 12.047c0.036 0 0.1 0.1 0.1 0.122c-0.052-0.024-0.07-0.08-0.122-0.104 c-0.003-0.014-0.017-0.018-0.017-0.035C8.618 12 8.6 12 8.6 12.047z"/><path d="M8.709 17.48c-0.009 0 0 0.056-0.022 0.05c-0.003-0.014-0.014-0.021-0.034-0.018 c0 0 0 0 0 0.018c-0.014-0.004-0.018-0.018-0.035-0.018c-0.069-0.055-0.185-0.061-0.225-0.104c0.01 0 0.02-0.014 0-0.018 c0.01-0.038 0 0 0.053-0.017C8.434 17.4 8.6 17.5 8.7 17.48z"/><path d="M8.497 16.527C8.467 16.5 8.7 16.5 8.7 16.476C8.697 16.5 8.6 16.5 8.5 16.527z"/><path d="M8.653 16.354C8.58 16.3 8.5 16.4 8.4 16.39c0.028-0.001 0.009-0.049 0.034-0.053 c0.068-0.02 0.1 0.1 0.138-0.017c0.006 0 0 0 0 0c0.002 0.019-0.025 0 0 0 C8.636 16.3 8.7 16.3 8.7 16.354z"/><path d="M8.602 11.944c0.047 0.1 0.1 0 0 0.103c-0.015-0.003-0.018-0.017-0.034-0.017 c0-0.006 0-0.012 0-0.018C8.658 12 8.5 12 8.6 11.944z"/><path d="M8.636 10.56c0 0 0 0.1 0 0.104c-0.02-0.003-0.031 0.003-0.034 0 c-0.02-0.003-0.01-0.017 0-0.017c0.003-0.059-0.063 0.002-0.018-0.07c-0.029-0.006-0.032 0.014-0.034 0 c-0.024-0.006-0.014-0.043-0.018-0.07C8.566 10.6 8.6 10.6 8.6 10.56z"/><path d="M8.515 10.716c0.05 0.1 0.2 0.1 0.2 0.208c-0.091-0.057-0.158-0.141-0.241-0.208h0.017 C8.503 10.7 8.5 10.7 8.5 10.716z"/><path d="M8.757 9.644C8.703 9.6 8.6 9.6 8.6 9.575C8.536 9.6 8.5 9.5 8.4 9.5 C8.396 9.5 8.3 9.5 8.3 9.454C8.252 9.4 8.2 9.4 8.2 9.419C8.11 9.4 8 9.3 7.9 9.3 c0 0 0 0 0 0.018c-0.005 0-0.011 0-0.017 0C7.937 9.2 8 9.3 8.1 9.368C8.289 9.4 8.6 9.5 8.8 9.644z"/><path d="M8.515 11.858c0.017-0.039 0.097-0.053 0.1 0.017c-0.07-0.008 0 0.043-0.035 0.1 c-0.012-0.009-0.025-0.017-0.047-0.017c-0.002-0.002-0.003-0.004-0.005-0.006C8.511 11.9 8.6 11.9 8.5 11.858z"/><path d="M8.602 10.716c0.001 0.024-0.008 0.039-0.018 0.052c-0.034-0.005-0.034-0.047-0.069-0.052 c-0.006 0-0.012 0-0.018 0c0.019-0.016 0.006-0.064 0.053-0.051c-0.045 0.1 0 0 0 0.1 C8.57 10.7 8.6 10.7 8.6 10.734C8.589 10.8 8.6 10.7 8.6 10.716z"/><polygon points="8.5,11.9 8.5,11.9 8.5,11.9"/><path d="M8.463 11.2c0.008 0 0.1 0 0 0.087c-0.046-0.035-0.064-0.017-0.104-0.035 c-0.01 0 0 0.09-0.017 0.087c-0.014-0.044-0.031-0.084-0.07-0.104c0.026-0.027 0.068-0.037 0.122-0.036 c0 0.024-0.031 0.017-0.035 0.036C8.441 11.2 8.4 11.2 8.5 11.2z"/><path d="M8.394 10.214c0.033 0 0.1 0 0.1 0.086c-0.065 0.019-0.056-0.036-0.086-0.051 C8.38 10.2 8.4 10.2 8.4 10.214z"/><path d="M8.463 11.391c0 0 0 0.1 0 0.086c-0.035 0.017-0.082 0.021-0.086 0.1 c-0.042-0.017-0.046-0.07-0.052-0.121c0.056-0.016 0 0.1 0.1 0.069C8.437 11.5 8.4 11.4 8.5 11.391z"/><path d="M8.429 10.439c-0.006 0 0 0.1 0 0.052c-0.004 0 0 0.087-0.034 0.1 c0.02-0.033 0.009-0.087-0.019-0.052c-0.022 0 0.008-0.07-0.033-0.017C8.327 10.5 8.4 10.4 8.4 10.439z"/><path d="M8.446 9.522c-0.062 0.011-0.084-0.02-0.121-0.034C8.305 9.5 8.3 9.5 8.3 9.5 C8.342 9.5 8.4 9.5 8.4 9.522z"/><path d="M8.203 16.476C8.221 16.4 8.4 16.5 8.4 16.44C8.43 16.5 8.3 16.5 8.2 16.476z"/><path d="M8.394 17.392c0.02 0 0 0 0 0.018c-0.02 0 0 0.039-0.034 0.1 c-0.036 0.008-0.047-0.012-0.069-0.018c0-0.005 0-0.011 0-0.017c0.04 0 0.1 0 0.087-0.017 c-0.026-0.005-0.064 0.006-0.07-0.019C8.348 17.4 8.4 17.4 8.4 17.392z"/><path d="M8.272 10.422c0.017 0.1 0.2 0.1 0.1 0.208c-0.011-0.047-0.072-0.043-0.068-0.104 c-0.042-0.045-0.069-0.104-0.104-0.156c0.008-0.031 0 0 0 0.018C8.259 10.4 8.3 10.4 8.3 10.422z"/><path d="M8.256 10.319c0.022 0 0 0 0.1 0c-0.036 0 0.1 0.083-0.019 0.1 c-0.004-0.013-0.014-0.02-0.034-0.017c0-0.017-0.014-0.021-0.017-0.035c-0.01-0.025 0.067-0.042 0.017-0.052 C8.271 10.4 8.3 10.3 8.3 10.319z"/><path d="M8.29 9.454c0.008 0 0 0 0 0.035c-0.042 0.058-0.14-0.01-0.156-0.07 C8.223 9.4 8.3 9.4 8.3 9.454z"/><path d="M8.29 11.2c-0.002 0.011-0.003 0.021-0.005 0.032C8.275 11.2 8.3 11.2 8.3 11.2z"/><path d="M8.256 9.592C8.273 9.7 8.2 9.6 8.2 9.627c0-0.012 0-0.023 0-0.035 C8.197 9.6 8.2 9.6 8.3 9.592z"/><path d="M8.169 10.146c0.033 0 0 0 0.1 0.035c-0.021 0.084-0.123-0.002-0.07 0.1 C8.142 10.2 8.1 10.2 8.2 10.146z"/><path d="M8.325 10.526C8.248 10.5 8.2 10.4 8.2 10.301c0.045 0 0 0.1 0.1 0.1 C8.256 10.4 8.3 10.5 8.3 10.526z"/><path d="M8.135 17.22c0.034-0.007 0.1 0 0.1 0.034c-0.015 0.003-0.016-0.007-0.017-0.018 c-0.02 0.004-0.01 0 0 0.018c-0.018 0.022-0.046 0.033-0.052 0.069c-0.037-0.011-0.056-0.037-0.086-0.053 C8.064 17.2 8.1 17.3 8.1 17.22z"/><path d="M8.169 16.32c0.01 0 0 0.1 0 0.086c-0.022-0.04-0.038-0.011-0.036-0.066 c0-0.001 0.001-0.002 0.001-0.003c0 0-0.001 0-0.001 0c0-0.005 0.001-0.011 0.001-0.017C8.146 16.3 8.2 16.3 8.2 16.32z"/><path d="M8.169 9.799c0.047 0 0.1 0.142-0.018 0.139C8.153 9.9 8.1 9.8 8.2 9.799z"/><path d="M8.169 9.419c-0.006 0-0.012 0-0.018 0C8.137 9.4 8.1 9.4 8.1 9.4 c-0.03-0.044-0.11-0.04-0.155-0.07C7.979 9.3 8.1 9.4 8.2 9.419z"/><path d="M8.151 9.419C8.155 9.5 8.1 9.5 8.1 9.489c0.042-0.091-0.07 0.014-0.139-0.052 C7.986 9.4 8 9.4 8.1 9.402C8.113 9.4 8.1 9.4 8.2 9.419z"/><polygon points="8.1,16.3 8.1,16.3 8.1,16.3"/><path d="M8.133 16.337c0 0 0 0 0 0.003c-0.029 0.072-0.079 0.021-0.12 0 c0.016-0.042 0.1 0 0.068-0.018c0-0.006 0-0.012 0-0.017c0.012 0 0 0 0 0C8.118 16.3 8.1 16.3 8.1 16.337z"/><path d="M8.1 9.973c0.086 0 0.1 0.24-0.018 0.19c0-0.006 0-0.012 0-0.018c0.006 0 0 0 0 0 c0.018-0.069-0.052-0.052-0.035-0.122C8.073 10 8.1 10 8.1 9.973z"/><path d="M8.031 9.592c0.009-0.02 0.1 0.3 0.1 0.259C8.059 9.7 8 9.7 8 9.592z"/><path d="M8.082 9.575c-0.06-0.013-0.072 0.02-0.104 0.034C7.958 9.6 7.9 9.6 7.9 9.5 C8.005 9.5 8 9.5 8.1 9.575z"/><path d="M7.91 16.44c0.079-0.016 0.1 0 0.2 0.035C8.047 16.5 7.9 16.5 7.9 16.44z"/><path d="M7.979 9.609c-0.022 0.079-0.022 0.2 0 0.259C7.915 9.7 7.9 9.5 7.9 9.3 c0.006 0 0 0 0 0c0 0.1 0 0.1 0 0.172C7.904 9.6 8 9.6 8 9.609z"/><path d="M7.875 17.201c0.019 0.1 0.1 0 0.1 0.104c-0.097-0.03-0.176-0.077-0.243-0.139 C7.822 17.2 7.8 17.2 7.9 17.201z"/><path d="M7.91 17.167c-0.004 0.02-0.02 0.026-0.035 0.034c-0.051 0.005-0.053-0.038-0.104-0.034 c-0.014 0.003-0.016-0.006-0.017-0.018c0.007-0.021 0.022-0.034 0.052-0.034C7.83 17.2 7.9 17.2 7.9 17.167z"/><path d="M7.857 16.39c-0.01 0.013-0.018 0.027-0.017 0.051c-0.029 0-0.059 0-0.087 0 c-0.02-0.021-0.02-0.061-0.018-0.104C7.805 16.4 7.8 16.4 7.9 16.39z"/><path d="M7.512 16.199c0.09 0 0.2 0 0.3 0.069C7.696 16.3 7.6 16.3 7.5 16.199z"/><path d="M7.581 17.012c0.029 0.1 0.1 0.1 0.1 0.121c-0.132-0.059-0.238-0.143-0.346-0.225 c-0.046-0.064-0.137-0.083-0.173-0.156c0.01 0 0 0 0 0c0.004 0 0 0 0 0 c0.01 0 0 0 0.1 0.053c0.044 0 0.1 0.1 0.1 0.104H7.46c0.016 0 0.1 0 0.1 0.1 C7.56 17 7.6 17 7.6 17.012z"/><path d="M7.627 16.945c0.002-0.001 0.003-0.002 0.005-0.003C7.632 16.9 7.6 16.9 7.6 16.945z"/><path d="M7.627 16.945c-0.049 0 0 0.063-0.012 0.084c-0.004-0.014-0.014-0.021-0.034-0.018 c-0.018 0-0.021-0.015-0.035-0.018C7.519 17 7.6 17 7.6 16.945z"/><path d="M7.633 16.821c-0.049 0.048-0.113 0.083-0.173 0.121H7.442C7.461 16.9 7.5 16.8 7.6 16.821z"/><path d="M7.271 16.786c-0.026-0.056 0.1 0 0.1 0.053C7.296 16.8 7.3 16.8 7.3 16.786z"/><path d="M7.201 16.752c0.036 0.1 0.1 0.1 0.2 0.156c-0.089-0.057-0.177-0.112-0.243-0.19 c0.018 0 0 0 0 0.018C7.167 16.8 7.2 16.7 7.2 16.752z"/><path d="M7.287 16.58c0 0 0 0 0 0.068c-0.028 0-0.059 0-0.086 0C7.204 16.6 7.2 16.6 7.3 16.58z"/><path d="M7.148 16.648c0.038 0 0.1 0 0.1 0.104c-0.011 0-0.023 0-0.033 0 c-0.014-0.004-0.034 0-0.035-0.017c-0.009-0.025 0.066-0.042 0.018-0.053C7.188 16.7 7.1 16.6 7.1 16.648z"/><path d="M6.959 16.129c0.107 0.1 0.2 0 0.3 0.104c-0.142-0.017-0.354 0.029-0.449-0.139 c0.037 0 0.1 0 0.087-0.017c-0.001 0.011-0.004 0.02-0.019 0.017c0.055-0.031-0.07-0.062-0.018-0.086 c0.028-0.005 0 0 0.1 0.017C7.024 16.1 7 16.1 7 16.129z"/><path d="M6.977 16.458c-0.011 0.024-0.067 0.003-0.071 0.035c-0.018-0.004-0.025-0.02-0.033-0.035 c0.045-0.046-0.027-0.014-0.018-0.068C6.895 16.4 7 16.4 7 16.458z"/><path d="M6.905 16.493c-0.002 0 0.1 0 0.1 0.087c-0.153-0.096-0.272-0.226-0.398-0.347 c-0.023-0.051-0.079-0.069-0.104-0.121c0.041 0 0 0.1 0.1 0.053c-0.008 0 0 0 0.1 0 c0 0.1 0 0.1 0.1 0.086c0.023 0 0.1 0.1 0.1 0.104c0.019 0 0.1 0.1 0.1 0.1 C6.88 16.5 6.9 16.5 6.9 16.493z"/><path d="M6.923 16.216c-0.002 0.038-0.072 0.007-0.103 0.018c-0.018 0-0.014 0.021-0.018 0 c-0.073 0.006-0.016-0.075-0.018-0.104C6.852 16.2 6.9 16.2 6.9 16.216z"/><path d="M6.838 16.043c0.009 0 0 0 0 0.052c-0.027 0.002-0.066-0.008-0.069 0 C6.756 16.1 6.8 16 6.8 16.043z"/><path d="M6.781 16.305c0.001-0.001 0.002-0.001 0.004-0.002C6.784 16.3 6.8 16.3 6.8 16.305z"/><path d="M6.665 16.285c0.033-0.04 0.1 0 0.1 0.02c-0.038 0 0 0.059-0.014 0.1 C6.722 16.4 6.7 16.3 6.7 16.285z"/><path d="M6.698 15.957c0.018-0.058 0 0 0.1 0.018c-0.002 0.032-0.058 0.012-0.053 0.1 c-0.014-0.003-0.018-0.017-0.033-0.017c-0.005-0.028 0.016-0.03 0.016-0.052C6.697 16 6.7 16 6.7 15.957z"/><path d="M6.681 16.199C6.609 16.2 6.7 16.2 6.6 16.25c0.001-0.029-0.014-0.044-0.035-0.051 c-0.026-0.002-0.06 0.002-0.052-0.034c0.033-0.045 0.037-0.009 0.068-0.053C6.64 16.1 6.7 16.2 6.7 16.199z"/><path d="M6.63 15.939c-0.022 0.037-0.069-0.026-0.087 0.035C6.556 16 6.6 16 6.6 16 c-0.005 0.022-0.043 0.014-0.068 0.017c-0.015-0.06 0.019-0.072 0.034-0.104c-0.057-0.021-0.013 0.057-0.069 0 c0.012-0.047-0.035-0.034-0.051-0.053c0.047-0.031 0.1 0.1 0.138-0.034c0.024 0.008-0.002 0 0 0 C6.59 15.9 6.6 15.9 6.6 15.939z"/><path d="M6.456 16.112c0.025 0.1 0.1 0.1 0.1 0.121c-0.077-0.062-0.146-0.131-0.207-0.208 c0.035 0 0 0 0.1 0.053C6.427 16.1 6.4 16.1 6.5 16.112z"/><path d="M6.423 15.784c0.016-0.001 0 0.048-0.087 0.069c-0.025 0.009-0.043 0.026-0.053 0.1 c-0.005 0-0.011 0-0.017 0C6.28 15.8 6.4 15.8 6.4 15.784z"/><path d="M6.423 16.078c-0.036-0.005-0.034-0.048-0.069-0.053c-0.012-0.018-0.04-0.018-0.035-0.051 c-0.005-0.036-0.047-0.035-0.052-0.07c0.006 0 0 0 0 0c0.021-0.002 0 0 0 0 c-0.05 0 0 0 0 0.053c0.008 0 0 0 0.1 0.034C6.375 16.1 6.4 16 6.4 16.078z"/><path d="M6.387 16.009c-0.029 0.001-0.043-0.014-0.051-0.034c0.048-0.018-0.025-0.047 0.018-0.07 c0.048-0.03 0 0 0.1 0.035C6.423 16 6.4 16 6.4 16.009z"/><path d="M6.318 15.888c0.014 0 0 0 0 0.017c-0.043 0 0 0.053-0.018 0.1 c0.009-0.025-0.067-0.043-0.018-0.053c-0.004-0.014-0.014-0.02-0.035-0.018c0.01-0.024 0.027-0.042 0.053-0.051 C6.336 15.9 6.3 15.9 6.3 15.888z"/><path d="M6.301 15.732c0.044 0.022-0.019 0.083-0.069 0.068c0.011-0.015 0.021-0.03 0-0.034 C6.22 15.7 6.3 15.8 6.3 15.732z"/><path d="M6.267 15.904c0.005 0 0 0 0.1 0.07c-0.064-0.052-0.123-0.108-0.173-0.174 C6.197 15.8 6.2 15.9 6.3 15.904z"/><path d="M6.162 15.749c0.016 0 0 0 0.1 0.018c-0.019 0.024-0.018 0 0 0.1 C6.221 15.8 6.2 15.8 6.2 15.749z"/><path d="M5.887 15.402c0.063 0.1 0.2 0.2 0.3 0.382c-0.082-0.074-0.151-0.16-0.208-0.26 c-0.037-0.029-0.118-0.203-0.017-0.122c0.028-0.006 0 0 0 0.036C5.908 15.5 5.9 15.4 5.9 15.402z"/><path d="M5.921 15.402c-0.102-0.081-0.021 0.1 0 0.122c-0.049-0.037-0.096-0.077-0.087-0.173 C5.896 15.3 5.9 15.4 5.9 15.402z"/></g><g></g></g></g></svg>