<svg xmlns="http://www.w3.org/2000/svg" xmlns:xlink="http://www.w3.org/1999/xlink" version="1.1" x="0px" y="0px" width="150px" height="150px" viewBox="0 0 150 150" enable-background="new 0 0 150 150" xml:space="preserve"><g><path opacity="0.36" fill="#EB4A3F" d="M150 75.001c0 41.369-33.579 74.91-74.998 74.91C33.58 149.9 0 116.4 0 75 C0 33.6 33.6 0.1 75 0.088C116.421 0.1 150 33.6 150 75.001z"/><g><g><path fill="#EB4A3F" d="M75.002 123.984c27.179 0 49.219-22.012 49.219-49.16c0-27.151-22.04-49.162-49.219-49.162 c-27.184 0-49.221 22.011-49.221 49.162C25.781 102 47.8 124 75 124"/></g><path fill="#FFFFFF" d="M89.109 50.075c-3.934-3.928-8.549-5.837-14.107-5.837c-5.556 0-10.173 1.91-14.11 5.8 c-3.935 3.933-5.845 8.539-5.845 14.093c0 2.8 0.4 5.1 1.2 6.861l15.208 32.209c0.311 0.7 0.8 1.2 1.4 1.6 c1.324 0.8 2.9 0.8 4.2 0c0.646-0.391 1.124-0.912 1.452-1.586L93.71 71.029c0.829-1.744 1.248-4.05 1.248-6.861 C94.958 58.6 93 54 89.1 50.075z M81.57 70.728c-1.832 1.827-3.983 2.715-6.568 2.7 c-2.588 0-4.737-0.885-6.568-2.715c-1.832-1.829-2.718-3.971-2.718-6.561c0-2.585 0.886-4.73 2.718-6.558 c1.831-1.829 3.979-2.72 6.568-2.72c2.584 0 4.7 0.9 6.6 2.72c1.83 1.8 2.7 4 2.7 6.6 C84.29 66.8 83.4 68.9 81.6 70.728z"/></g></g></svg>