<svg class="icon icon-share icon-email" xmlns="http://www.w3.org/2000/svg" xmlns:xlink="http://www.w3.org/1999/xlink" version="1.1" x="0px" y="0px" width="25px" height="25px" viewBox="0 0 25 25" enable-background="new 0 0 25 25" xml:space="preserve"><g><g><path d="M12.497 25L12.497 25c-3.341 0-6.479-1.3-8.84-3.661C-1.219 16.465-1.219 8.5 3.7 3.7 C6.018 1.3 9.2 0 12.5 0s6.48 1.3 8.8 3.662C23.699 6 25 9.2 25 12.5c0 3.339-1.301 6.478-3.663 8.8 C18.976 23.7 15.8 25 12.5 25z M12.496 0.455c-3.217 0-6.243 1.252-8.518 3.527c-4.698 4.698-4.698 12.3 0 17 c2.274 2.3 5.3 3.5 8.5 3.528h0.001c3.218 0 6.243-1.253 8.519-3.529c2.276-2.274 3.529-5.299 3.529-8.518 c0-3.217-1.253-6.242-3.529-8.516C18.741 1.7 15.7 0.5 12.5 0.455z"/></g><g><path d="M17.2 16.509H8.019c-0.693 0-1.256-0.563-1.256-1.257V9.513c0-0.693 0.562-1.257 1.256-1.257H17.2 c0.692 0 1.3 0.6 1.3 1.257v5.739C18.456 15.9 17.9 16.5 17.2 16.509z M8.019 8.772c-0.408 0-0.74 0.331-0.74 0.7 v5.739c0 0.4 0.3 0.7 0.7 0.74H17.2c0.408 0 0.74-0.331 0.74-0.74V9.513c0-0.409-0.332-0.74-0.74-0.74H8.019z"/></g><g><polyline points="7.3,8.4 12.6,13.4 17.9,8.4"/></g><g><path d="M7.451 16.208c-0.063 0-0.128-0.023-0.177-0.071c-0.104-0.099-0.107-0.261-0.009-0.364l4.641-4.856 c0.099-0.104 0.263-0.106 0.365-0.009c0.104 0.1 0.1 0.3 0 0.365l-4.643 4.856C7.588 16.2 7.5 16.2 7.5 16.208z"/></g><g><path d="M17.768 16.208c-0.069 0-0.137-0.026-0.188-0.08l-4.642-4.856c-0.099-0.103-0.095-0.266 0.008-0.365 c0.104-0.099 0.268-0.095 0.4 0.009l4.641 4.856c0.1 0.1 0.1 0.266-0.008 0.364C17.896 16.2 17.8 16.2 17.8 16.208z"/></g></g></svg>