<svg xmlns="http://www.w3.org/2000/svg" xmlns:xlink="http://www.w3.org/1999/xlink" version="1.1" x="0px" y="0px" width="104.254px" height="16px" viewBox="0 0 104.254 16" enable-background="new 0 0 104.254 16" xml:space="preserve"><style>.logo-foodtrip-style{fill:	#2E3136;}</style><g><path d="M19.952 14.356V1.957h8.922v2.252h-6.581v3.389h6.227v2.164h-6.227v4.595H19.952z" class="logo-foodtrip-style"/><path d="M42.623 8.218c-0.036 3.211-2.005 6.421-6.369 6.421c-4.363 0-6.386-3.14-6.386-6.403 s2.093-6.545 6.386-6.545C40.53 1.7 42.7 5 42.6 8.218z M32.175 8.271c0.053 2 1.2 4.2 4.1 4.2 s4.027-2.198 4.062-4.239c0.036-2.093-1.135-4.435-4.062-4.435S32.122 6.2 32.2 8.271z" class="logo-foodtrip-style"/><path d="M56.106 8.218c-0.037 3.211-2.005 6.421-6.369 6.421c-4.363 0-6.386-3.14-6.386-6.403 s2.093-6.545 6.386-6.545C54.012 1.7 56.1 5 56.1 8.218z M45.658 8.271c0.053 2 1.2 4.2 4.1 4.2 s4.027-2.198 4.062-4.239c0.037-2.093-1.135-4.435-4.062-4.435S45.605 6.2 45.7 8.271z" class="logo-foodtrip-style"/><path d="M68.312 8.041c0.053 3.139-1.863 6.315-6.208 6.315c-1.527 0-3.354 0-4.878 0V1.939 c1.524 0 3.4 0 4.9 0C66.36 1.9 68.3 5 68.3 8.041z M59.549 12.104h2.556c2.819 0 3.938-2.059 3.884-4.081 C65.936 6.1 64.8 4.2 62.1 4.156h-2.556V12.104z" class="logo-foodtrip-style"/><path d="M73.209 2.808h-4.487V1.957h9.933v0.852h-4.486v11.548h-0.959V2.808z" class="logo-foodtrip-style"/><path d="M89.938 14.356h-1.26l-4.292-4.701h-3.389v4.701h-0.958V1.939c1.827 0 3.6 0 5.5 0 c2.696 0 4.1 1.9 4.1 3.867c0.018 2.022-1.312 3.796-4.026 3.796L89.938 14.356z M80.997 8.75h4.399 c2.164 0 3.122-1.224 3.14-2.962c0.018-1.455-0.976-2.962-3.033-2.962h-4.506V8.75z" class="logo-foodtrip-style"/><path d="M91.11 14.356V1.939h0.94v12.417H91.11z" class="logo-foodtrip-style"/><path d="M95.298 10.064v4.292h-0.959V1.939c1.81 0 3.6 0 5.4 0c5.394 0 5.4 8.1 0 8.125H95.298z M95.298 2.826v6.368h4.486c4.133 0 4.133-6.368 0-6.368H95.298z" class="logo-foodtrip-style"/></g><g><g><path d="M8 16c-4.412 0-8-3.588-8-8c0-4.411 3.588-8 8-8c4.411 0 8 3.6 8 8C16 12.4 12.4 16 8 16z M8 0.3 C3.749 0.3 0.3 3.7 0.3 8c0 4.2 3.5 7.7 7.7 7.708c4.25 0 7.708-3.458 7.708-7.708 C15.708 3.7 12.2 0.3 8 0.291z" class="logo-foodtrip-style"/></g><path d="M7.628 3.438H7.05c-0.087 0-0.159 0.071-0.159 0.159v2.538H4.522c-0.092 0-0.214 0.022-0.335 0.1 C4.065 6.2 4 6.3 3.9 6.333L2.354 7.38C2.297 7.4 2.3 7.5 2.3 7.514s0.03 0.1 0.1 0.134l1.526 1 c0.075 0.1 0.2 0.1 0.3 0.138C4.308 8.9 4.4 8.9 4.5 8.893h2.369v5.75c0 0.1 0.1 0.2 0.2 0.159h0.578 c0.087 0 0.159-0.071 0.159-0.159V3.597C7.787 3.5 7.7 3.4 7.6 3.438z" class="logo-foodtrip-style"/><path d="M14.829 6.096l-1.525-1.047c-0.074-0.051-0.186-0.102-0.308-0.139c-0.122-0.038-0.244-0.059-0.335-0.059 H8.387l0.48 2.758h3.794c0.092 0 0.214-0.021 0.335-0.059c0.122-0.037 0.234-0.088 0.308-0.139l1.525-1.047 c0.056-0.038 0.087-0.086 0.087-0.134C14.916 6.2 14.9 6.1 14.8 6.096z" class="logo-foodtrip-style"/></g></svg>